<svg width="10" height="10" viewBox="0 0 10 10" fill="none" xmlns="http://www.w3.org/2000/svg">
<path d="M9.7848 4.36152H8.67738C8.61449 4.36152 8.55433 4.38887 8.51195 4.43672L5.51917 7.88613V0.1875C5.51917 0.127344 5.46995 0.078125 5.4098 0.078125H4.58949C4.52933 0.078125 4.48011 0.127344 4.48011 0.1875V7.88613L1.48734 4.43672C1.44632 4.38887 1.38617 4.36152 1.32191 4.36152H0.214487C0.121518 4.36152 0.0709318 4.47227 0.132455 4.54199L4.67015 9.77148C4.71117 9.8188 4.76188 9.85675 4.81884 9.88276C4.87581 9.90877 4.9377 9.92223 5.00033 9.92223C5.06295 9.92223 5.12484 9.90877 5.18181 9.88276C5.23877 9.85675 5.28948 9.8188 5.3305 9.77148L9.86683 4.54199C9.92835 4.4709 9.87777 4.36152 9.7848 4.36152Z" fill="#001535"/>
</svg>
