<svg width="39" height="38" viewBox="0 0 39 38" fill="none" xmlns="http://www.w3.org/2000/svg">
<g clip-path="url(#clip0)">
<path d="M35.5614 17.1949L34.5903 13.3105C34.8558 13.2541 35.055 13.0186 35.055 12.7364V12.1101C35.055 10.7502 33.9487 9.644 32.5889 9.644H28.1657V8.35215C28.1657 7.68301 27.6213 7.13867 26.9522 7.13867H4.40518C3.73604 7.13867 3.1917 7.68301 3.1917 8.35215V18.9994C3.1917 19.3236 3.45457 19.5866 3.77888 19.5866C4.10313 19.5866 4.36606 19.3237 4.36606 18.9994V8.35215C4.36606 8.33054 4.38357 8.31304 4.40518 8.31304H26.9521C26.9737 8.31304 26.9912 8.33054 26.9912 8.35215V18.9995C26.9912 19.3238 27.2541 19.5867 27.5784 19.5867C27.9027 19.5867 28.1656 19.3238 28.1656 18.9995V18.3339H35.092C35.0926 18.3339 35.0931 18.334 35.0936 18.334C35.0942 18.334 35.0947 18.334 35.0952 18.334C35.9475 18.3345 36.6712 18.894 36.9198 19.6648H35.094C34.7698 19.6648 34.5068 19.9277 34.5068 20.252V21.5046C34.5068 22.5191 35.3321 23.3444 36.3466 23.3444H37.0121V25.9279H35.4768C34.9724 24.4716 33.5881 23.4226 31.9625 23.4226C30.3369 23.4226 28.9524 24.4716 28.4482 25.9279H28.1655V21.5045C28.1655 21.1803 27.9026 20.9174 27.5783 20.9174C27.254 20.9174 26.9911 21.1802 26.9911 21.5045V25.9277H14.8089C14.3045 24.4714 12.9202 23.4225 11.2946 23.4225C9.66895 23.4225 8.28452 24.4714 7.78025 25.9277H4.40518C4.38357 25.9277 4.36606 25.9102 4.36606 25.8886V24.5968H6.91042C7.23467 24.5968 7.49761 24.334 7.49761 24.0096C7.49761 23.6853 7.23474 23.4225 6.91042 23.4225H1.27371C0.949463 23.4225 0.686523 23.6853 0.686523 24.0096C0.686523 24.334 0.94939 24.5968 1.27371 24.5968H3.19177V25.8886C3.19177 26.5577 3.73611 27.1021 4.40525 27.1021H7.57693C7.57678 27.1151 7.5759 27.1281 7.5759 27.1412C7.5759 29.1917 9.24414 30.8598 11.2946 30.8598C13.345 30.8598 15.0132 29.1917 15.0132 27.1412C15.0132 27.128 15.0123 27.1151 15.0122 27.1021H28.2448C28.2447 27.1151 28.2438 27.1281 28.2438 27.1412C28.2438 29.1917 29.9121 30.8598 31.9625 30.8598C34.0129 30.8598 35.6811 29.1917 35.6811 27.1412C35.6811 27.128 35.6802 27.1151 35.6801 27.1021H37.5993C37.9235 27.1021 38.1865 26.8392 38.1865 26.5149V20.2519C38.1865 18.7056 37.0456 17.4209 35.5614 17.1949ZM28.1657 10.8183H32.5889C33.3012 10.8183 33.8807 11.3978 33.8807 12.1101V12.1492H28.1657V10.8183ZM28.1657 17.1596V13.3235H33.3831L34.3421 17.1596H28.1657ZM11.2946 29.6857C9.8916 29.6857 8.7502 28.5444 8.7502 27.1413C8.7502 25.7383 9.8916 24.597 11.2946 24.597C12.6975 24.597 13.8389 25.7383 13.8389 27.1413C13.8389 28.5444 12.6975 29.6857 11.2946 29.6857ZM31.9626 29.6857C30.5597 29.6857 29.4183 28.5444 29.4183 27.1413C29.4183 25.7383 30.5597 24.597 31.9626 24.597C33.3656 24.597 34.507 25.7383 34.507 27.1413C34.507 28.5444 33.3656 29.6857 31.9626 29.6857ZM37.0122 22.17H36.3468C35.9798 22.17 35.6813 21.8715 35.6813 21.5045V20.8391H37.0122V22.17H37.0122Z" fill="white"/>
<path d="M11.2945 25.9277C10.6254 25.9277 10.0811 26.4721 10.0811 27.1412C10.0811 27.8104 10.6254 28.3547 11.2945 28.3547C11.9637 28.3547 12.508 27.8104 12.508 27.1412C12.508 26.4721 11.9637 25.9277 11.2945 25.9277Z" fill="white"/>
<path d="M31.9635 25.9277C31.2943 25.9277 30.75 26.4721 30.75 27.1412C30.75 27.8104 31.2943 28.3547 31.9635 28.3547C32.6326 28.3547 33.177 27.8104 33.177 27.1412C33.177 26.4721 32.6326 25.9277 31.9635 25.9277Z" fill="white"/>
<path d="M25.0722 23.4238H16.304C15.9797 23.4238 15.7168 23.6867 15.7168 24.011C15.7168 24.3353 15.9797 24.5982 16.304 24.5982H25.0722C25.3965 24.5982 25.6594 24.3353 25.6594 24.011C25.6594 23.6867 25.3966 23.4238 25.0722 23.4238Z" fill="white"/>
<path d="M10.0433 20.918H2.52761C2.20337 20.918 1.94043 21.1808 1.94043 21.5051C1.94043 21.8295 2.2033 22.0923 2.52761 22.0923H10.0433C10.3675 22.0923 10.6305 21.8295 10.6305 21.5051C10.6305 21.1808 10.3675 20.918 10.0433 20.918Z" fill="white"/>
<path d="M21.1046 12.9473C20.8753 12.7181 20.5035 12.7181 20.2742 12.9474L15.0527 18.1689L12.3363 15.4526C12.107 15.2232 11.7352 15.2232 11.506 15.4526C11.2767 15.6819 11.2767 16.0536 11.506 16.2829L14.6375 19.4145C14.7521 19.5292 14.9024 19.5864 15.0527 19.5864C15.2029 19.5864 15.3532 19.5292 15.4678 19.4145L21.1045 13.7777C21.3338 13.5483 21.3338 13.1766 21.1046 12.9473Z" fill="white"/>
</g>
<defs>
<clipPath id="clip0">
<rect width="37.5" height="37.5" fill="white" transform="translate(0.686523 0.25)"/>
</clipPath>
</defs>
</svg>
