<svg width="18" height="18" viewBox="0 0 18 18" fill="none" xmlns="http://www.w3.org/2000/svg">
<path d="M17.487 14.1402L13.422 10.4442C13.2299 10.2696 12.9774 10.1764 12.7178 10.1845C12.4583 10.1925 12.212 10.3011 12.031 10.4872L9.63801 12.9482C9.06201 12.8382 7.90401 12.4772 6.71201 11.2882C5.52001 10.0952 5.15901 8.93424 5.05201 8.36224L7.51101 5.96824C7.69742 5.78737 7.80614 5.54106 7.81417 5.28145C7.82219 5.02183 7.72889 4.76928 7.55401 4.57724L3.85901 0.513239C3.68405 0.320596 3.44089 0.203743 3.18116 0.187499C2.92143 0.171254 2.66561 0.256897 2.46801 0.426239L0.298008 2.28724C0.125119 2.46075 0.0219269 2.69169 0.0080073 2.93624C-0.0069927 3.18624 -0.292993 9.10824 4.29901 13.7022C8.30501 17.7072 13.323 18.0002 14.705 18.0002C14.907 18.0002 15.031 17.9942 15.064 17.9922C15.3085 17.9786 15.5393 17.8749 15.712 17.7012L17.572 15.5302C17.742 15.3333 17.8283 15.0776 17.8124 14.8179C17.7965 14.5582 17.6798 14.315 17.487 14.1402Z" fill="#3083FF"/>
</svg>
