<svg width="18" height="18" viewBox="0 0 18 18" fill="none" xmlns="http://www.w3.org/2000/svg">
<path d="M17.487 14.1402L13.422 10.4442C13.2298 10.2696 12.9773 10.1764 12.7178 10.1845C12.4582 10.1925 12.212 10.3011 12.031 10.4872L9.63798 12.9482C9.06198 12.8382 7.90398 12.4772 6.71198 11.2882C5.51998 10.0952 5.15898 8.93424 5.05198 8.36224L7.51098 5.96824C7.69739 5.78737 7.80611 5.54106 7.81414 5.28145C7.82216 5.02183 7.72886 4.76928 7.55398 4.57724L3.85898 0.513239C3.68402 0.320596 3.44086 0.203743 3.18113 0.187499C2.9214 0.171254 2.66557 0.256897 2.46798 0.426239L0.297977 2.28724C0.125088 2.46075 0.0218963 2.69169 0.00797679 2.93624C-0.00702321 3.18624 -0.293023 9.10824 4.29898 13.7022C8.30498 17.7072 13.323 18.0002 14.705 18.0002C14.907 18.0002 15.031 17.9942 15.064 17.9922C15.3085 17.9786 15.5393 17.8749 15.712 17.7012L17.572 15.5302C17.742 15.3333 17.8283 15.0776 17.8124 14.8179C17.7965 14.5582 17.6797 14.315 17.487 14.1402Z" fill="#FEC601"/>
</svg>
