<svg width="24" height="24" viewBox="0 0 24 24" fill="none" xmlns="http://www.w3.org/2000/svg">
<circle cx="12" cy="12" r="12" fill="#001535"/>
<path d="M12.0618 6.8H15.6938L13.6618 13.92H11.2458L12.0618 6.8ZM11.8538 18.144C11.3524 18.144 10.9364 17.9947 10.6058 17.696C10.2858 17.3973 10.1258 17.0293 10.1258 16.592C10.1258 16.08 10.3071 15.6587 10.6698 15.328C11.0324 14.9867 11.4858 14.816 12.0298 14.816C12.5418 14.816 12.9578 14.96 13.2778 15.248C13.5978 15.536 13.7578 15.8987 13.7578 16.336C13.7578 16.8373 13.5711 17.264 13.1978 17.616C12.8351 17.968 12.3871 18.144 11.8538 18.144Z" fill="white"/>
</svg>
