<svg width="20" height="16" viewBox="0 0 20 16" fill="none" xmlns="http://www.w3.org/2000/svg">
<path d="M8 7.16925H5.101L5.102 7.15968C5.23257 6.47945 5.48813 5.83337 5.854 5.25849C6.39845 4.40505 7.16215 3.73622 8.054 3.33177C8.356 3.19559 8.671 3.09133 8.992 3.02217C9.65789 2.87854 10.3441 2.87854 11.01 3.02217C11.967 3.2308 12.8451 3.73436 13.535 4.47014L14.951 2.96791C14.3128 2.28876 13.5578 1.7466 12.727 1.371C12.3033 1.18017 11.8628 1.03476 11.412 0.936932C10.4818 0.735866 9.52316 0.735866 8.593 0.936932C8.14185 1.03517 7.70101 1.18093 7.277 1.37207C6.02753 1.93604 4.95793 2.87226 4.197 4.06799C3.68489 4.87426 3.32676 5.77979 3.143 6.73305C3.115 6.87668 3.1 7.0235 3.08 7.16925H0L4 11.4248L8 7.16925ZM12 9.29705H14.899L14.898 9.30556C14.6367 10.6692 13.8812 11.8686 12.795 12.6441C12.2548 13.0336 11.6475 13.3056 11.008 13.4441C10.3424 13.5878 9.65656 13.5878 8.991 13.4441C8.35163 13.3052 7.74435 13.0333 7.204 12.6441C6.93862 12.4531 6.69085 12.2358 6.464 11.9951L5.05 13.4994C5.68851 14.1784 6.44392 14.7202 7.275 15.0953C7.699 15.2868 8.142 15.4326 8.59 15.5294C9.51982 15.7305 10.4782 15.7305 11.408 15.5294C13.2005 15.1336 14.7773 14.0095 15.803 12.3962C16.3146 11.5905 16.6724 10.6857 16.856 9.73325C16.883 9.58962 16.899 9.4428 16.919 9.29705H20L16 5.04145L12 9.29705Z" fill="#3083FF"/>
</svg>
