<svg width="36" height="30" viewBox="0 0 36 30" fill="none" xmlns="http://www.w3.org/2000/svg">
<path d="M0 17.5171V20.085C0.00545854 21.9328 0.741642 23.7034 2.0479 25.0103C3.35416 26.3172 5.1244 27.0543 6.97218 27.0607H29.0278C30.8759 27.0552 32.6466 26.3184 33.9531 25.0113C35.2595 23.7042 35.9954 21.9331 36 20.085V17.5171C35.9953 15.7167 35.2961 13.9875 34.048 12.6899C32.8 11.3924 31.0993 10.6264 29.3005 10.5518H29.0278H6.97218C5.12619 10.5581 3.35754 11.2938 2.05157 12.5985C0.745602 13.9031 0.00818542 15.6711 0 17.5171ZM7.51752 23.1052C7.51752 22.9675 7.57195 22.8355 7.66895 22.7379C7.76594 22.6402 7.89763 22.5849 8.03526 22.584H13.4266C13.5536 22.5987 13.6708 22.6595 13.7559 22.755C13.841 22.8505 13.8879 22.9739 13.8879 23.1017C13.8879 23.2296 13.841 23.353 13.7559 23.4484C13.6708 23.5439 13.5536 23.6048 13.4266 23.6195H8.05253C7.98339 23.6218 7.9145 23.6102 7.84991 23.5854C7.78532 23.5607 7.72632 23.5232 7.67645 23.4753C7.62657 23.4273 7.58682 23.3699 7.55953 23.3063C7.53223 23.2427 7.51794 23.1743 7.51752 23.1052ZM7.51752 21.2103C7.51843 21.0735 7.57338 20.9427 7.67038 20.8464C7.76738 20.75 7.89854 20.696 8.03526 20.696H13.4266C13.5633 20.696 13.6946 20.75 13.7915 20.8464C13.8885 20.9427 13.9435 21.0735 13.9444 21.2103C13.9444 21.3479 13.8899 21.4799 13.7929 21.5776C13.6959 21.6752 13.5643 21.7305 13.4266 21.7314H8.05253C7.9149 21.7305 7.78322 21.6752 7.68622 21.5776C7.58922 21.4799 7.53479 21.3479 7.53479 21.2103H7.51752ZM7.51752 19.3222C7.51752 19.1846 7.57195 19.0526 7.66895 18.9549C7.76594 18.8573 7.89763 18.802 8.03526 18.801H13.4266C13.5536 18.8157 13.6708 18.8766 13.7559 18.9721C13.841 19.0675 13.8879 19.1909 13.8879 19.3188C13.8879 19.4466 13.841 19.57 13.7559 19.6655C13.6708 19.761 13.5536 19.8218 13.4266 19.8365H8.05253C7.98339 19.8388 7.9145 19.8273 7.84991 19.8025C7.78532 19.7777 7.72632 19.7403 7.67645 19.6923C7.62657 19.6444 7.58682 19.5869 7.55953 19.5234C7.53223 19.4598 7.51794 19.3914 7.51752 19.3222Z" fill="white"/>
<path d="M26.1112 27.0602V27.8333C26.1112 27.9828 26.1704 28.1263 26.2758 28.2324C26.3812 28.3384 26.5243 28.3985 26.6738 28.3994H27.7093C27.8588 28.3985 28.0019 28.3384 28.1073 28.2324C28.2127 28.1263 28.2719 27.9828 28.2719 27.8333V27.0498L26.1112 27.0602Z" fill="white"/>
<path d="M26.0042 29.6182H28.3962C28.5925 29.6182 28.7517 29.459 28.7517 29.2627V29.1591C28.7517 28.9628 28.5925 28.8036 28.3962 28.8036H26.0042C25.8078 28.8036 25.6487 28.9628 25.6487 29.1591V29.2627C25.6487 29.459 25.8078 29.6182 26.0042 29.6182Z" fill="white"/>
<path d="M9.5919 27.0602V27.8333C9.59191 27.9823 9.53322 28.1252 9.42855 28.2312C9.32388 28.3371 9.18168 28.3976 9.03275 28.3994H7.99727C7.84774 28.3985 7.70465 28.3384 7.59924 28.2324C7.49382 28.1263 7.43466 27.9828 7.43466 27.8333V27.0498" fill="white"/>
<path d="M7.31043 29.6182H9.7024C9.89874 29.6182 10.0579 29.459 10.0579 29.2627V29.1591C10.0579 28.9628 9.89874 28.8036 9.7024 28.8036H7.31043C7.11409 28.8036 6.95491 28.9628 6.95491 29.1591V29.2627C6.95491 29.459 7.11409 29.6182 7.31043 29.6182Z" fill="white"/>
<path d="M6.06441 9.95117H8.32521C8.42434 9.95117 8.5047 9.87081 8.5047 9.77169V9.43688C8.5047 9.33776 8.42434 9.2574 8.32521 9.2574H6.06441C5.96528 9.2574 5.88492 9.33776 5.88492 9.43688V9.77169C5.88492 9.87081 5.96528 9.95117 6.06441 9.95117Z" fill="white"/>
<path d="M18.7283 1.25657V7.4142C18.7292 7.51187 18.7684 7.60529 18.8374 7.67435C18.9065 7.74342 18.9999 7.78262 19.0976 7.78352H28.9656C29.0379 7.78593 29.1092 7.76689 29.1707 7.72881C29.2321 7.69072 29.2808 7.6353 29.3108 7.56952V1.1047C29.2801 1.03948 29.2312 0.984558 29.1699 0.946577C29.1087 0.908596 29.0377 0.88919 28.9656 0.890708H19.0976C19.0005 0.89159 18.9076 0.930311 18.8386 0.998638C18.7696 1.06697 18.7301 1.15951 18.7283 1.25657ZM20.1089 6.18889C20.1098 6.11044 20.1414 6.03546 20.1968 5.97999C20.2523 5.92451 20.3273 5.89295 20.4057 5.89205H22.594C22.6728 5.89205 22.7483 5.92333 22.8039 5.97899C22.8596 6.03466 22.8909 6.11016 22.8909 6.18889C22.8909 6.26761 22.8596 6.34312 22.8039 6.39878C22.7483 6.45445 22.6728 6.48573 22.594 6.48573H20.4057C20.3267 6.48666 20.2504 6.45637 20.1936 6.40144C20.1367 6.34652 20.1038 6.27138 20.102 6.19234L20.1089 6.18889ZM20.1089 5.00154C20.1098 4.9231 20.1414 4.84811 20.1968 4.79264C20.2523 4.73716 20.3273 4.7056 20.4057 4.70471H22.594C22.6728 4.70471 22.7483 4.73598 22.8039 4.79165C22.8596 4.84732 22.8909 4.92282 22.8909 5.00154C22.8909 5.08027 22.8596 5.15577 22.8039 5.21144C22.7483 5.26711 22.6728 5.29838 22.594 5.29838H20.4057C20.3267 5.29931 20.2504 5.26903 20.1936 5.2141C20.1367 5.15917 20.1038 5.08404 20.102 5.005L20.1089 5.00154Z" fill="white"/>
<path d="M29.335 1.25591C29.3358 1.20215 29.324 1.14897 29.3005 1.10059V7.57231C29.324 7.52393 29.3358 7.47074 29.335 7.41698V1.25591Z" fill="white"/>
<path d="M18.1898 0H15.7461C15.4488 0 15.2077 0.24107 15.2077 0.538446V8.13884C15.2077 8.43621 15.4488 8.67728 15.7461 8.67728H18.1898C18.4872 8.67728 18.7283 8.43621 18.7283 8.13884V0.538446C18.7283 0.24107 18.4872 0 18.1898 0Z" fill="white"/>
<path d="M29.3005 1.03897V7.6384C29.3014 7.78033 29.3579 7.91625 29.458 8.01694C29.558 8.11762 29.6936 8.17504 29.8355 8.17685H31.5613C31.7041 8.17595 31.8409 8.11904 31.9422 8.01836C32.0436 7.91767 32.1014 7.78124 32.1032 7.6384V1.03897C32.1023 0.895528 32.0449 0.758218 31.9435 0.656788C31.842 0.555358 31.7047 0.497975 31.5613 0.49707H29.8355C29.693 0.498886 29.5569 0.556778 29.4567 0.658208C29.3566 0.759637 29.3005 0.896437 29.3005 1.03897Z" fill="white"/>
<path d="M18.7283 7.41699V10.5441H20.1089V9.02198C20.1089 8.93044 20.1453 8.84265 20.21 8.77792C20.2747 8.71319 20.3625 8.67682 20.4541 8.67682C20.5456 8.67682 20.6334 8.71319 20.6981 8.77792C20.7628 8.84265 20.7992 8.93044 20.7992 9.02198V10.5441H21.1444V9.95046C21.1444 9.85891 21.1807 9.77112 21.2455 9.70639C21.3102 9.64166 21.398 9.6053 21.4895 9.6053C21.5811 9.6053 21.6688 9.64166 21.7336 9.70639C21.7983 9.77112 21.8347 9.85891 21.8347 9.95046V10.5441H22.1799V9.95046C22.1799 9.85891 22.2162 9.77112 22.2809 9.70639C22.3457 9.64166 22.4335 9.6053 22.525 9.6053C22.6166 9.6053 22.7043 9.64166 22.7691 9.70639C22.8338 9.77112 22.8702 9.85891 22.8702 9.95046V10.5441H29.0174H29.2901V7.57232C29.2601 7.63809 29.2114 7.69352 29.1499 7.7316C29.0885 7.76969 29.0172 7.78872 28.945 7.78631H19.0976C18.9999 7.78541 18.9065 7.74621 18.8374 7.67715C18.7684 7.60808 18.7292 7.51466 18.7283 7.41699Z" fill="white"/>
<path d="M13.5337 7.52832H14.0341C14.3125 7.52832 14.5381 7.3027 14.5381 7.02439V5.36073C14.5381 5.08241 14.3125 4.85679 14.0341 4.85679H13.5337C13.2554 4.85679 13.0297 5.08241 13.0297 5.36073V7.02439C13.0297 7.3027 13.2554 7.52832 13.5337 7.52832Z" fill="white"/>
<path d="M10.0614 10.5447H8.68073V9.2952C8.68164 8.21071 9.11287 7.17091 9.87972 6.40406C10.6466 5.63721 11.6864 5.20599 12.7709 5.20508H13.0332V6.58571H12.7709C12.0526 6.58663 11.3639 6.87238 10.856 7.38031C10.3481 7.88824 10.0623 8.57688 10.0614 9.2952V10.5447Z" fill="white"/>
<path d="M15.4804 6.59905C15.3596 6.59905 14.8729 6.59905 14.7141 6.59905H14.5381V5.21842H14.7072C15.0528 5.20439 15.399 5.21708 15.7427 5.25638L15.4804 6.59905Z" fill="white"/>
</svg>
