<svg width="22" height="22" viewBox="0 0 22 22" fill="none" xmlns="http://www.w3.org/2000/svg">
<path d="M11 0.200195C9.58167 0.200195 8.17729 0.479546 6.86697 1.0223C5.55665 1.56505 4.36607 2.36057 3.3632 3.36344C1.3378 5.38883 0.199951 8.13586 0.199951 11.0002C0.199951 13.8645 1.3378 16.6116 3.3632 18.6369C4.36607 19.6398 5.55665 20.4353 6.86697 20.9781C8.17729 21.5208 9.58167 21.8002 11 21.8002C13.8643 21.8002 16.6113 20.6623 18.6367 18.6369C20.6621 16.6116 21.7999 13.8645 21.7999 11.0002C21.7999 9.58192 21.5206 8.17753 20.9778 6.86721C20.4351 5.5569 19.6396 4.36631 18.6367 3.36344C17.6338 2.36057 16.4432 1.56505 15.1329 1.0223C13.8226 0.479546 12.4182 0.200195 11 0.200195ZM15.536 15.5362L9.91995 12.0802V5.60019H11.54V11.2162L16.4 14.1322L15.536 15.5362Z" fill="#3083FF"/>
</svg>
