<svg width="36" height="32" viewBox="0 0 36 32" fill="none" xmlns="http://www.w3.org/2000/svg">
<path d="M36 18.1634V19.4416C35.9933 20.5167 35.7435 21.5763 35.2691 22.5411C34.7948 23.5059 34.1082 24.3509 33.2609 25.0127C32.8222 23.9415 32.0365 23.0487 31.0298 22.4773C30.0231 21.9059 28.8538 21.689 27.7091 21.8613C26.5645 22.0337 25.5109 22.5854 24.7171 23.4279C23.9234 24.2704 23.4355 25.3551 23.3316 26.5079L7.0939 26.4149C5.20322 26.3985 3.39587 25.6345 2.06668 24.2899C0.737485 22.9452 -0.00550221 21.1291 3.06817e-05 19.2383V17.9601C0.0164058 16.0691 0.780276 14.2614 2.12486 12.9317C3.46945 11.6019 5.28553 10.8582 7.17659 10.8628L28.9061 10.9868C30.7971 11.0023 32.6049 11.766 33.9343 13.1109C35.2637 14.4558 36.0064 16.2724 36 18.1634Z" fill="#001535"/>
<path d="M32.7641 25.2568C32.3619 24.3056 31.6546 23.5153 30.7536 23.0105C29.8527 22.5057 28.8093 22.3151 27.7881 22.4688C26.7668 22.6224 25.8258 23.1116 25.1132 23.8592C24.4007 24.6068 23.9573 25.5703 23.8528 26.5977C23.8377 26.7449 23.8301 26.894 23.8291 27.0456C23.8255 27.7358 23.9756 28.4181 24.2685 29.0431C24.5613 29.6681 24.9896 30.22 25.5222 30.659C26.0548 31.0979 26.6785 31.4128 27.3479 31.5808C28.0173 31.7488 28.7158 31.7657 29.3925 31.6304C30.0693 31.495 30.7075 31.2107 31.2607 30.7981C31.814 30.3854 32.2685 29.8549 32.5913 29.2448C32.9141 28.6348 33.0971 27.9605 33.127 27.271C33.1568 26.5814 33.0329 25.8939 32.7641 25.2582V25.2568ZM28.4706 28.6629C28.0483 28.6603 27.6444 28.4902 27.3475 28.1899C27.0506 27.8896 26.8852 27.4837 26.8875 27.0615C26.8875 27.0318 26.8875 27.0012 26.8909 26.9716C26.8909 26.9488 26.894 26.9247 26.8971 26.9026C26.9002 26.871 26.904 26.8396 26.9092 26.8079C26.912 26.7881 26.9159 26.7684 26.9209 26.749C26.9301 26.7042 26.9416 26.6599 26.9553 26.6163L26.9729 26.5588C26.9737 26.5552 26.975 26.5517 26.9767 26.5485C26.9826 26.5302 26.9894 26.5123 26.9974 26.494C27.0053 26.4758 27.0129 26.4551 27.0215 26.4351C27.0378 26.396 27.0562 26.3579 27.0766 26.3207C27.0863 26.3014 27.0969 26.2835 27.1076 26.2653L27.1335 26.2225C27.1941 26.1265 27.2647 26.0372 27.3443 25.9562C27.356 25.9438 27.3674 25.9325 27.3788 25.9218C27.3963 25.9049 27.4132 25.8873 27.4329 25.8725C27.4616 25.8459 27.492 25.8212 27.5238 25.7984C27.5403 25.786 27.5583 25.774 27.5748 25.7616C27.5917 25.7491 27.6093 25.7376 27.6275 25.7271C27.8199 25.6046 28.0365 25.5253 28.2625 25.4946C28.2835 25.4918 28.3045 25.489 28.3266 25.4873C28.3486 25.4856 28.3762 25.4828 28.4013 25.4822C28.4035 25.4817 28.4057 25.4817 28.4079 25.4822C28.4347 25.4822 28.4623 25.4822 28.4892 25.4822C28.5161 25.4822 28.5415 25.4821 28.5674 25.4846C28.5709 25.4841 28.5745 25.4841 28.5781 25.4846C28.6018 25.4846 28.6249 25.4877 28.6487 25.4908C28.6725 25.4939 28.7042 25.4966 28.7317 25.5008C28.7593 25.5049 28.7776 25.5087 28.8006 25.5135C28.8237 25.5183 28.8406 25.5221 28.8606 25.5273C28.8806 25.5314 28.9004 25.5365 28.9198 25.5428C28.9648 25.5554 29.0091 25.5703 29.0525 25.5876C29.0714 25.5945 29.0907 25.602 29.1086 25.61C29.1266 25.6179 29.1469 25.6262 29.1648 25.6351C29.1772 25.6406 29.1889 25.6465 29.2013 25.6534C29.2193 25.6617 29.2368 25.671 29.2537 25.6813C29.2881 25.7006 29.3226 25.7209 29.3553 25.743C29.3726 25.7536 29.3898 25.7654 29.4049 25.7774C29.4201 25.7895 29.4373 25.8005 29.4525 25.8119C29.4843 25.8355 29.5147 25.8608 29.5438 25.8877C29.562 25.9032 29.5782 25.9197 29.5951 25.9359L29.6296 25.9703C29.6571 25.9993 29.6837 26.0282 29.7081 26.0589L29.7453 26.1051C29.7577 26.1213 29.7691 26.1368 29.7798 26.1529C29.8032 26.1857 29.8253 26.2191 29.8452 26.2529C29.8559 26.2696 29.8657 26.2868 29.8745 26.3045C29.8849 26.3218 29.8935 26.339 29.9028 26.3573C29.9208 26.3908 29.9369 26.4253 29.951 26.4606C29.9593 26.4806 29.9679 26.502 29.9744 26.5219C29.981 26.5419 29.9903 26.566 29.9972 26.5881C30.0027 26.6043 30.0082 26.6205 30.012 26.6367L30.0206 26.6656C30.0241 26.6801 30.0272 26.6942 30.0306 26.7087C30.0354 26.7287 30.0403 26.749 30.0437 26.769C30.0471 26.789 30.0502 26.8034 30.053 26.8244C30.0548 26.831 30.056 26.8377 30.0568 26.8444C30.0606 26.8692 30.0633 26.8933 30.0651 26.9182C30.0651 26.9343 30.0675 26.9499 30.0685 26.965C30.0703 26.9793 30.0712 26.9937 30.0713 27.0081C30.0713 27.0329 30.0713 27.0567 30.0713 27.0815C30.0682 27.5033 29.8979 27.9066 29.5978 28.2031C29.2978 28.4995 28.8924 28.6649 28.4706 28.6629Z" fill="#001535"/>
<path d="M9.46079 30.6805L4.48923 30.6529L6.21532 26.8906L11.1869 26.9182L9.46079 30.6805Z" fill="#001535"/>
<path d="M27.4556 1.34022V1.83635C27.4528 2.17506 27.3161 2.49893 27.0753 2.73715C26.8345 2.97537 26.5092 3.10858 26.1705 3.10766L22.6149 3.10077C22.3008 3.09762 21.9987 2.9795 21.7657 2.76874C21.5327 2.55799 21.385 2.26919 21.3505 1.95693L17.2609 1.93281L17.2127 10.4565H15.4901L15.5452 0.97502C15.5423 0.723821 15.6375 0.481405 15.8106 0.299321C15.9837 0.117238 16.2209 0.00985262 16.472 0H16.5271L26.1739 0.0551261H26.2394C26.5681 0.0727783 26.8776 0.215924 27.1039 0.45504C27.3302 0.694156 27.4561 1.011 27.4556 1.34022Z" fill="#001535"/>
<path d="M34.1739 6.15327L34.1498 10.3359C34.1471 10.6746 34.0104 10.9984 33.7696 11.2367C33.5287 11.4749 33.2034 11.6081 32.8647 11.6072H32.8371C31.6733 10.8122 30.2982 10.3839 28.8888 10.3772L19.4521 10.3359C19.4521 10.3152 19.4521 10.2911 19.4521 10.267L19.4763 6.07747C19.4799 5.73903 19.6169 5.41569 19.8575 5.17766C20.0981 4.93963 20.4229 4.80613 20.7614 4.80615L32.906 4.87506C33.243 4.87868 33.5649 5.01484 33.8022 5.25406C34.0395 5.49328 34.173 5.81632 34.1739 6.15327Z" fill="#001535"/>
<path d="M19.4832 10.9355L28.9061 10.9872C30.3163 10.9955 31.692 11.4237 32.8578 12.2172" fill="#001535"/>
</svg>
