<svg width="10" height="12" viewBox="0 0 10 12" fill="none" xmlns="http://www.w3.org/2000/svg">
<path d="M4.255 7.355C4.255 6.835 4.37 6.405 4.6 6.065C4.84 5.725 5.185 5.35 5.635 4.94C5.965 4.64 6.205 4.39 6.355 4.19C6.515 3.98 6.595 3.745 6.595 3.485C6.595 3.115 6.445 2.825 6.145 2.615C5.855 2.395 5.465 2.285 4.975 2.285C4.505 2.285 4.085 2.385 3.715 2.585C3.355 2.775 3.05 3.045 2.8 3.395L0.985 2.33C1.405 1.69 1.97 1.195 2.68 0.844999C3.4 0.495 4.25 0.32 5.23 0.32C6.38 0.32 7.3 0.565 7.99 1.055C8.69 1.545 9.04 2.225 9.04 3.095C9.04 3.505 8.97 3.865 8.83 4.175C8.7 4.485 8.535 4.75 8.335 4.97C8.145 5.18 7.895 5.425 7.585 5.705C7.215 6.035 6.945 6.315 6.775 6.545C6.605 6.765 6.52 7.035 6.52 7.355H4.255ZM5.395 11.12C4.985 11.12 4.64 10.99 4.36 10.73C4.09 10.46 3.955 10.135 3.955 9.755C3.955 9.375 4.09 9.06 4.36 8.81C4.63 8.55 4.975 8.42 5.395 8.42C5.815 8.42 6.16 8.55 6.43 8.81C6.7 9.06 6.835 9.375 6.835 9.755C6.835 10.135 6.695 10.46 6.415 10.73C6.145 10.99 5.805 11.12 5.395 11.12Z" fill="white"/>
</svg>
