<svg width="39" height="38" viewBox="0 0 39 38" fill="none" xmlns="http://www.w3.org/2000/svg">
<path d="M25.4217 17.7706C25.084 16.9456 24.1382 16.5486 23.313 16.8858L10.1771 22.2554C9.77723 22.4189 9.46496 22.7282 9.29773 23.1265C9.13057 23.5249 9.12859 23.9644 9.29209 24.3644C9.37406 24.5647 9.49272 24.7434 9.64479 24.8956C9.64486 24.8956 9.64486 24.8956 9.64486 24.8957C9.95486 25.2057 10.3671 25.3701 10.7876 25.3701C10.9937 25.3701 11.2018 25.3306 11.4008 25.2493L24.5369 19.8796C25.3622 19.5421 25.7592 18.5961 25.4217 17.7706ZM24.1212 18.8626L10.9851 24.2323C10.791 24.3115 10.57 24.2671 10.4218 24.1188C10.3733 24.0704 10.3354 24.0129 10.309 23.9485C10.2565 23.8203 10.2572 23.6793 10.3108 23.5516C10.3643 23.4239 10.4645 23.3248 10.5927 23.2723L23.7286 17.9027C23.9933 17.7946 24.2967 17.9219 24.4049 18.1864C24.5131 18.4511 24.3858 18.7544 24.1212 18.8626Z" fill="white"/>
<path d="M19.8425 17.4243C21.5723 15.6944 21.6971 13.0043 20.1204 11.4278C18.5438 9.85118 15.8537 9.97593 14.1238 11.7058C12.3939 13.4357 12.2692 16.1258 13.8457 17.7023C14.5862 18.4427 15.5719 18.8079 16.5887 18.8079C17.737 18.8079 18.9249 18.3419 19.8425 17.4243ZM14.9007 12.4826C15.6049 11.7783 16.5115 11.4187 17.3773 11.4187C18.1116 11.4187 18.8167 11.6775 19.3436 12.2045C20.492 13.3529 20.3672 15.3459 19.0656 16.6475C17.7641 17.9491 15.7708 18.0737 14.6226 16.9255C13.4743 15.7772 13.599 13.7842 14.9007 12.4826Z" fill="white"/>
<path d="M18.332 15.9129C18.7425 15.5024 19.0062 14.9783 19.0747 14.4371C19.1486 13.8528 18.9792 13.3058 18.61 12.9367C18.241 12.5675 17.6946 12.3982 17.1095 12.4721C16.5683 12.5405 16.0443 12.8042 15.6338 13.2147C15.2232 13.6252 14.9595 14.1493 14.891 14.6905C14.8171 15.275 14.9865 15.8219 15.3556 16.191C15.668 16.5033 16.1075 16.6727 16.5894 16.6726C16.6771 16.6726 16.7662 16.667 16.8562 16.6556C17.3974 16.5871 17.9215 16.3234 18.332 15.9129ZM16.1325 15.4141C16.0052 15.2868 15.95 15.0733 15.981 14.8282C16.0185 14.5319 16.175 14.2269 16.4106 13.9914C16.6461 13.7558 16.9511 13.5993 17.2473 13.5619C17.292 13.5562 17.3358 13.5535 17.378 13.5535C17.5675 13.5535 17.7292 13.6093 17.8332 13.7134C17.8332 13.7134 17.8332 13.7134 17.8333 13.7134C17.9605 13.8407 18.0158 14.0543 17.9848 14.2994C17.9473 14.5956 17.7908 14.9006 17.5552 15.1361C17.3197 15.3717 17.0147 15.5282 16.7185 15.5656C16.4732 15.5966 16.2598 15.5413 16.1325 15.4141Z" fill="white"/>
<path d="M18.7577 28.9949C19.1683 28.5844 19.432 28.0603 19.5005 27.5191C19.5744 26.9347 19.405 26.3878 19.0359 26.0187C18.6667 25.6495 18.1199 25.4803 17.5353 25.554C16.9941 25.6224 16.47 25.8862 16.0595 26.2966C15.649 26.7071 15.3853 27.2313 15.3168 27.7724C15.2429 28.3569 15.4123 28.9039 15.7815 29.273C16.0937 29.5852 16.5332 29.7546 17.0152 29.7546C17.1028 29.7546 17.192 29.7489 17.282 29.7376C17.8232 29.6691 18.3472 29.4054 18.7577 28.9949ZM16.5583 28.4961C16.4311 28.3688 16.3758 28.1553 16.4067 27.9102C16.4442 27.614 16.6008 27.309 16.8364 27.0735C17.0719 26.8379 17.3769 26.6814 17.6731 26.6439C17.7178 26.6383 17.7614 26.6355 17.8037 26.6355C17.9932 26.6355 18.1549 26.6915 18.259 26.7955H18.2591C18.3863 26.9227 18.4416 27.1363 18.4106 27.3813C18.3731 27.6776 18.2165 27.9826 17.981 28.2181C17.7455 28.4537 17.4405 28.6102 17.1442 28.6476C16.8995 28.6786 16.6856 28.6235 16.5583 28.4961Z" fill="white"/>
<path d="M17.6169 31.8398C17.6458 31.8398 17.6752 31.8376 17.7047 31.8328C18.6541 31.6803 19.5647 31.2084 20.2691 30.5041C21.999 28.7742 22.1239 26.0842 20.5473 24.5075C18.9702 22.9315 16.2801 23.056 14.55 24.7853C12.8206 26.5156 12.6961 29.206 14.2725 30.7824C14.554 31.0639 14.8777 31.2973 15.2345 31.4761C15.5055 31.6119 15.8356 31.5024 15.9717 31.2311C16.1075 30.96 15.9979 30.6299 15.7267 30.4939C15.4754 30.368 15.2475 30.2036 15.0495 30.0056C13.9012 28.8573 14.0258 26.8639 15.3269 25.562C16.6286 24.261 18.6222 24.1365 19.7706 25.2844C20.9188 26.4326 20.7939 28.4256 19.4923 29.7272C18.9502 30.2694 18.2535 30.6319 17.5305 30.748C17.231 30.7962 17.0272 31.078 17.0753 31.3775C17.1186 31.6476 17.3518 31.8398 17.6169 31.8398Z" fill="white"/>
<path d="M37.999 2.28744C37.564 1.19044 36.7127 0.521372 35.6019 0.403511C33.6735 0.198629 31.1519 1.6914 29.4831 3.98832C28.1849 3.6176 26.9052 3.34877 25.6594 3.18674C25.3588 3.14792 25.083 3.35969 25.0438 3.6606C25.0047 3.96144 25.2168 4.23701 25.5177 4.27613C27.3765 4.51793 29.3179 5.00805 31.288 5.73293C31.8832 5.95181 32.35 6.41863 32.5689 7.01394C32.6227 7.16037 32.6738 7.30475 32.7244 7.44883C32.0489 7.81128 31.3127 8.16881 30.5258 8.51639C30.4299 8.37267 30.3189 8.2362 30.1921 8.10948C29.6869 7.6042 29.0151 7.32599 28.3006 7.32599C27.586 7.32599 26.9143 7.60427 26.409 8.10948C25.3659 9.15249 25.3659 10.8496 26.409 11.8925C26.9305 12.414 27.6155 12.6748 28.3005 12.6748C28.9856 12.6748 29.6706 12.414 30.1921 11.8925C30.8318 11.2529 31.0784 10.3673 30.9335 9.53735C31.6945 9.20216 32.4102 8.85715 33.0742 8.50672C34.6182 13.4922 34.2097 16.9366 33.9379 18.2606C33.8657 18.6123 33.7023 18.9452 33.4656 19.2229C27.9297 25.7126 23.1213 30.5699 16.8687 35.9885C16.085 36.6675 14.928 36.6951 14.1174 36.0542C9.71925 32.5755 5.72569 28.5817 2.24761 24.1835C1.60659 23.3736 1.63413 22.2169 2.31324 21.4332C7.72932 15.1827 12.5866 10.3743 19.0792 4.83605C19.3561 4.5996 19.689 4.43603 20.0413 4.36322C20.719 4.22412 21.8507 4.06641 23.3917 4.10699C23.6948 4.11263 23.9472 3.87545 23.9551 3.57219C23.963 3.26893 23.7235 3.01665 23.4203 3.00874C21.7748 2.96575 20.5544 3.13642 19.8196 3.28724C19.2857 3.39756 18.7829 3.64427 18.3659 4.00048C11.829 9.57676 6.9377 14.4189 1.48309 20.7139C0.45868 21.8961 0.418026 23.6421 1.38611 24.8652C4.91679 29.3299 8.97099 33.3843 13.436 36.9158C14.0267 37.3831 14.7392 37.6153 15.4513 37.6153C16.2142 37.6153 16.9768 37.3486 17.5882 36.8187C23.8853 31.3616 28.7274 26.4703 34.3016 19.9357C34.6583 19.5172 34.9047 19.0143 35.0141 18.4815C35.1931 17.6097 35.3814 16.155 35.2618 14.1755C35.1415 12.1843 34.7356 10.0998 34.055 7.96254C35.3751 7.18952 36.3905 6.416 37.0751 5.65983C38.1184 4.50745 38.4292 3.3728 37.999 2.28744ZM29.4816 8.9597C29.2236 9.06481 28.9919 9.15601 28.7967 9.23109C28.7935 8.99435 28.805 8.75584 28.8281 8.51653C29.0462 8.59388 29.2468 8.71782 29.4152 8.8863C29.4389 8.90989 29.4599 8.93501 29.4816 8.9597ZM29.4153 11.1158C28.8007 11.7303 27.8007 11.7305 27.1859 11.1158C26.5712 10.5011 26.5712 9.50095 27.1859 8.8863C27.3417 8.73057 27.5246 8.61249 27.7235 8.53433C27.6819 9.05126 27.6917 9.56541 27.7556 10.07C27.7764 10.2343 27.8702 10.3804 28.011 10.4677C28.0989 10.5223 28.1994 10.5503 28.3005 10.5503C28.3612 10.5503 28.422 10.5402 28.4807 10.5199C28.5085 10.5102 29.0525 10.3207 29.8757 9.98565C29.8796 10.3945 29.7266 10.8045 29.4153 11.1158ZM33.6948 6.89886C33.6633 6.81082 33.6324 6.72292 33.5999 6.63472C33.2696 5.7366 32.5652 5.03215 31.6673 4.70201C31.3108 4.57081 30.9553 4.44753 30.6007 4.33121C32.0237 2.531 34.0304 1.34119 35.486 1.49604C36.1906 1.57083 36.6926 1.97335 36.9777 2.69237C37.5793 4.20991 35.3972 5.87343 33.6948 6.89886Z" fill="white"/>
</svg>
