<svg width="39" height="38" viewBox="0 0 39 38" fill="none" xmlns="http://www.w3.org/2000/svg">
<g clip-path="url(#clip0)">
<path d="M7.28204 29.2502C6.75704 29.2502 6.25236 29.3812 5.80461 29.6273C3.44598 26.6037 2.15137 22.8478 2.15137 19C2.15137 9.46879 9.90531 1.71484 19.4365 1.71484C20.5952 1.71484 21.7534 1.83014 22.8789 2.05759C23.2749 2.1377 23.6617 1.88136 23.7418 1.48482C23.8219 1.08828 23.5656 0.702042 23.169 0.621647C21.9482 0.375027 20.6925 0.25 19.4365 0.25C14.4283 0.25 9.71963 2.20036 6.17826 5.74173C2.63688 9.28311 0.686523 13.9918 0.686523 19C0.686523 23.2129 2.11703 27.3241 4.72142 30.62C4.38611 31.121 4.20587 31.7098 4.20587 32.3264C4.20587 33.148 4.52602 33.9205 5.10709 34.5013C5.68788 35.0824 6.46035 35.4025 7.28204 35.4025C8.10373 35.4025 8.8762 35.0824 9.45728 34.5013C10.0383 33.9205 10.3582 33.1478 10.3582 32.3261C10.3582 31.5047 10.0383 30.7319 9.45728 30.1511C8.8762 29.57 8.10373 29.2502 7.28204 29.2502ZM8.4213 33.4656C8.11717 33.77 7.71234 33.9377 7.28204 33.9377C6.85174 33.9377 6.44719 33.77 6.14278 33.4656C5.83837 33.1612 5.67071 32.7567 5.67071 32.3264C5.67071 31.8958 5.83837 31.4912 6.14278 31.1868C6.44691 30.8824 6.85174 30.715 7.28204 30.715C7.71234 30.715 8.11689 30.8827 8.4213 31.1868C8.72571 31.4912 8.89337 31.8958 8.89337 32.3264C8.89337 32.7567 8.72571 33.1612 8.4213 33.4656Z" fill="white"/>
<path d="M34.1508 7.37928C34.947 6.18481 34.8191 4.55174 33.766 3.49859C33.1849 2.9178 32.4124 2.59766 31.5907 2.59766C30.769 2.59766 29.9966 2.9178 29.4155 3.49859C28.8344 4.07967 28.5145 4.85214 28.5145 5.67383C28.5145 6.49551 28.8344 7.26799 29.4155 7.84906C29.9966 8.43014 30.769 8.75 31.5907 8.75C32.1157 8.75 32.6204 8.61897 33.0682 8.37292C35.4268 11.3967 36.7214 15.1524 36.7214 19.0002C36.7214 28.5314 28.9674 36.2854 19.4362 36.2854C18.289 36.2854 17.1417 36.1723 16.0268 35.9492C15.6302 35.8699 15.2443 36.1271 15.1647 36.5237C15.0855 36.9205 15.3427 37.3062 15.7392 37.3857C16.9486 37.6275 18.1926 37.7502 19.4362 37.7502C24.4445 37.7502 29.1531 35.7998 32.6945 32.2585C36.2359 28.7171 38.1862 24.0084 38.1862 19.0002C38.1862 14.787 36.7554 10.6755 34.1508 7.37928ZM30.4515 6.81337C30.147 6.50896 29.9794 6.10441 29.9794 5.67383C29.9794 5.24353 30.147 4.83898 30.4515 4.53457C30.7556 4.23016 31.1604 4.0625 31.5907 4.0625C32.021 4.0625 32.4259 4.23016 32.7303 4.53457C33.3583 5.16285 33.3583 6.18509 32.7303 6.81337C32.4259 7.1175 32.021 7.28516 31.5907 7.28516C31.1601 7.28516 30.7556 7.1175 30.4515 6.81337Z" fill="white"/>
<path d="M16.4133 31.5977C16.4133 32.0022 16.7415 32.3301 17.1458 32.3301H21.7254C22.1299 32.3301 22.4578 32.0022 22.4578 31.5977V30.1777C23.4208 29.9185 24.3415 29.5369 25.2067 29.0385L26.2092 30.041C26.3465 30.1783 26.5328 30.2556 26.7273 30.2556C26.9213 30.2556 27.1078 30.1783 27.2452 30.0407L30.4821 26.8014C30.7679 26.5153 30.7679 26.0516 30.4821 25.7657L29.4808 24.7644C29.9791 23.8992 30.3608 22.9785 30.62 22.0155H32.0345C32.4391 22.0155 32.7669 21.6876 32.7669 21.2831V16.7035C32.7669 16.2989 32.4391 15.971 32.0345 15.971H30.6197C30.3605 15.0083 29.9791 14.0876 29.4808 13.2225L30.4767 12.2265C30.614 12.0892 30.6913 11.9027 30.6913 11.7084C30.691 11.5141 30.6137 11.3276 30.4764 11.1903L27.2369 7.9533C26.951 7.66749 26.4873 7.66749 26.2012 7.95359L25.2067 8.94837C24.3415 8.44998 23.4208 8.06832 22.4578 7.80911V6.40234C22.4578 5.9978 22.1299 5.66992 21.7254 5.66992H17.1458C16.7415 5.66992 16.4133 5.9978 16.4133 6.40234V7.80939C15.4506 8.06832 14.5299 8.44998 13.6647 8.94837L12.67 7.95359C12.3842 7.66777 11.9204 7.66749 11.6343 7.9533L8.39503 11.1906C8.25741 11.3279 8.18016 11.5141 8.18016 11.7084C8.18016 11.9027 8.25741 12.0892 8.39474 12.2265L9.39066 13.2225C8.89227 14.0876 8.51061 15.008 8.2514 15.971H6.83949C6.43494 15.971 6.10707 16.2989 6.10707 16.7032L6.10449 21.2828C6.10421 21.4771 6.18145 21.6636 6.31878 21.8009C6.45611 21.9383 6.64237 22.0155 6.83691 22.0155H8.2514C8.51061 22.9785 8.89227 23.8992 9.39066 24.7644L8.38931 25.7657C8.10349 26.0516 8.1032 26.5153 8.38931 26.8014L11.6263 30.0407C11.7636 30.178 11.9498 30.2556 12.1441 30.2556H12.1444C12.3387 30.2556 12.5249 30.1783 12.6622 30.041L13.6645 29.0385C14.5299 29.5369 15.4506 29.9185 16.4133 30.1777V31.5977ZM13.9517 27.4981C13.6619 27.3107 13.2805 27.3513 13.0362 27.5954L12.1444 28.4872L9.94284 26.2839L10.8338 25.3927C11.0778 25.1486 11.1184 24.7673 10.931 24.4774C10.267 23.4497 9.80008 22.3234 9.54373 21.1292C9.47106 20.7919 9.17294 20.5507 8.82761 20.5507H7.56962L7.57134 17.4359H8.82761C9.17294 17.4359 9.47106 17.195 9.54373 16.8574C9.80008 15.6635 10.267 14.5371 10.931 13.5094C11.1184 13.2196 11.0778 12.8382 10.8338 12.5942L9.94856 11.7087L12.1518 9.50713L13.0362 10.3918C13.2805 10.6358 13.6616 10.6761 13.9517 10.489C14.9791 9.82499 16.1055 9.35807 17.2997 9.10172C17.637 9.02905 17.8782 8.73064 17.8782 8.3856V7.13477H20.993V8.38532C20.993 8.73064 21.2339 9.02905 21.5715 9.10143C22.7654 9.35807 23.892 9.8247 24.9194 10.4887C25.2093 10.6761 25.5906 10.6358 25.8347 10.3915L26.7193 9.50713L28.9226 11.7087L28.0374 12.5939C27.793 12.8382 27.7527 13.2196 27.9401 13.5094C28.6041 14.5371 29.0708 15.6635 29.3274 16.8574C29.3998 17.195 29.6982 17.4359 30.0435 17.4359H31.3021V20.5507H30.0435C29.6982 20.5507 29.4001 20.7919 29.3274 21.1292C29.0711 22.3231 28.6041 23.4497 27.9401 24.4771C27.7527 24.7673 27.7933 25.1486 28.0374 25.3927L28.9283 26.2836L26.7267 28.4869L25.835 27.5954C25.5906 27.351 25.2093 27.3107 24.9194 27.4981C23.8918 28.1621 22.7654 28.6288 21.5715 28.8854C21.2339 28.9581 20.993 29.2562 20.993 29.6015V30.8652H17.8782V29.6015C17.8782 29.2565 17.637 28.9581 17.2997 28.8854C16.1058 28.6291 14.9794 28.1621 13.9517 27.4981Z" fill="white"/>
<path d="M25.4896 18.9992C25.4896 15.6621 22.7748 12.9473 19.4377 12.9473C16.1006 12.9473 13.3857 15.6621 13.3857 18.9992C13.3857 22.3363 16.1006 25.0511 19.4377 25.0511C22.7748 25.0511 25.4896 22.3363 25.4896 18.9992ZM14.8506 18.9992C14.8506 16.4698 16.9082 14.4121 19.4377 14.4121C21.9671 14.4121 24.0247 16.47 24.0247 18.9992C24.0247 21.5283 21.9671 23.5863 19.4377 23.5863C16.9082 23.5863 14.8506 21.5286 14.8506 18.9992Z" fill="white"/>
<path d="M26.1807 3.02039C26.3735 3.02039 26.5623 2.942 26.6985 2.80581C26.8347 2.66877 26.9131 2.47994 26.9131 2.28711C26.9131 2.09542 26.835 1.90631 26.6985 1.76926C26.5623 1.63308 26.3735 1.55469 26.1807 1.55469C25.9873 1.55469 25.7993 1.63308 25.6631 1.76926C25.5266 1.90631 25.4482 2.09456 25.4482 2.28711C25.4482 2.48051 25.5266 2.66877 25.6631 2.80581C25.7993 2.942 25.9873 3.02039 26.1807 3.02039Z" fill="white"/>
<path d="M12.7236 34.9922C12.5311 34.9922 12.342 35.0706 12.2058 35.2068C12.0696 35.3429 11.9912 35.5321 11.9912 35.7246C11.9912 35.918 12.0696 36.1063 12.2058 36.2425C12.342 36.3786 12.5311 36.457 12.7236 36.457C12.9162 36.457 13.1053 36.3786 13.2415 36.2425C13.3777 36.1063 13.4561 35.9172 13.4561 35.7246C13.4561 35.5321 13.3777 35.3429 13.2415 35.2068C13.1053 35.0706 12.9162 34.9922 12.7236 34.9922Z" fill="white"/>
</g>
<defs>
<clipPath id="clip0">
<rect width="37.5" height="37.5" fill="white" transform="translate(0.686523 0.25)"/>
</clipPath>
</defs>
</svg>
