<svg width="24" height="24" viewBox="0 0 24 24" fill="none" xmlns="http://www.w3.org/2000/svg">
<circle cx="12" cy="12" r="12" fill="#001535"/>
<path d="M10.5706 13.92C10.6666 13.3973 10.8639 12.9653 11.1626 12.624C11.4719 12.2827 11.8879 11.92 12.4106 11.536C12.8266 11.2267 13.1306 10.96 13.3226 10.736C13.5252 10.512 13.6266 10.2507 13.6266 9.952C13.6266 9.68533 13.5146 9.472 13.2906 9.312C13.0772 9.152 12.7626 9.072 12.3466 9.072C11.9092 9.072 11.4986 9.17333 11.1146 9.376C10.7306 9.57867 10.4052 9.86667 10.1386 10.24L8.09056 8.88C8.58123 8.176 9.25856 7.616 10.1226 7.2C10.9866 6.784 11.9572 6.576 13.0346 6.576C14.2079 6.576 15.1412 6.82667 15.8346 7.328C16.5386 7.81867 16.8906 8.48533 16.8906 9.328C16.8906 9.81867 16.7946 10.2453 16.6026 10.608C16.4106 10.9707 16.1759 11.2747 15.8986 11.52C15.6319 11.7653 15.2852 12.0373 14.8586 12.336C14.4212 12.6453 14.0852 12.912 13.8506 13.136C13.6159 13.36 13.4719 13.6213 13.4186 13.92H10.5706ZM11.3866 18.144C10.8852 18.144 10.4692 17.9947 10.1386 17.696C9.81856 17.3973 9.65856 17.0293 9.65856 16.592C9.65856 16.08 9.8399 15.6587 10.2026 15.328C10.5759 14.9867 11.0346 14.816 11.5786 14.816C12.0799 14.816 12.4906 14.96 12.8106 15.248C13.1306 15.536 13.2906 15.8987 13.2906 16.336C13.2906 16.848 13.1092 17.28 12.7466 17.632C12.3839 17.9733 11.9306 18.144 11.3866 18.144Z" fill="white"/>
</svg>
