<svg width="24" height="24" viewBox="0 0 24 24" fill="none" xmlns="http://www.w3.org/2000/svg">
<g clip-path="url(#clip0)">
<path d="M3.165 4.28927C3.24 4.30809 3.30863 4.34699 3.36333 4.40164L9.47411 10.5125L10.5798 9.40689L4.46897 3.296C4.41416 3.24125 4.37542 3.17239 4.35649 3.09717L3.97189 1.56404L1.42233 0.106445L0.173828 1.35489L1.63186 3.90621L3.165 4.28927Z" fill="#001535"/>
<path d="M8.59975 18.2279L18.2966 8.5309C18.4028 8.42457 18.5569 8.38194 18.7026 8.41821C19.9793 8.74542 21.3354 8.46188 22.3745 7.6512C23.4138 6.84047 24.0183 5.59372 24.0113 4.27582C24.0113 4.19555 24.0089 4.11468 24.0037 4.03309L21.7484 6.2882C21.6341 6.40259 21.4646 6.4427 21.311 6.39145L18.7458 5.53628C18.618 5.49398 18.5179 5.39379 18.4752 5.26618L17.6203 2.70093C17.569 2.54752 17.609 2.37799 17.7235 2.26349L19.9789 0.00822138C18.6207 -0.0762703 17.304 0.494322 16.4366 1.54268C15.5692 2.59125 15.2558 3.99151 15.5931 5.30963C15.6297 5.45557 15.5871 5.60963 15.4808 5.7159L5.78409 15.4122C5.67771 15.5178 5.52376 15.5605 5.37793 15.5248C5.04035 15.4381 4.69317 15.3932 4.34445 15.3918C2.50313 15.3797 0.857903 16.5405 0.251648 18.2795C-0.354277 20.0184 0.213188 21.9504 1.66337 23.0853C3.11356 24.2202 5.12522 24.307 6.66758 23.3008C8.21005 22.2946 8.94139 20.4187 8.48684 18.634C8.45068 18.4883 8.49342 18.334 8.59975 18.2279ZM5.38512 21.3775H3.3041L2.27775 19.6674L3.3041 17.957H5.38512L6.41125 19.6674L5.38512 21.3775ZM7.03512 16.3722L16.4409 6.96633L17.0453 7.57088L7.63956 16.9768L7.03512 16.3722Z" fill="#001535"/>
<path d="M20.5039 23.7765C21.4562 24.1346 22.5298 23.9024 23.2493 23.183C23.9688 22.4634 24.201 21.3896 23.8428 20.4375L20.5039 23.7765Z" fill="#001535"/>
<path d="M23.2506 19.5117L18.4487 14.7079C17.919 15.1531 17.1369 15.1192 16.6473 14.6303C16.1577 14.1415 16.1232 13.3595 16.5677 12.8293L15.8876 12.1484L12.2168 15.8194L12.901 16.5035C13.4306 16.0583 14.2129 16.0921 14.7022 16.5808C15.1917 17.0698 15.2265 17.8518 14.7819 18.3821L19.5798 23.1825C19.6321 23.2348 19.6874 23.2833 19.7432 23.3305L23.3988 19.6749C23.3517 19.619 23.303 19.564 23.2506 19.5117ZM20.7158 21.252L16.4404 16.9767L17.0449 16.3721L21.3203 20.6477L20.7158 21.252Z" fill="#001535"/>
</g>
<defs>
<clipPath id="clip0">
<rect width="24" height="24" fill="white"/>
</clipPath>
</defs>
</svg>
