<svg width="24" height="24" viewBox="0 0 24 24" fill="none" xmlns="http://www.w3.org/2000/svg">
<g clip-path="url(#clip0)">
<path d="M3.50436 15.3785C3.3685 15.6495 3.42142 15.9771 3.63547 16.1913L3.8074 16.3633C4.30417 15.7746 4.88315 15.1357 5.58536 14.4337C5.63498 14.3841 5.68607 14.3601 5.73587 14.3143L4.62973 13.208C3.98666 14.3711 3.61166 15.1658 3.50436 15.3785Z" fill="#001535"/>
<path d="M9.56122 18.4113C8.85736 19.1151 8.22015 19.6952 7.63477 20.1923L7.86768 20.4252C8.08374 20.6413 8.41443 20.6933 8.68634 20.5534C9.05054 20.3657 9.62329 20.0962 10.8391 19.4191L9.68079 18.2607C9.63501 18.3107 9.61102 18.3616 9.56122 18.4113Z" fill="#001535"/>
<path d="M9.18691 14.8091C8.67879 14.301 7.24983 14.7566 6.57857 15.4276C4.33296 17.6733 3.31874 19.2654 2.86336 20.2054C2.7328 20.4748 2.78719 20.7972 2.99886 21.0089C3.21089 21.2211 3.53389 21.2749 3.80342 21.1444C4.72243 20.6982 6.29512 19.6887 8.56746 17.4165C9.30556 16.6781 9.66976 15.2921 9.18746 14.8097L9.18691 14.8091Z" fill="#001535"/>
<path d="M2.19466 9.36183L0.205956 11.3505C-0.0188971 11.5754 -0.0650397 11.9235 0.0942621 12.1992C0.249719 12.4713 0.57528 12.6099 0.885095 12.527C1.95992 12.2388 2.90566 12.117 3.5425 12.2804C4.44851 10.6696 5.42208 9.18678 6.45315 7.83986C5.85677 7.45753 3.88601 7.67049 2.19466 9.36183Z" fill="#001535"/>
<path d="M11.9006 23.9249C12.1714 24.0619 12.4994 24.009 12.7138 23.7944L14.7027 21.8057C16.2424 20.2656 16.5134 18.2785 16.164 17.6484C14.6618 18.7806 13.1401 19.7366 11.7203 20.5369C11.8182 21.0901 11.753 21.6268 11.5214 23.1942C11.4762 23.4976 11.6329 23.7911 11.9006 23.9249Z" fill="#001535"/>
<path d="M13.9585 7.05341C13.1362 7.87592 13.1362 9.21387 13.9585 10.0364C14.7811 10.8589 16.1192 10.8589 16.9417 10.0364C17.7642 9.21387 17.7642 7.87592 16.9417 7.05341C16.1192 6.2309 14.7811 6.2309 13.9585 7.05341Z" fill="#001535"/>
<path d="M23.9595 0.685852C23.9342 0.338135 23.6574 0.0632936 23.3107 0.0372926C21.5839 -0.0927122 19.8638 0.11969 18.1777 0.635315C18.3046 1.79364 18.9037 3.04718 19.9266 4.07001C20.9617 5.10492 22.2493 5.70386 23.4283 5.81592C23.8824 4.22455 24.0977 2.5202 23.9595 0.685852Z" fill="#001535"/>
<path d="M18.9312 5.0647C17.7611 3.89465 17.0466 2.49133 16.8174 1.125C12.5952 2.85663 8.55328 6.63812 5.35938 11.9504L6.94617 13.5372C8.03033 13.097 9.3465 12.9807 10.1813 13.8153C11.0172 14.6514 10.8987 15.967 10.4587 17.0497L12.0977 18.6887C16.1849 16.2253 20.9435 12.3444 22.967 7.18103C21.5673 6.96954 20.1202 6.25378 18.9312 5.0647ZM17.9365 11.0308C16.566 12.4014 14.3356 12.4014 12.9648 11.0308C11.5941 9.6601 11.5941 7.4295 12.9648 6.05896C14.3356 4.68842 16.566 4.68842 17.9365 6.05896C19.3073 7.42969 19.3073 9.6601 17.9365 11.0308Z" fill="#001535"/>
</g>
<defs>
<clipPath id="clip0">
<rect width="24" height="24" fill="white"/>
</clipPath>
</defs>
</svg>
