<svg width="20" height="20" viewBox="0 0 20 20" fill="none" xmlns="http://www.w3.org/2000/svg">
<path d="M9.48815 19.7541C9.78215 19.9111 10.1512 19.9101 10.4452 19.7531C18.4571 15.4491 19.0261 7.04011 19.0191 4.64911C19.0184 4.45694 18.9616 4.26916 18.8557 4.10877C18.7499 3.94839 18.5996 3.82235 18.4232 3.74611L10.3732 0.180107C10.245 0.123636 10.1065 0.0945551 9.96655 0.0947273C9.82654 0.0948995 9.68812 0.124321 9.56015 0.181107L1.56615 3.74711C1.39235 3.82339 1.24414 3.94804 1.13918 4.10618C1.03422 4.26433 0.976934 4.44932 0.97415 4.63911C0.94015 7.01811 1.41915 15.4451 9.48815 19.7541ZM6.67415 8.29311L8.96715 10.5861L13.2602 6.29311L14.6742 7.70711L8.96715 13.4141L5.26015 9.70711L6.67415 8.29311Z" fill="#3083FF"/>
</svg>
