<svg width="18" height="14" viewBox="0 0 18 14" fill="none" xmlns="http://www.w3.org/2000/svg">
<path d="M17.125 0.125H0.875C0.70924 0.125 0.550268 0.190848 0.433058 0.308058C0.315848 0.425269 0.25 0.58424 0.25 0.75V13.25C0.25 13.4158 0.315848 13.5747 0.433058 13.6919C0.550268 13.8092 0.70924 13.875 0.875 13.875H17.125C17.2908 13.875 17.4497 13.8092 17.5669 13.6919C17.6842 13.5747 17.75 13.4158 17.75 13.25V0.75C17.75 0.58424 17.6842 0.425269 17.5669 0.308058C17.4497 0.190848 17.2908 0.125 17.125 0.125ZM9.38359 8.11836C9.27391 8.20363 9.13893 8.24992 9 8.24992C8.86107 8.24992 8.72609 8.20363 8.61641 8.11836L2.49805 3.35977L3.26523 2.37305L9 6.8332L14.7348 2.37305L15.502 3.35977L9.38359 8.11836Z" fill="#7D8591"/>
</svg>
