<svg width="18" height="18" viewBox="0 0 18 18" fill="none" xmlns="http://www.w3.org/2000/svg">
<path d="M8.99997 0C7.81807 0 6.64775 0.232792 5.55582 0.685084C4.46389 1.13738 3.47173 1.80031 2.63601 2.63604C0.948179 4.32387 -3.24249e-05 6.61305 -3.24249e-05 9C-3.24249e-05 11.3869 0.948179 13.6761 2.63601 15.364C3.47173 16.1997 4.46389 16.8626 5.55582 17.3149C6.64775 17.7672 7.81807 18 8.99997 18C11.3869 18 13.6761 17.0518 15.3639 15.364C17.0518 13.6761 18 11.3869 18 9C18 7.8181 17.7672 6.64778 17.3149 5.55585C16.8626 4.46392 16.1997 3.47177 15.3639 2.63604C14.5282 1.80031 13.536 1.13738 12.4441 0.685084C11.3522 0.232792 10.1819 0 8.99997 0ZM12.78 12.78L8.09997 9.9V4.5H9.44997V9.18L13.5 11.61L12.78 12.78Z" fill="#7D8591"/>
</svg>
