<svg width="24" height="24" viewBox="0 0 24 24" fill="none" xmlns="http://www.w3.org/2000/svg">
<path d="M4 3H20C20.2652 3 20.5196 3.10536 20.7071 3.29289C20.8946 3.48043 21 3.73478 21 4V6.59C21 7.113 20.787 7.627 20.417 7.997L15 13.414V19C15 19.379 14.786 19.725 14.447 19.895L10.447 21.895C10.2945 21.9709 10.1251 22.0066 9.9549 21.9988C9.78471 21.9909 9.61934 21.9398 9.47444 21.8502C9.32955 21.7605 9.20992 21.6354 9.1269 21.4867C9.04387 21.3379 9.0002 21.1704 9 21V13.414L3.583 7.997C3.213 7.627 3 7.113 3 6.59V4C3 3.73478 3.10536 3.48043 3.29289 3.29289C3.48043 3.10536 3.73478 3 4 3Z" fill="#001535"/>
</svg>
