<svg width="39" height="38" viewBox="0 0 39 38" fill="none" xmlns="http://www.w3.org/2000/svg">
<g clip-path="url(#clip0)">
<path d="M35.6865 2.125H6.93652C5.55582 2.125 4.43652 3.2443 4.43652 4.625V24.625H1.31152C0.966367 24.625 0.686523 24.9048 0.686523 25.25C0.686523 26.6307 1.80582 27.75 3.18652 27.75H21.3115V35.25C21.3116 35.5952 21.5914 35.8749 21.9367 35.8748C22.1024 35.8748 22.2612 35.809 22.3784 35.6919L25.6865 32.3837L28.9946 35.6919C29.1118 35.8091 29.2707 35.875 29.4365 35.875C29.5187 35.8752 29.6 35.8591 29.6759 35.8275C29.9094 35.7307 30.0616 35.5027 30.0615 35.25V27.75H31.9365C33.3172 27.75 34.4365 26.6307 34.4365 25.25V5.25H37.5615C37.9067 5.25 38.1865 4.97016 38.1865 4.625C38.1865 3.2443 37.0672 2.125 35.6865 2.125ZM33.1865 4.625V24.625H30.6865V25.875H33.0184C32.7952 26.2616 32.3829 26.4998 31.9365 26.5H30.0615V25.875H28.8115V33.7412L26.1284 31.0581C25.8843 30.8141 25.4887 30.8141 25.2446 31.0581L22.5615 33.7412V25.875H21.3115V26.5H3.18652C2.7402 26.4998 2.32785 26.2616 2.10465 25.875H5.06152H20.6865V24.625H5.68652V4.625C5.68652 3.93461 6.24613 3.375 6.93652 3.375H33.534C33.3091 3.75336 33.1891 4.18484 33.1865 4.625ZM34.6046 4C34.9504 3.4025 35.7151 3.19844 36.3127 3.5443C36.5018 3.65375 36.6589 3.81094 36.7684 4H34.6046Z" fill="white"/>
<path d="M31.5774 21.6837L30.7768 20.2493L31.5806 18.8162C31.7499 18.5154 31.6435 18.1343 31.3428 17.9649C31.3276 17.9564 31.3121 17.9485 31.2962 17.9412L29.8043 17.2581L29.6118 15.6268C29.5711 15.2841 29.2602 15.0392 28.9174 15.0799C28.9015 15.0818 28.8856 15.0843 28.8699 15.0874L27.2587 15.4068L26.1443 14.1999C25.8949 13.9466 25.4873 13.9434 25.2339 14.1928C25.2315 14.1952 25.2292 14.1976 25.2268 14.1999L24.1124 15.4068L22.5012 15.0874C22.1626 15.0205 21.8338 15.2407 21.7668 15.5793C21.7637 15.595 21.7612 15.6109 21.7593 15.6268L21.5668 17.2581L20.0749 17.9424C19.7611 18.0861 19.6232 18.4571 19.7668 18.7709C19.7741 18.7867 19.782 18.8023 19.7906 18.8174L20.5943 20.2493L19.7906 21.6824C19.6212 21.9832 19.7277 22.3643 20.0284 22.5337C20.0435 22.5422 20.0591 22.5502 20.0749 22.5574L21.5668 23.2418L21.7593 24.8743C21.8 25.2171 22.111 25.4619 22.4537 25.4212C22.4696 25.4193 22.4855 25.4168 22.5012 25.4137L24.1124 25.0943L25.2268 26.3012C25.4613 26.5546 25.8567 26.5699 26.11 26.3355C26.1219 26.3245 26.1333 26.3131 26.1443 26.3012L27.2587 25.0943L28.8699 25.4137C29.0407 25.4486 29.2183 25.4096 29.3587 25.3062C29.4984 25.2032 29.5889 25.0467 29.6087 24.8743L29.8012 23.2431L31.2931 22.5587C31.6069 22.415 31.7449 22.0441 31.6012 21.7303C31.5939 21.7144 31.586 21.6988 31.5774 21.6837ZM29.5156 20.5543L30.1587 21.7018L28.9637 22.2499C28.7656 22.3409 28.6292 22.5285 28.6037 22.7449L28.4499 24.0531L27.1581 23.7974C26.9452 23.7532 26.7248 23.8245 26.5781 23.9849L25.6856 24.9524L24.7931 23.9862C24.6748 23.8583 24.5085 23.7856 24.3343 23.7856C24.2935 23.7853 24.2529 23.7896 24.2131 23.7981L22.9212 24.0537L22.7674 22.7456C22.742 22.5291 22.6056 22.3415 22.4074 22.2506L21.2124 21.7024L21.8556 20.5549C21.9631 20.3643 21.9657 20.1328 21.8556 19.9437V19.9462L21.2124 18.7987L22.4074 18.2506C22.6056 18.1596 22.742 17.9721 22.7674 17.7556L22.9212 16.4474L24.2131 16.7031C24.4259 16.7467 24.646 16.6756 24.7931 16.5156L25.6856 15.5462L26.5781 16.5124C26.7247 16.673 26.9452 16.7442 27.1581 16.6999L28.4499 16.4443L28.6037 17.7524C28.6292 17.9689 28.7656 18.1565 28.9637 18.2474L30.1587 18.7956L29.5156 19.9431C29.4092 20.1329 29.4092 20.3645 29.5156 20.5543Z" fill="white"/>
<path d="M25.6855 17.125C23.9597 17.125 22.5605 18.5241 22.5605 20.25C22.5626 21.975 23.9605 23.3729 25.6855 23.375C27.4114 23.375 28.8105 21.9759 28.8105 20.25C28.8105 18.5241 27.4114 17.125 25.6855 17.125ZM25.6855 22.125C24.65 22.125 23.8105 21.2856 23.8105 20.25C23.8105 19.2145 24.65 18.375 25.6855 18.375C26.7211 18.375 27.5605 19.2145 27.5605 20.25C27.5605 21.2856 26.7211 22.125 25.6855 22.125Z" fill="white"/>
<path d="M24.4365 5.875H14.4365V7.125H24.4365V5.875Z" fill="white"/>
<path d="M30.6875 9.625H8.1875V10.875H30.6875V9.625Z" fill="white"/>
<path d="M30.6875 12.125H8.1875V13.375H30.6875V12.125Z" fill="white"/>
<path d="M16.9365 20.25H8.81152V21.5H16.9365V20.25Z" fill="white"/>
</g>
<defs>
<clipPath id="clip0">
<rect width="37.5" height="37.5" fill="white" transform="translate(0.686523 0.25)"/>
</clipPath>
</defs>
</svg>
