<svg width="56" height="56" viewBox="0 0 56 56" fill="none" xmlns="http://www.w3.org/2000/svg">
<path d="M28 0.875C22.6352 0.875 17.3909 2.46585 12.9302 5.44639C8.46949 8.42692 4.99281 12.6633 2.93978 17.6197C0.886753 22.5762 0.349587 28.0301 1.39621 33.2918C2.44284 38.5536 5.02624 43.3868 8.81974 47.1803C12.6132 50.9738 17.4465 53.5572 22.7082 54.6038C27.9699 55.6504 33.4239 55.1133 38.3803 53.0602C43.3367 51.0072 47.5731 47.5305 50.5536 43.0698C53.5342 38.6092 55.125 33.3648 55.125 28C55.125 20.806 52.2672 13.9067 47.1803 8.81973C42.0934 3.7328 35.194 0.875 28 0.875ZM42.4925 29.705L21.18 41.33C20.8855 41.5 20.5514 41.5896 20.2113 41.5896C19.8712 41.5896 19.537 41.5 19.2425 41.33C18.9512 41.1528 18.7117 40.9018 18.5485 40.6024C18.3852 40.3031 18.3038 39.9659 18.3125 39.625V16.375C18.3126 16.0388 18.4001 15.7083 18.5666 15.4162C18.733 15.124 18.9727 14.8802 19.2619 14.7088C19.5564 14.5387 19.8905 14.4492 20.2306 14.4492C20.5707 14.4492 20.9049 14.5387 21.1994 14.7088L42.5119 26.3337C42.8195 26.4998 43.0764 26.7459 43.2555 27.0461C43.4346 27.3462 43.5291 27.6892 43.5291 28.0388C43.5291 28.3883 43.4346 28.7313 43.2555 29.0314C43.0764 29.3316 42.8195 29.5777 42.5119 29.7437L42.4925 29.705Z" fill="#7D8591"/>
</svg>
