<svg width="18" height="17" viewBox="0 0 18 17" fill="none" xmlns="http://www.w3.org/2000/svg">
<path fill-rule="evenodd" clip-rule="evenodd" d="M9 0C9.45293 0 9.85434 0.2879 9.99431 0.713126L11.6374 5.70501H16.9545C17.4074 5.70501 17.8088 5.99291 17.9488 6.41814C18.0887 6.84336 17.9354 7.30919 17.569 7.572L13.2674 10.6572L14.9104 15.649C15.0504 16.0743 14.8971 16.5401 14.5306 16.8029C14.1642 17.0657 13.668 17.0657 13.3016 16.8029L9 13.7177L4.69839 16.8029C4.33197 17.0657 3.83579 17.0657 3.46936 16.8029C3.10294 16.5401 2.94961 16.0743 3.08957 15.649L4.73264 10.6572L0.431032 7.572C0.0646056 7.30919 -0.0887218 6.84336 0.0512406 6.41814C0.191203 5.99291 0.592619 5.70501 1.04555 5.70501H6.36263L8.00569 0.713126C8.14566 0.2879 8.54707 0 9 0Z" fill="white"/>
</svg>
