<svg width="39" height="36" viewBox="0 0 39 36" fill="none" xmlns="http://www.w3.org/2000/svg">
<path d="M21.4819 10.4617C21.2673 10.2472 20.9195 10.2471 20.7051 10.4616L20.1014 11.0652C19.8868 11.2798 19.8868 11.6276 20.1013 11.842C20.2086 11.9493 20.3492 12.0029 20.4898 12.0029C20.6303 12.0029 20.771 11.9493 20.8782 11.8421L21.4819 11.2385C21.6964 11.024 21.6964 10.6762 21.4819 10.4617Z" fill="white"/>
<path d="M21.9887 13.5011C22.1293 13.5011 22.2699 13.4475 22.3772 13.3402L22.9808 12.7365C23.1953 12.522 23.1953 12.1741 22.9807 11.9597C22.7663 11.7452 22.4185 11.7452 22.2039 11.9598L21.6003 12.5634C21.3858 12.7779 21.3858 13.1258 21.6004 13.3402C21.7076 13.4474 21.8482 13.5011 21.9887 13.5011Z" fill="white"/>
<path d="M23.701 13.4578L23.0974 14.0615C22.8829 14.276 22.8829 14.6238 23.0975 14.8383C23.2047 14.9455 23.3453 14.9991 23.4859 14.9991C23.6264 14.9991 23.7671 14.9455 23.8744 14.8382L24.478 14.2345C24.6925 14.02 24.6925 13.6722 24.4779 13.4577C24.2634 13.2433 23.9156 13.2432 23.701 13.4578Z" fill="white"/>
<path d="M24.5935 16.3363C24.7008 16.4435 24.8414 16.4971 24.982 16.4971C25.1225 16.4971 25.2632 16.4435 25.3705 16.3363L25.9741 15.7326C26.1886 15.518 26.1886 15.1703 25.9741 14.9558C25.7595 14.7413 25.4118 14.7413 25.1972 14.9558L24.5936 15.5594C24.379 15.7739 24.379 16.1217 24.5935 16.3363Z" fill="white"/>
<path d="M5.22043 30.4421L4.20686 31.4556C3.99226 31.6701 3.99226 32.018 4.20679 32.2324C4.42125 32.4469 4.7691 32.4471 4.98363 32.2325L5.9972 31.219C6.21181 31.0045 6.21181 30.6566 5.99727 30.4422C5.78274 30.2277 5.43497 30.2276 5.22043 30.4421Z" fill="white"/>
<path d="M26.2336 26.3216L22.9517 24.4268C22.584 24.2145 22.1274 24.2145 21.7597 24.4268L18.4777 26.3216C18.1101 26.5338 17.8818 26.9294 17.8818 27.3538V31.1435C17.8818 31.5679 18.1101 31.9634 18.4778 32.1757L21.7597 34.0705C21.9436 34.1766 22.1496 34.2296 22.3557 34.2296C22.5619 34.2296 22.7679 34.1766 22.9517 34.0705L26.2336 32.1757C26.6013 31.9635 26.8296 31.5679 26.8296 31.1435V27.3538C26.8295 26.9294 26.6011 26.5338 26.2336 26.3216ZM25.7308 31.1435C25.7308 31.1767 25.7129 31.2077 25.6842 31.2243L22.4022 33.1191C22.3735 33.1357 22.3377 33.1357 22.309 33.1191L19.0271 31.2243C18.9983 31.2077 18.9804 31.1768 18.9804 31.1435V27.3539C18.9804 27.3207 18.9983 27.2897 19.027 27.2731L22.309 25.3783C22.3234 25.37 22.3395 25.3659 22.3557 25.3659C22.3718 25.3659 22.3879 25.37 22.4023 25.3783L25.6842 27.2731C25.713 27.2897 25.7309 27.3206 25.7309 27.3539V31.1435H25.7308Z" fill="white"/>
<path d="M22.3549 27.2227C21.2368 27.2227 20.3271 28.1323 20.3271 29.2504C20.3271 30.3685 21.2368 31.278 22.3549 31.278C23.473 31.278 24.3825 30.3685 24.3825 29.2504C24.3825 28.1323 23.473 27.2227 22.3549 27.2227ZM22.3549 30.1793C21.8426 30.1793 21.4258 29.7626 21.4258 29.2503C21.4258 28.738 21.8425 28.3213 22.3549 28.3213C22.8671 28.3213 23.2838 28.738 23.2838 29.2503C23.2838 29.7626 22.8671 30.1793 22.3549 30.1793Z" fill="white"/>
<path d="M31.6826 24.8167C31.6826 25.9348 32.5923 26.8444 33.7103 26.8444C34.8284 26.8444 35.738 25.9348 35.738 24.8167C35.738 23.6986 34.8284 22.7891 33.7103 22.7891C32.5923 22.7891 31.6826 23.6986 31.6826 24.8167ZM34.6392 24.8167C34.6392 25.329 34.2225 25.7458 33.7103 25.7458C33.198 25.7458 32.7812 25.3291 32.7812 24.8167C32.7812 24.3045 33.1979 23.8877 33.7103 23.8877C34.2225 23.8877 34.6392 24.3045 34.6392 24.8167Z" fill="white"/>
<path d="M37.593 21.8899L34.3111 19.9951C33.9436 19.7829 33.4868 19.7828 33.1192 19.9951L29.8371 21.8899C29.4695 22.1022 29.2412 22.4978 29.2412 22.9221V26.7118C29.2412 27.1362 29.4695 27.5317 29.8372 27.744L33.1191 29.6388C33.303 29.7449 33.509 29.798 33.7152 29.798C33.9212 29.798 34.1273 29.7449 34.3111 29.6388L35.4885 28.9591C35.7512 28.8074 35.8412 28.4714 35.6895 28.2087C35.5379 27.9459 35.2017 27.8561 34.9391 28.0076L33.7617 28.6873C33.7331 28.704 33.6973 28.704 33.6686 28.6873L30.3867 26.7926C30.3578 26.7759 30.34 26.745 30.34 26.7118V22.9221C30.34 22.889 30.3578 22.858 30.3866 22.8413L33.6687 20.9466C33.6973 20.9299 33.7331 20.9299 33.7618 20.9466L37.0437 22.8413C37.0725 22.858 37.0904 22.8889 37.0904 22.9221V26.7118C37.0904 26.745 37.0725 26.7759 37.0438 26.7926L36.8466 26.9065C36.5838 27.0581 36.4938 27.3941 36.6454 27.6568C36.7971 27.9197 37.1331 28.0095 37.3958 27.8579L37.5932 27.7439C37.9608 27.5318 38.1891 27.1362 38.1891 26.7118V22.9221C38.189 22.4978 37.9607 22.1022 37.593 21.8899Z" fill="white"/>
<path d="M24.3111 19.7657C27.5654 20.4407 30.9254 19.4496 33.2893 17.0858C36.0717 14.3035 36.8586 10.2471 35.5795 6.73663C35.5152 6.56033 35.3654 6.429 35.1821 6.38842C34.9989 6.34792 34.8076 6.40366 34.6748 6.53631L30.1625 11.0487L26.398 10.0401L25.3892 6.27555L25.9302 5.73464C26.1448 5.52003 26.1448 5.17226 25.9302 4.95772C25.7157 4.74333 25.3679 4.74319 25.1533 4.95772L24.3881 5.72292C24.2493 5.86179 24.1952 6.06402 24.246 6.25358L25.419 10.6308C25.4697 10.8204 25.6178 10.9684 25.8074 11.0192L30.1846 12.1921C30.3742 12.2428 30.5765 12.1888 30.7153 12.05L34.8074 7.95778C35.5575 10.9233 34.701 14.1206 32.5126 16.3089C30.4196 18.402 27.4372 19.2922 24.5344 18.69C22.9357 18.3584 21.279 18.9034 20.2106 20.1124L8.54332 33.3122C8.54163 33.3141 8.53995 33.316 8.53834 33.318C8.17511 33.7405 7.73594 34.0721 7.23303 34.3034C6.95734 34.4301 6.8367 34.7564 6.96349 35.032C7.09042 35.308 7.41673 35.4282 7.69206 35.3015C8.33831 35.0043 8.90251 34.5789 9.36901 34.037L21.0338 20.84C21.8417 19.9256 23.0974 19.5137 24.3111 19.7657Z" fill="white"/>
<path d="M5.31148 34.6407C4.40537 34.5672 3.55206 34.1725 2.90896 33.5293C1.33565 31.9561 1.41403 29.3666 3.12123 27.8992C3.12313 27.8976 3.12511 27.8959 3.12694 27.8942L16.3268 16.2269C17.5357 15.1584 18.0807 13.5016 17.7492 11.903C17.1471 9.0004 18.0371 6.01793 20.1302 3.92494C22.3185 1.73652 25.5156 0.879841 28.4813 1.63009L26.7074 3.40395C26.4929 3.61856 26.4929 3.96633 26.7074 4.18086C26.922 4.39532 27.2698 4.39532 27.4843 4.18086L29.9027 1.76245C30.0354 1.62973 30.0912 1.43841 30.0506 1.25515C30.01 1.07189 29.8787 0.922104 29.7024 0.857794C26.1915 -0.421435 22.1356 0.365732 19.3533 3.14796C16.9977 5.5036 15.9959 8.85985 16.6734 12.1261C16.9251 13.3397 16.5135 14.5956 15.5992 15.4037L2.40203 27.0686C0.227525 28.9408 0.101177 32.2753 2.13205 34.3062C2.95928 35.1335 4.05686 35.6412 5.22256 35.7358C5.52419 35.7601 5.78992 35.5359 5.81453 35.2327C5.83914 34.9303 5.61391 34.6653 5.31148 34.6407Z" fill="white"/>
</svg>
