<svg width="26" height="16" viewBox="0 0 26 16" fill="none" xmlns="http://www.w3.org/2000/svg">
<path d="M24.9738 1.56805C25.1488 0.986797 24.9737 0.560547 24.1462 0.560547H21.405C20.7075 0.560547 20.3888 0.929297 20.2137 1.3343C20.2137 1.3343 18.82 4.73305 16.845 6.9368C16.2075 7.57805 15.9163 7.78055 15.5688 7.78055C15.395 7.78055 15.1425 7.57805 15.1425 6.9968V1.56805C15.1425 0.870547 14.9413 0.560547 14.36 0.560547H10.0525C9.6175 0.560547 9.355 0.883047 9.355 1.19055C9.355 1.85055 10.3425 2.00305 10.4438 3.86305V7.89805C10.4438 8.7818 10.285 8.94305 9.935 8.94305C9.00625 8.94305 6.74625 5.5318 5.405 1.6268C5.14375 0.868047 4.88 0.561797 4.18 0.561797H1.44C0.65625 0.561797 0.5 0.930547 0.5 1.33555C0.5 2.06305 1.42875 5.66305 4.82625 10.4243C7.09125 13.6755 10.28 15.438 13.185 15.438C14.9262 15.438 15.1413 15.0468 15.1413 14.3718V11.9143C15.1413 11.1318 15.3075 10.9743 15.8587 10.9743C16.2638 10.9743 16.9612 11.1793 18.5875 12.7455C20.445 14.603 20.7525 15.4368 21.7963 15.4368H24.5363C25.3188 15.4368 25.71 15.0455 25.485 14.273C25.2388 13.5043 24.3512 12.3855 23.1737 11.0618C22.5338 10.3068 21.5775 9.4943 21.2862 9.08805C20.88 8.5643 20.9975 8.33305 21.2862 7.86805C21.2875 7.8693 24.6263 3.1668 24.9738 1.56805Z" fill="#7D8591"/>
</svg>
