<svg width="19" height="20" viewBox="0 0 19 20" fill="none" xmlns="http://www.w3.org/2000/svg">
<path d="M9.13403 0.00291058C7.6215 0.022288 4.36969 0.28607 2.55088 2.05691C1.19797 3.47959 0.725604 5.58297 0.670239 8.18392C0.624298 10.7755 0.568933 15.6423 4.9893 16.9675V18.9859C4.9893 18.9859 4.96162 19.7935 5.46462 19.9591C6.08424 20.1673 6.43704 19.5459 7.02603 18.8784L8.1245 17.5601C11.149 17.827 13.4655 17.2119 13.7323 17.1206C14.346 16.9125 17.8028 16.4437 18.3676 11.5762C18.9472 6.54934 18.0855 3.38208 16.53 1.9494H16.5205C16.0511 1.49059 14.1646 0.0316641 9.94978 0.0154121C9.94978 0.0154121 9.63702 -0.00709065 9.13403 0.00228551V0.00291058ZM9.18586 1.41621C9.61523 1.41308 9.87615 1.43246 9.87615 1.43246C13.4437 1.44246 15.1464 2.58198 15.5481 2.96578C16.858 4.15717 17.533 7.01253 17.0389 11.2093C16.5694 15.2785 13.7658 15.5361 13.2469 15.7117C13.0261 15.7867 10.9858 16.3205 8.41546 16.1449C8.41546 16.1449 6.50124 18.5965 5.90283 19.2278C5.808 19.3384 5.69727 19.3709 5.62659 19.3547C5.52528 19.3284 5.49466 19.1953 5.50055 19.0128L5.51881 15.663C1.76988 14.5628 1.99075 10.4117 2.03081 8.2433C2.07675 6.07491 2.46018 4.30094 3.60164 3.09954C5.13832 1.62499 7.8995 1.42621 9.18468 1.41621H9.18586ZM9.46857 3.58398C9.43772 3.58365 9.40711 3.5898 9.3785 3.60209C9.3499 3.61437 9.32387 3.63254 9.30191 3.65555C9.27996 3.67856 9.26251 3.70595 9.25058 3.73615C9.23865 3.76635 9.23246 3.79876 9.23239 3.83151C9.23239 3.97152 9.33958 4.08216 9.46857 4.08216C10.0526 4.07038 10.633 4.18141 11.1763 4.40884C11.7197 4.63628 12.2152 4.97564 12.6344 5.40733C13.4902 6.28931 13.9072 7.47446 13.9231 9.02402C13.9231 9.16092 14.0274 9.27468 14.1593 9.27468V9.26468C14.2215 9.26485 14.2812 9.23892 14.3254 9.19255C14.3697 9.14618 14.3949 9.08313 14.3955 9.01715C14.4241 8.28778 14.3126 7.55985 14.0679 6.87761C13.8232 6.19537 13.4503 5.57307 12.9719 5.04853C12.0395 4.08154 10.858 3.58335 9.46857 3.58335V3.58398ZM6.36401 4.15717C6.19729 4.13132 6.02726 4.16684 5.88221 4.25781H5.86984C5.53309 4.4673 5.22974 4.73207 4.97104 5.04228C4.75606 5.30607 4.63944 5.57297 4.60882 5.82988C4.59056 5.98302 4.60293 6.13617 4.64592 6.28243L4.66124 6.29244C4.90331 7.04753 5.2196 7.77387 5.60598 8.4577C6.10368 9.41842 6.71619 10.3069 7.42831 11.1012L7.44951 11.1337L7.48309 11.1599L7.50429 11.1862L7.52903 11.2087C8.28013 11.9666 9.11935 12.6197 10.0263 13.152C11.063 13.7509 11.692 14.034 12.0696 14.1515V14.1578C12.1803 14.1934 12.281 14.2097 12.3823 14.2097C12.7041 14.1846 13.0087 14.046 13.2475 13.8159C13.5385 13.5413 13.7852 13.218 13.9779 12.8589V12.8526C14.1587 12.4913 14.0974 12.1494 13.8365 11.9181C13.314 11.4334 12.7489 11.0028 12.1491 10.6323C11.7474 10.4011 11.3392 10.5411 11.1737 10.7755L10.8209 11.2474C10.6401 11.4818 10.3114 11.4493 10.3114 11.4493L10.302 11.4556C7.8512 10.7911 7.19743 8.15767 7.19743 8.15767C7.19743 8.15767 7.1668 7.7995 7.39356 7.61697L7.8353 7.23943C8.04675 7.05691 8.194 6.62435 7.96724 6.19742C7.62056 5.55994 7.21575 4.96012 6.75863 4.40658C6.6587 4.27608 6.5185 4.18729 6.36283 4.15592L6.36401 4.15717ZM9.87615 4.89976C9.5634 4.89976 9.5634 5.40108 9.8791 5.40108C10.268 5.40777 10.6518 5.49574 11.0087 5.65994C11.3655 5.82415 11.6884 6.06138 11.9588 6.35807C12.2055 6.64686 12.3951 6.98526 12.5163 7.35322C12.6375 7.72118 12.6879 8.11121 12.6644 8.50021C12.6655 8.56604 12.6908 8.62881 12.735 8.67507C12.7791 8.72134 12.8386 8.74742 12.9006 8.74774L12.91 8.76087C12.9725 8.76038 13.0323 8.73381 13.0765 8.68691C13.1207 8.64001 13.1458 8.57654 13.1462 8.51021C13.1674 7.51696 12.8765 6.68373 12.3057 6.01615C11.7321 5.34857 10.9316 4.97415 9.90973 4.89976H9.87615ZM10.2631 6.24743C9.94094 6.23743 9.92857 6.74874 10.2478 6.75874C11.0241 6.80125 11.401 7.21755 11.4505 8.07391C11.4516 8.13891 11.4766 8.20088 11.5202 8.24656C11.5638 8.29224 11.6225 8.31799 11.6838 8.31831H11.6932C11.7247 8.31688 11.7556 8.3088 11.7841 8.29455C11.8126 8.2803 11.8382 8.26017 11.8593 8.23532C11.8804 8.21047 11.8967 8.18141 11.9071 8.14984C11.9175 8.11826 11.9219 8.0848 11.9199 8.0514C11.8646 6.93502 11.2909 6.30619 10.2725 6.24806H10.2631V6.24743Z" fill="white"/>
</svg>
