<svg width="19" height="18" viewBox="0 0 19 18" fill="none" xmlns="http://www.w3.org/2000/svg">
<path d="M9.50001 0C8.37721 0 7.2654 0.232792 6.22807 0.685084C5.19073 1.13738 4.24819 1.80031 3.45425 2.63604C1.85081 4.32387 0.950012 6.61305 0.950012 9C0.950012 11.3869 1.85081 13.6761 3.45425 15.364C4.24819 16.1997 5.19073 16.8626 6.22807 17.3149C7.2654 17.7672 8.37721 18 9.50001 18C11.7676 18 13.9423 17.0518 15.5458 15.364C17.1492 13.6761 18.05 11.3869 18.05 9C18.05 7.8181 17.8289 6.64778 17.3992 5.55585C16.9695 4.46392 16.3397 3.47177 15.5458 2.63604C14.7518 1.80031 13.8093 1.13738 12.772 0.685084C11.7346 0.232792 10.6228 0 9.50001 0ZM13.091 12.78L8.64501 9.9V4.5H9.92751V9.18L13.775 11.61L13.091 12.78Z" fill="white"/>
</svg>
