<svg width="16" height="16" viewBox="0 0 16 16" fill="none" xmlns="http://www.w3.org/2000/svg">
<path d="M15.0724 12.2832L11.6849 9.20321C11.5248 9.05767 11.3144 8.98005 11.0981 8.98673C10.8818 8.99342 10.6766 9.08389 10.5258 9.23904L8.5316 11.2899C8.0516 11.1982 7.0866 10.8974 6.09326 9.90654C5.09993 8.91237 4.7991 7.94487 4.70993 7.46821L6.7591 5.47321C6.91444 5.32248 7.00504 5.11723 7.01173 4.90088C7.01842 4.68453 6.94067 4.47407 6.79493 4.31404L3.71576 0.927374C3.56997 0.766838 3.36733 0.66946 3.15089 0.655923C2.93445 0.642386 2.72126 0.713756 2.5566 0.854874L0.748263 2.40571C0.604189 2.5503 0.518196 2.74275 0.506596 2.94654C0.494096 3.15487 0.255763 8.08987 4.08243 11.9182C7.42076 15.2557 11.6024 15.4999 12.7541 15.4999C12.9224 15.4999 13.0258 15.4949 13.0533 15.4932C13.257 15.4818 13.4494 15.3954 13.5933 15.2507L15.1433 13.4415C15.2849 13.2774 15.3568 13.0644 15.3436 12.848C15.3304 12.6315 15.233 12.4289 15.0724 12.2832Z" fill="#7D8591"/>
</svg>
