<svg width="17" height="14" viewBox="0 0 17 14" fill="none" xmlns="http://www.w3.org/2000/svg">
<path d="M16.2188 0.125H0.78125C0.623778 0.125 0.472755 0.190848 0.361405 0.308058C0.250056 0.425269 0.1875 0.58424 0.1875 0.75V13.25C0.1875 13.4158 0.250056 13.5747 0.361405 13.6919C0.472755 13.8092 0.623778 13.875 0.78125 13.875H16.2188C16.3762 13.875 16.5272 13.8092 16.6386 13.6919C16.7499 13.5747 16.8125 13.4158 16.8125 13.25V0.75C16.8125 0.58424 16.7499 0.425269 16.6386 0.308058C16.5272 0.190848 16.3762 0.125 16.2188 0.125ZM8.86441 8.11836C8.76021 8.20363 8.63199 8.24992 8.5 8.24992C8.36801 8.24992 8.23979 8.20363 8.13559 8.11836L2.32314 3.35977L3.05197 2.37305L8.5 6.8332L13.948 2.37305L14.6769 3.35977L8.86441 8.11836Z" fill="white"/>
</svg>
