<svg width="19" height="18" viewBox="0 0 19 18" fill="none" xmlns="http://www.w3.org/2000/svg">
<path d="M0.903791 18L2.08015 13.5288C1.30502 12.1544 0.897784 10.5912 0.900311 8.99999C0.900311 4.0293 4.7957 0 9.60121 0C14.4067 0 18.3021 4.0293 18.3021 8.99999C18.3021 13.9707 14.4067 18 9.60121 18C8.06357 18.0026 6.55299 17.5816 5.22466 16.7805L0.903791 18ZM6.46106 4.7772C6.34869 4.78441 6.2389 4.81502 6.13825 4.8672C6.04387 4.92248 5.95771 4.9916 5.88245 5.0724C5.77804 5.1741 5.71887 5.2623 5.65535 5.3478C5.33378 5.78069 5.1608 6.31207 5.16375 6.858C5.16549 7.299 5.27686 7.72829 5.45088 8.12969C5.80675 8.94149 6.39232 9.80099 7.16583 10.5975C7.35203 10.7892 7.53388 10.9818 7.72965 11.1609C8.6897 12.0352 9.83375 12.6657 11.0708 13.0023L11.5659 13.0806C11.7268 13.0896 11.8878 13.077 12.0496 13.0689C12.303 13.0554 12.5505 12.9844 12.7744 12.861C12.8884 12.8003 12.9996 12.7342 13.1077 12.663C13.1077 12.663 13.1451 12.6378 13.2164 12.582C13.3339 12.492 13.4061 12.4281 13.5036 12.3228C13.5758 12.2454 13.6384 12.1545 13.6863 12.051C13.7542 11.9043 13.822 11.6244 13.8499 11.3913C13.8707 11.2131 13.8647 11.1159 13.862 11.0556C13.8586 10.9593 13.7811 10.8594 13.6967 10.8171L13.1903 10.5822C13.1903 10.5822 12.4334 10.2411 11.9713 10.0233C11.9226 10.0013 11.8704 9.98882 11.8173 9.98639C11.7578 9.98007 11.6976 9.987 11.6409 10.0067C11.5842 10.0264 11.5322 10.0585 11.4884 10.1007V10.0989C11.4841 10.0989 11.4258 10.1502 10.7967 10.9386C10.7606 10.9888 10.7109 11.0267 10.6538 11.0475C10.5968 11.0684 10.5351 11.0712 10.4765 11.0556C10.4198 11.0399 10.3643 11.0201 10.3103 10.9962C10.2024 10.9494 10.165 10.9314 10.0911 10.8981L10.0867 10.8963C9.58895 10.6715 9.12808 10.3679 8.72068 9.99629C8.61105 9.89729 8.50925 9.78929 8.40484 9.68489C8.06252 9.34581 7.7642 8.9622 7.51734 8.54369L7.46601 8.45819C7.42914 8.40074 7.39933 8.33877 7.37726 8.27369C7.3442 8.14139 7.43034 8.03519 7.43034 8.03519C7.43034 8.03519 7.64177 7.79579 7.74009 7.66619C7.82195 7.55848 7.89834 7.44643 7.96892 7.3305C8.07159 7.1595 8.10379 6.984 8.04984 6.8481C7.80622 6.2325 7.55389 5.6196 7.2946 5.0112C7.24327 4.8906 7.091 4.8042 6.95266 4.7871C6.90567 4.7817 6.85869 4.7763 6.8117 4.7727C6.69485 4.76669 6.57776 4.76879 6.46106 4.7772Z" fill="white"/>
</svg>
