<svg width="15" height="15" viewBox="0 0 15 15" fill="none" xmlns="http://www.w3.org/2000/svg">
<path d="M6.25 12.5C7.58123 12.4997 8.8741 12.0541 9.92275 11.234L13.2197 14.531L14.2803 13.4705L10.9833 10.1735C11.8038 9.12475 12.2497 7.83158 12.25 6.5C12.25 3.19175 9.55825 0.5 6.25 0.5C2.94175 0.5 0.25 3.19175 0.25 6.5C0.25 9.80825 2.94175 12.5 6.25 12.5ZM6.25 2C8.73175 2 10.75 4.01825 10.75 6.5C10.75 8.98175 8.73175 11 6.25 11C3.76825 11 1.75 8.98175 1.75 6.5C1.75 4.01825 3.76825 2 6.25 2Z" fill="#001535"/>
</svg>
