<svg width="37" height="36" viewBox="0 0 37 36" fill="none" xmlns="http://www.w3.org/2000/svg">
<path d="M10.2334 13.8984H9.06152V15.0703H10.2334V13.8984Z" fill="white"/>
<path d="M16.0928 13.8984H14.9209V15.0703H16.0928V13.8984Z" fill="white"/>
<path d="M35.5119 20.3495L33.2227 20.0225C33.1138 19.7024 32.9852 19.3893 32.8377 19.085L34.2229 17.2381C34.3075 17.1253 34.3485 16.9857 34.3385 16.8451C34.3285 16.7044 34.2681 16.572 34.1684 16.4723L31.6823 13.9862C31.5867 13.8913 31.4612 13.8327 31.3272 13.8204V8.18013C31.8754 7.7412 32.318 7.1847 32.6222 6.55175C32.9265 5.9188 33.0846 5.22557 33.085 4.52329C33.0904 3.63529 32.8407 2.7644 32.3658 2.01409C31.8908 1.26377 31.2104 0.665545 30.4055 0.290478C30.3162 0.248312 30.2177 0.229398 30.1191 0.235492C30.0206 0.241587 29.9252 0.272492 29.8417 0.325338C29.7583 0.378184 29.6896 0.451255 29.642 0.537765C29.5944 0.624275 29.5694 0.721416 29.5694 0.820165V4.10141L28.3975 4.49224L27.2256 4.10141V0.820165C27.2252 0.721615 27.1999 0.624761 27.1521 0.538568C27.1044 0.452374 27.0356 0.379625 26.9523 0.327052C26.8689 0.274479 26.7736 0.243781 26.6753 0.237797C26.5769 0.231814 26.4786 0.250739 26.3895 0.292821C25.5849 0.667722 24.9048 1.26558 24.4299 2.01544C23.9549 2.7653 23.7051 3.63568 23.71 4.52329C23.7103 5.22557 23.8685 5.9188 24.1727 6.55175C24.477 7.1847 24.9196 7.7412 25.4678 8.18013V12.1405H23.71C23.569 12.1405 23.4327 12.1913 23.3262 12.2836C23.2196 12.376 23.1499 12.5036 23.1299 12.6432L22.7508 15.2969L23.911 15.4627L24.218 13.3124H26.7176L27.0246 15.4627C27.0406 15.5742 27.0884 15.6786 27.1621 15.7636C27.2359 15.8486 27.3326 15.9105 27.4407 15.942C27.929 16.0831 28.4006 16.2771 28.8469 16.5204C28.9457 16.5745 29.0579 16.599 29.1702 16.591C29.2826 16.583 29.3902 16.5428 29.4803 16.4752L31.2153 15.1745L32.9825 16.9416L31.6787 18.6766C31.6111 18.7667 31.5709 18.8743 31.5629 18.9867C31.5549 19.099 31.5795 19.2113 31.6336 19.31C31.8769 19.7564 32.0708 20.2279 32.2119 20.7163C32.2434 20.8243 32.3054 20.921 32.3904 20.9948C32.4754 21.0686 32.5798 21.1163 32.6912 21.1323L34.8416 21.4393V23.9389L32.6912 24.2459C32.5798 24.2619 32.4754 24.3097 32.3904 24.3834C32.3054 24.4572 32.2434 24.5539 32.2119 24.662C32.0708 25.1503 31.8769 25.6219 31.6336 26.0682C31.5795 26.167 31.5549 26.2792 31.5629 26.3916C31.5709 26.5039 31.6111 26.6115 31.6787 26.7016L32.9795 28.4366L31.2123 30.2038L29.4785 28.8983C29.3885 28.8307 29.2808 28.7905 29.1685 28.7825C29.0562 28.7745 28.9439 28.799 28.8451 28.8532C28.3988 29.0965 27.9273 29.2904 27.4389 29.4315C27.3308 29.463 27.2342 29.5249 27.1604 29.6099C27.0866 29.6949 27.0389 29.7994 27.0229 29.9108L26.7176 32.0624H24.2959V29.5844C24.2955 28.9654 24.2067 28.3496 24.0323 27.7557C25.1483 28.0824 26.3405 28.0358 27.4276 27.6228C28.5147 27.2098 29.4372 26.4531 30.0548 25.4678C30.6725 24.4825 30.9514 23.3224 30.8493 22.164C30.7471 21.0056 30.2695 19.9122 29.489 19.0502C28.7085 18.1881 27.6678 17.6045 26.5252 17.3882C25.3826 17.1718 24.2006 17.3345 23.1589 17.8514C22.1173 18.3684 21.2729 19.2115 20.7543 20.2523C20.2357 21.2932 20.0712 22.4749 20.2858 23.6178C20.2717 23.612 20.2582 23.6049 20.2442 23.5997L15.5069 21.7047V20.8041C16.2898 20.4036 16.9833 19.8482 17.5453 19.1717H19.0225C19.4887 19.1717 19.9358 18.9865 20.2655 18.6569C20.5951 18.3272 20.7803 17.8801 20.7803 17.4139V16.1342C21.1219 16.0135 21.4178 15.7901 21.6275 15.4948C21.8373 15.1994 21.9507 14.8465 21.9522 14.4842V12.7264C21.9507 12.3642 21.8373 12.0112 21.6275 11.7158C21.4178 11.4205 21.1219 11.1972 20.7803 11.0764V10.3827C20.7803 8.20706 19.9161 6.12056 18.3777 4.58218C16.8393 3.0438 14.7528 2.17954 12.5772 2.17954C10.4016 2.17954 8.31508 3.0438 6.7767 4.58218C5.23831 6.12056 4.37406 8.20706 4.37406 10.3827V11.0764C4.03251 11.1972 3.73661 11.4205 3.52684 11.7158C3.31707 12.0112 3.20368 12.3642 3.20218 12.7264V14.4842C3.20218 14.9504 3.38738 15.3975 3.71703 15.7272C4.04669 16.0568 4.49379 16.242 4.95999 16.242H6.13187C6.16937 16.242 6.2057 16.2362 6.24261 16.2338C6.42277 17.2053 6.8234 18.1225 7.41369 18.9149C8.00398 19.7072 8.76819 20.3535 9.64749 20.8041V21.7047L4.91019 23.5997C3.7117 24.0746 2.6841 24.8997 1.96137 25.9672C1.23863 27.0347 0.854287 28.2952 0.858432 29.5844V34.992C0.858432 35.1474 0.920164 35.2965 1.03005 35.4064C1.13993 35.5162 1.28897 35.578 1.44437 35.578H23.71C23.8654 35.578 24.0144 35.5162 24.1243 35.4064C24.2342 35.2965 24.2959 35.1474 24.2959 34.992V33.2342H27.2256C27.3666 33.2342 27.5029 33.1834 27.6094 33.0911C27.716 32.9987 27.7857 32.8711 27.8057 32.7315L28.1327 30.4422C28.4528 30.3334 28.7659 30.2048 29.0702 30.0573L30.917 31.4424C31.0299 31.527 31.1694 31.5681 31.3101 31.5581C31.4508 31.5481 31.5831 31.4877 31.6828 31.3879L34.169 28.9018C34.2687 28.8021 34.3291 28.6697 34.3391 28.5291C34.3491 28.3884 34.3081 28.2488 34.2235 28.136L32.8383 26.2891C32.9858 25.9848 33.1144 25.6717 33.2233 25.3516L35.5125 25.0247C35.6519 25.0045 35.7794 24.9349 35.8716 24.8285C35.9638 24.722 36.0146 24.586 36.0147 24.4452V20.9295C36.0147 20.7885 35.9639 20.6523 35.8715 20.5457C35.7792 20.4392 35.6515 20.3695 35.5119 20.3495ZM29.0666 15.3174C29.0391 15.304 29.008 15.2952 28.9805 15.2823V8.03892H27.8116V12.6854L27.8057 12.6432C27.7857 12.5036 27.716 12.376 27.6094 12.2836C27.5029 12.1913 27.3666 12.1405 27.2256 12.1405H26.6397V7.88657C26.6397 7.79206 26.6168 7.69895 26.5731 7.61518C26.5293 7.53142 26.4659 7.45948 26.3883 7.40552C25.9527 7.10228 25.5915 6.70435 25.3316 6.2416C25.0718 5.77884 24.9201 5.26325 24.8879 4.7335C24.8557 4.20375 24.9439 3.67358 25.1458 3.18276C25.3477 2.69195 25.6581 2.25321 26.0537 1.89946V4.52329C26.0537 4.64632 26.0924 4.76623 26.1643 4.86603C26.2363 4.96584 26.3378 5.04047 26.4545 5.07935L28.2123 5.66528C28.3325 5.70531 28.4625 5.70531 28.5827 5.66528L30.3405 5.07935C30.4572 5.04047 30.5587 4.96584 30.6306 4.86603C30.7026 4.76623 30.7413 4.64632 30.7412 4.52329V1.89946C31.1372 2.2532 31.4479 2.69204 31.65 3.18304C31.8521 3.67403 31.9404 4.20443 31.9082 4.73442C31.876 5.26441 31.7242 5.78022 31.4641 6.24314C31.2041 6.70606 30.8426 7.10406 30.4067 7.40727C30.3293 7.46107 30.2661 7.53273 30.2223 7.61616C30.1786 7.6996 30.1556 7.79236 30.1553 7.88657V14.5036L29.0666 15.3174ZM21.3662 22.6874C21.3598 21.7712 21.6581 20.8789 22.2143 20.1508C22.7704 19.4227 23.5528 18.9001 24.4384 18.6653C25.324 18.4306 26.2626 18.4969 27.1064 18.8538C27.9502 19.2108 28.6514 19.8381 29.0996 20.6371C29.5479 21.4362 29.7178 22.3616 29.5827 23.2677C29.4475 24.1739 29.0149 25.0094 28.3529 25.6428C27.691 26.2763 26.8372 26.6717 25.926 26.7668C25.0147 26.8619 24.0977 26.6514 23.3192 26.1684C22.9141 25.5195 22.396 24.9486 21.7893 24.4827C21.5105 23.9253 21.3657 23.3106 21.3662 22.6874ZM19.0225 17.9999H18.3112C18.5967 17.4437 18.7991 16.8487 18.9118 16.2338C18.9487 16.2338 18.985 16.242 19.0225 16.242H19.6084V17.4139C19.6084 17.5693 19.5467 17.7184 19.4368 17.8282C19.3269 17.9381 19.1779 17.9999 19.0225 17.9999ZM17.8506 11.5545C17.5778 11.5539 17.3089 11.49 17.065 11.368C16.821 11.2461 16.6086 11.0692 16.4444 10.8514L15.3897 9.44516C15.3426 9.38238 15.2834 9.3297 15.2155 9.29025C15.1477 9.25079 15.0726 9.22536 14.9948 9.21548C14.9169 9.20592 14.8379 9.21192 14.7623 9.23314C14.6868 9.25437 14.6162 9.29039 14.5547 9.33911L12.5883 10.91C12.0695 11.3252 11.4253 11.5524 10.7608 11.5545H7.30374V10.9686C7.30374 9.57 7.85934 8.22868 8.8483 7.23972C9.83726 6.25076 11.1786 5.69517 12.5772 5.69517C13.9758 5.69517 15.3171 6.25076 16.3061 7.23972C17.295 8.22868 17.8506 9.57 17.8506 10.9686V11.5545ZM20.7803 14.4842C20.7803 14.6396 20.7186 14.7887 20.6087 14.8985C20.4988 15.0084 20.3498 15.0702 20.1944 15.0702H19.0225V12.1405H20.1944C20.3498 12.1405 20.4988 12.2022 20.6087 12.3121C20.7186 12.422 20.7803 12.571 20.7803 12.7264V14.4842ZM12.5772 3.35142C14.4414 3.35343 16.2286 4.09487 17.5468 5.41305C18.865 6.73123 19.6064 8.51848 19.6084 10.3827V10.9686H19.0225C19.0225 9.2592 18.3434 7.61981 17.1347 6.41108C15.926 5.20235 14.2866 4.52329 12.5772 4.52329C10.8678 4.52329 9.22839 5.20235 8.01966 6.41108C6.81093 7.61981 6.13187 9.2592 6.13187 10.9686H5.54593V10.3827C5.54795 8.51848 6.28939 6.73123 7.60756 5.41305C8.92574 4.09487 10.713 3.35343 12.5772 3.35142ZM4.95999 15.0702C4.80459 15.0702 4.65556 15.0084 4.54567 14.8985C4.43579 14.7887 4.37406 14.6396 4.37406 14.4842V12.7264C4.37406 12.571 4.43579 12.422 4.54567 12.3121C4.65556 12.2022 4.80459 12.1405 4.95999 12.1405H6.13187V15.0702H4.95999ZM7.30374 15.0702V12.7264H10.7608C11.6918 12.7252 12.5948 12.4083 13.3225 11.8276L14.8172 10.6317L15.5069 11.5545C15.7805 11.9176 16.1346 12.2123 16.5412 12.4156C16.9478 12.6189 17.396 12.7253 17.8506 12.7264V15.0702C17.8516 16.1137 17.5411 17.1338 16.9588 17.9999H12.5772V19.1717H15.8842C15.1104 19.7974 14.1752 20.1911 13.187 20.3073C12.1987 20.4234 11.1977 20.2573 10.2999 19.8282C9.4021 19.399 8.64421 18.7244 8.11397 17.8823C7.58372 17.0403 7.30281 16.0653 7.30374 15.0702ZM12.5772 21.5155C13.1718 21.514 13.7634 21.43 14.335 21.2659V22.1014C14.335 22.5676 14.1498 23.0147 13.8201 23.3444C13.4905 23.674 13.0434 23.8592 12.5772 23.8592C12.111 23.8592 11.6639 23.674 11.3342 23.3444C11.0046 23.0147 10.8194 22.5676 10.8194 22.1014V21.2659C11.3909 21.43 11.9825 21.514 12.5772 21.5155ZM23.1241 34.4061H19.6084V27.9608H18.4366V34.4061H6.71781V27.9608H5.54593V34.4061H2.03031V29.5844C2.0269 28.5296 2.34137 27.4982 2.93273 26.6248C3.5241 25.7513 4.36491 25.0763 5.34554 24.6877L9.77699 22.9153C9.95002 23.5245 10.3171 24.0608 10.8224 24.4426C11.3277 24.8244 11.9438 25.0309 12.5772 25.0309C13.2105 25.0309 13.8266 24.8244 14.332 24.4426C14.8373 24.0608 15.2043 23.5245 15.3774 22.9153L19.8088 24.6877C20.7895 25.0763 21.6303 25.7513 22.2216 26.6248C22.813 27.4982 23.1275 28.5296 23.1241 29.5844V34.4061Z" fill="white"/>
<path d="M26.0537 14.4844H24.8818V15.6562H26.0537V14.4844Z" fill="white"/>
<path d="M26.0537 29.7188H24.8818V30.8906H26.0537V29.7188Z" fill="white"/>
<path d="M30.855 27.2456L30.0264 28.0742L30.855 28.9029L31.6837 28.0742L30.855 27.2456Z" fill="white"/>
<path d="M33.6709 22.1016H32.499V23.2734H33.6709V22.1016Z" fill="white"/>
<path d="M30.855 16.4721L30.0264 17.3008L30.855 18.1294L31.6837 17.3008L30.855 16.4721Z" fill="white"/>
</svg>
