<svg width="40" height="32" viewBox="0 0 40 32" fill="none" xmlns="http://www.w3.org/2000/svg">
<path fill-rule="evenodd" clip-rule="evenodd" d="M2.48181 23.5504C2.6315 25.2127 4.98704 26.5677 6.1924 25.9138C7.93347 24.9763 9.40667 25.5671 9.82421 27.5839C10.0972 28.8752 10.9922 28.8604 11.8101 28.8468C11.8655 28.8459 11.9205 28.845 11.9749 28.8445C12.0643 28.8437 12.157 28.845 12.2518 28.8463C13.0674 28.8579 14.0349 28.8716 14.3384 27.5447C14.8032 25.5751 16.2764 24.9841 18.0175 26.0162C19.1706 26.7323 19.7898 26.0878 20.4255 25.4261C20.4891 25.3599 20.5529 25.2935 20.6174 25.2283C20.67 25.1751 20.7231 25.1225 20.7758 25.0702C21.4339 24.4178 22.0446 23.8124 21.1767 22.6601C20.934 22.3554 20.7779 21.991 20.7249 21.6051C20.6719 21.2192 20.724 20.826 20.8756 20.4672C21.0272 20.1084 21.2727 19.797 21.5863 19.5659C21.9 19.3349 22.2701 19.1927 22.6578 19.1543C24.0676 18.9068 24.0711 18.0241 24.075 17.0496C24.0752 17.0004 24.0754 16.9509 24.0758 16.9013L24.0765 16.8149C24.0855 15.8071 24.095 14.7347 22.5632 14.459C22.18 14.4073 21.8178 14.2532 21.5148 14.0131C21.2117 13.773 20.979 13.4557 20.8411 13.0945C20.7033 12.7333 20.6653 12.3415 20.7313 11.9605C20.7973 11.5795 20.9648 11.2234 21.2161 10.9296C22.0493 9.82885 21.4362 9.23246 20.8089 8.62228L20.7512 8.56611C20.6604 8.47747 20.5698 8.38149 20.4777 8.28383C19.9147 7.68714 19.2921 7.02732 18.175 7.58923C16.0086 8.66854 14.8427 8.24318 14.3148 6.07669C13.9995 4.80225 13.1802 4.84249 12.3777 4.88191C12.2177 4.88976 12.0585 4.89758 11.9041 4.89496C11.8489 4.89403 11.7938 4.89276 11.7388 4.8915C10.8683 4.87146 10.0451 4.85251 9.80056 6.17901C9.45392 8.08552 7.84683 8.72357 6.12152 7.6679C5.002 6.98526 4.40297 7.58618 3.80683 8.18419C3.71497 8.27634 3.62319 8.36841 3.52957 8.45571L3.46023 8.52024C2.78471 9.14818 2.16724 9.72216 2.87572 10.8192C3.9314 12.4893 3.32477 14.1124 1.48916 14.522C0.0044162 14.8487 0.00270348 15.8119 0.000857258 16.8514L0.000857258 16.8517C0.000742823 16.9152 0.000628387 16.979 0.000174444 17.043C-0.00770281 18.1538 0.244357 18.9731 1.63091 19.178C1.97681 19.2695 2.29743 19.4384 2.56856 19.6719C2.83969 19.9054 3.0543 20.1972 3.19616 20.5257C3.33802 20.8542 3.40347 21.2107 3.38753 21.5682C3.3716 21.9256 3.27465 22.2747 3.10413 22.5893C3.02015 22.7417 2.90671 22.8806 2.80114 23.0098L2.80111 23.0099C2.63929 23.208 2.49594 23.3835 2.50547 23.5504L2.48181 23.5504ZM35.8537 15.6722C35.7509 15.3924 35.7297 15.0891 35.7923 14.7977C35.855 14.5062 35.9991 14.2386 36.2078 14.0258C36.4165 13.813 36.6812 13.6637 36.9714 13.5954C37.2615 13.527 37.5651 13.5423 37.8469 13.6396C39.0114 13.8711 39.2861 13.3056 39.622 12.6139C39.652 12.5522 39.6824 12.4895 39.714 12.4263C39.8401 12.2553 39.9275 12.0589 39.9702 11.8507C40.0128 11.6425 40.0097 11.4276 39.961 11.2208C39.9122 11.0139 39.8191 10.8201 39.688 10.6528C39.557 10.4855 39.3911 10.3487 39.2019 10.252C38.9743 10.1029 38.7875 9.89964 38.6582 9.66032C38.5288 9.42101 38.4611 9.15319 38.4611 8.88116C38.4611 8.60914 38.5288 8.34151 38.6582 8.10219C38.7875 7.86288 38.9743 7.65942 39.2019 7.51037C40.3126 6.81179 40.0172 6.11322 39.7219 5.41464C39.6841 5.3254 39.6464 5.23616 39.6116 5.14692C39.5715 4.95729 39.4919 4.77823 39.3779 4.62146C39.2639 4.46468 39.1181 4.33381 38.9501 4.23717C38.7821 4.14052 38.5957 4.08029 38.4028 4.0606C38.21 4.0409 38.0152 4.06205 37.8311 4.12272C36.413 4.35907 35.641 3.47684 35.8695 2.0824C36.0585 0.908558 35.4361 0.553973 34.5617 0.238846L34.4926 0.215313C33.739 -0.0419077 33.1646 -0.237972 32.5606 0.664298C32.431 0.930529 32.2308 1.15603 31.9817 1.31613C31.7327 1.47623 31.4443 1.56481 31.1483 1.57213C30.8523 1.57945 30.5601 1.50527 30.3034 1.35768C30.0467 1.21008 29.8355 0.994773 29.6929 0.73527C28.9616 -0.263383 28.2931 -0.00627606 27.4759 0.308051L27.4713 0.309819C27.2646 0.354547 27.0695 0.44218 26.8987 0.566976C26.7279 0.691772 26.5852 0.85098 26.4798 1.03436C26.3744 1.21773 26.3086 1.42118 26.2867 1.63156C26.2648 1.84195 26.2872 2.05454 26.3526 2.2557C26.405 2.51949 26.3908 2.79221 26.3111 3.04909C26.2315 3.30598 26.089 3.53888 25.8964 3.7267C25.7039 3.91452 25.4675 4.05135 25.2087 4.12465C24.95 4.19795 24.677 4.20534 24.4146 4.14638C23.2407 3.93367 22.8862 4.37501 22.5159 5.29676C22.1456 6.2185 21.996 6.76193 22.9571 7.4946C23.2117 7.6415 23.4219 7.85451 23.5654 8.11104C23.7089 8.36757 23.7803 8.65812 23.7723 8.95194C23.7642 9.24577 23.6769 9.53189 23.5195 9.78015C23.3622 10.0284 23.1407 10.2297 22.8784 10.3624C21.856 11.049 22.1636 11.7283 22.5132 12.5004L22.5475 12.5762L22.5637 12.6123C22.9162 13.3945 23.1318 13.8729 24.2492 13.6711C25.7697 13.3954 26.6126 14.3172 26.2975 15.8692C26.0887 16.9131 26.7155 17.1872 27.3422 17.4612L27.3422 17.4612C27.4012 17.487 27.4603 17.5128 27.5186 17.5393C28.1961 17.8465 28.9682 18.0671 29.5827 17.1611C30.4966 15.814 31.5994 15.9323 32.5606 17.1061C32.9072 17.5 36.2161 17.6181 35.8773 15.6801L35.8537 15.6722ZM12.1326 10.6222C13.3549 10.6408 14.5445 11.02 15.5522 11.712C16.5599 12.404 17.3408 13.378 17.7972 14.512C18.2535 15.6461 18.3649 16.8897 18.1173 18.0868C17.8698 19.2839 17.2743 20.3813 16.4056 21.2414C15.5369 22.1014 14.4336 22.6857 13.2341 22.9212C12.0345 23.1568 10.7921 23.0329 9.66272 22.5652C8.53331 22.0975 7.56718 21.3068 6.88536 20.2922C6.20354 19.2776 5.83645 18.0842 5.8301 16.8618C5.82474 16.0356 5.98455 15.2165 6.30017 14.453C6.6158 13.6894 7.08083 12.9966 7.66799 12.4154C8.25514 11.8341 8.95257 11.3762 9.71927 11.0682C10.486 10.7603 11.3065 10.6085 12.1326 10.6222ZM27.6785 5.44358C26.7927 6.34267 26.299 7.55602 26.3053 8.81815C26.2884 9.46279 26.4012 10.1042 26.637 10.7044C26.8728 11.3046 27.2268 11.8512 27.678 12.312C28.1292 12.7727 28.6684 13.1382 29.2635 13.3866C29.8587 13.6349 30.4976 13.7612 31.1425 13.7578C32.4337 13.7431 33.6663 13.2161 34.569 12.2927C35.4717 11.3693 35.9707 10.1252 35.956 8.83392C35.9414 7.54265 35.4144 6.30994 34.491 5.40723C33.5676 4.50451 32.3234 4.00565 31.0322 4.02028C29.7701 4.03276 28.5643 4.54449 27.6785 5.44358Z" fill="white"/>
<path d="M9.01749 19.0562C9.19382 19.4473 9.44818 19.799 9.76546 20.0902C9.92909 20.2125 10.072 20.3562 10.25 20.4669C10.7592 20.8144 11.3464 21.0351 11.9618 21.1105C12.5771 21.1859 13.2027 21.1136 13.7856 20.8998C13.8924 20.8499 14.0115 20.8323 14.128 20.8492C14.2446 20.8662 14.3532 20.9169 14.4402 20.9949C16.3416 22.3256 18.2479 23.6524 20.1589 24.9753C21.6216 25.9943 23.0839 27.0302 24.5664 28.0238C24.8224 28.2192 25.1275 28.3423 25.4495 28.3802C25.7714 28.418 26.0983 28.3693 26.3955 28.239C26.4845 28.2032 26.5609 28.1421 26.615 28.0636C26.8649 27.722 27.0901 27.3651 27.3562 27.0575C27.468 26.9066 27.5368 26.7291 27.5554 26.5435C27.5739 26.3578 27.5416 26.1709 27.4618 26.0024C27.3028 25.5769 27.0046 25.2166 26.6142 24.9785C23.3495 22.718 20.0854 20.4602 16.8219 18.2051C16.6601 18.1129 16.5292 17.9762 16.4451 17.8113C16.3611 17.6465 16.3275 17.4607 16.3486 17.2767C16.3669 16.4735 16.1146 15.6886 15.6315 15.0452C15.2515 14.5304 14.7449 14.1199 14.1592 13.8523C13.6773 13.6114 13.147 13.4785 12.606 13.4632C12.0649 13.4479 11.5264 13.5505 11.0287 13.7637C10.8154 13.8539 10.9116 13.9034 11.0213 13.975C11.7229 14.4661 12.4197 14.9541 13.1277 15.4354C13.2089 15.4739 13.2751 15.5377 13.316 15.617C13.357 15.6963 13.3704 15.7867 13.3545 15.8746C13.2867 16.4768 13.236 17.0793 13.1853 17.6819C13.1874 17.7214 13.1756 17.7606 13.1519 17.7927C13.1282 17.8248 13.094 17.8479 13.0552 17.8581C12.484 18.113 11.8956 18.3676 11.3321 18.6376C11.2664 18.6818 11.1875 18.7024 11.1086 18.6958C11.0296 18.6892 10.9556 18.6558 10.899 18.6013C10.2112 18.1155 9.50728 17.6334 8.81728 17.1564C8.75152 17.0988 8.67076 17.0604 8.58401 17.0456C8.53205 17.7433 8.67649 18.4404 9.0013 19.0599L9.01749 19.0562Z" fill="white"/>
</svg>
