<svg width="22" height="19" viewBox="0 0 22 19" fill="none" xmlns="http://www.w3.org/2000/svg">
<path d="M10.9992 0C9.7292 0 8.5992 0.8 8.1792 2H1.9992V4H3.9492L0.999199 11C0.529199 13 1.9992 14 4.4992 14C6.9992 14 8.5592 13 7.9992 11L5.0492 4H8.1692C8.4992 4.85 9.1492 5.5 9.9992 5.83V17H0.999199V19H20.9992V17H11.9992V5.82C12.8492 5.5 13.4992 4.85 13.8192 4H16.9492L13.9992 11C13.5292 13 14.9992 14 17.4992 14C19.9992 14 21.5592 13 20.9992 11L18.0492 4H19.9992V2H13.8292C13.3992 0.8 12.2692 0 10.9992 0ZM10.9992 2C11.2644 2 11.5188 2.10536 11.7063 2.29289C11.8938 2.48043 11.9992 2.73478 11.9992 3C11.9992 3.26522 11.8938 3.51957 11.7063 3.70711C11.5188 3.89464 11.2644 4 10.9992 4C10.734 4 10.4796 3.89464 10.2921 3.70711C10.1046 3.51957 9.9992 3.26522 9.9992 3C9.9992 2.73478 10.1046 2.48043 10.2921 2.29289C10.4796 2.10536 10.734 2 10.9992 2Z" fill="#3083FF"/>
</svg>
