<svg width="39" height="38" viewBox="0 0 39 38" fill="none" xmlns="http://www.w3.org/2000/svg">
<path d="M21.1943 10.375V9.03906H22.3662C22.5216 9.03906 22.6706 8.97733 22.7805 8.86745C22.8904 8.75756 22.9521 8.60853 22.9521 8.45312V6.10938C22.9521 5.95397 22.8904 5.80494 22.7805 5.69505C22.6706 5.58517 22.5216 5.52344 22.3662 5.52344H6.5459C6.3905 5.52344 6.24146 5.58517 6.13158 5.69505C6.02169 5.80494 5.95996 5.95397 5.95996 6.10938C5.95996 6.26478 6.02169 6.41381 6.13158 6.5237C6.24146 6.63358 6.3905 6.69531 6.5459 6.69531H21.7803V7.86719H16.5068C16.3514 7.86719 16.2024 7.92892 16.0925 8.0388C15.9826 8.14869 15.9209 8.29772 15.9209 8.45312C15.9209 8.60853 15.9826 8.75756 16.0925 8.86745C16.2024 8.97733 16.3514 9.03906 16.5068 9.03906H17.6787V10.3691C16.2677 10.6251 14.9286 11.1827 13.7529 12.0039L12.4053 10.6445C12.2955 10.5354 12.147 10.4741 11.9922 10.4741C11.8374 10.4741 11.6889 10.5354 11.5791 10.6445L9.9209 12.2969C9.86553 12.3511 9.82149 12.4159 9.79132 12.4873C9.76114 12.5587 9.74544 12.6354 9.74512 12.7129C9.74544 12.7904 9.76114 12.8671 9.79132 12.9385C9.82149 13.0099 9.86553 13.0746 9.9209 13.1289L11.2803 14.4883C10.606 15.4572 10.1099 16.5386 9.81543 17.6816C9.78901 17.7581 9.7787 17.8391 9.78514 17.9197C9.79158 18.0003 9.81464 18.0787 9.85285 18.15C9.89106 18.2212 9.94361 18.2838 10.0072 18.3338C10.0708 18.3837 10.144 18.42 10.2223 18.4403C10.3005 18.4605 10.3822 18.4644 10.462 18.4516C10.5418 18.4388 10.6182 18.4096 10.6862 18.3659C10.7542 18.3221 10.8124 18.2648 10.8572 18.1975C10.9019 18.1301 10.9323 18.0542 10.9463 17.9746C11.0989 17.3984 11.3089 16.839 11.5732 16.3047L12.5576 16.8906C12.6928 16.9683 12.8533 16.9891 13.0039 16.9485C13.1544 16.9078 13.2826 16.809 13.3604 16.6738C13.4381 16.5386 13.4589 16.3781 13.4182 16.2276C13.3775 16.077 13.2788 15.9488 13.1436 15.8711L12.1533 15.2852C12.7885 14.3307 13.6071 13.5121 14.5615 12.877L15.1475 13.8672C15.2252 14.0024 15.3534 14.1012 15.5039 14.1418C15.6545 14.1825 15.815 14.1617 15.9502 14.084C16.0854 14.0063 16.1842 13.8781 16.2248 13.7275C16.2655 13.577 16.2447 13.4164 16.167 13.2812L15.5811 12.291C16.6007 11.7765 17.7117 11.4679 18.8506 11.3828V12.5547C18.8506 12.7101 18.9123 12.8591 19.0222 12.969C19.1321 13.0789 19.2811 13.1406 19.4365 13.1406C19.5919 13.1406 19.741 13.0789 19.8508 12.969C19.9607 12.8591 20.0225 12.7101 20.0225 12.5547V11.4121C21.1652 11.4868 22.2821 11.7854 23.3096 12.291L22.7236 13.2812C22.6459 13.4164 22.6251 13.577 22.6658 13.7275C22.7064 13.8781 22.8052 14.0063 22.9404 14.084C23.0756 14.1617 23.2362 14.1825 23.3867 14.1418C23.5372 14.1012 23.6655 14.0024 23.7432 13.8672L24.3291 12.8711C25.2796 13.5111 26.0973 14.3288 26.7373 15.2793L25.7412 15.8652C25.606 15.9429 25.5072 16.0712 25.4666 16.2217C25.4259 16.3722 25.4467 16.5328 25.5244 16.668C25.6021 16.8032 25.7303 16.902 25.8809 16.9426C26.0314 16.9833 26.1919 16.9625 26.3271 16.8848L27.3174 16.2988C27.8331 17.3242 28.1417 18.4412 28.2256 19.5859H27.0537C26.8983 19.5859 26.7493 19.6477 26.6394 19.7576C26.5295 19.8674 26.4678 20.0165 26.4678 20.1719C26.4678 20.3273 26.5295 20.4763 26.6394 20.5862C26.7493 20.6961 26.8983 20.7578 27.0537 20.7578H28.2256C28.1509 21.9005 27.8523 23.0174 27.3467 24.0449L26.3564 23.459C26.2895 23.4205 26.2156 23.3956 26.1391 23.3857C26.0625 23.3757 25.9847 23.381 25.9102 23.4011C25.8356 23.4213 25.7658 23.4559 25.7046 23.503C25.6435 23.5501 25.5922 23.6088 25.5537 23.6758C25.5152 23.7427 25.4903 23.8166 25.4804 23.8932C25.4705 23.9697 25.4757 24.0475 25.4959 24.122C25.516 24.1966 25.5506 24.2664 25.5977 24.3276C25.6449 24.3888 25.7036 24.44 25.7705 24.4785L26.7666 25.0645C26.1266 26.0149 25.3088 26.8326 24.3584 27.4727L23.7725 26.4766C23.6948 26.3414 23.5665 26.2426 23.416 26.2019C23.2654 26.1613 23.1049 26.1821 22.9697 26.2598C22.8345 26.3375 22.7357 26.4657 22.6951 26.6162C22.6544 26.7668 22.6752 26.9273 22.7529 27.0625L23.3389 28.0527C22.3045 28.5722 21.1772 28.8809 20.0225 28.9609V27.7891C20.0225 27.6337 19.9607 27.4846 19.8508 27.3747C19.741 27.2649 19.5919 27.2031 19.4365 27.2031C19.2811 27.2031 19.1321 27.2649 19.0222 27.3747C18.9123 27.4846 18.8506 27.6337 18.8506 27.7891V28.9609C17.7073 28.8855 16.5902 28.5848 15.5635 28.0762L16.1494 27.0859C16.1879 27.019 16.2128 26.9451 16.2227 26.8686C16.2327 26.792 16.2274 26.7142 16.2073 26.6397C16.1871 26.5651 16.1525 26.4953 16.1054 26.4341C16.0583 26.373 15.9996 26.3217 15.9326 26.2832C15.8657 26.2447 15.7918 26.2198 15.7152 26.2099C15.6387 26.2 15.5609 26.2052 15.4863 26.2253C15.4118 26.2455 15.342 26.2801 15.2808 26.3272C15.2196 26.3743 15.1684 26.4331 15.1299 26.5L14.5439 27.4902C13.5895 26.8551 12.7709 26.0364 12.1357 25.082L13.126 24.4961C13.1929 24.4576 13.2516 24.4063 13.2988 24.3452C13.3459 24.284 13.3805 24.2142 13.4006 24.1396C13.4208 24.0651 13.426 23.9873 13.4161 23.9107C13.4062 23.8342 13.3812 23.7603 13.3428 23.6934C13.3043 23.6264 13.253 23.5677 13.1919 23.5206C13.1307 23.4735 13.0608 23.4388 12.9863 23.4187C12.9118 23.3986 12.834 23.3933 12.7574 23.4033C12.6808 23.4132 12.607 23.4381 12.54 23.4766L11.5557 24.0625C11.2914 23.5282 11.0813 22.9688 10.9287 22.3926C10.9142 22.3148 10.884 22.2408 10.8401 22.175C10.7961 22.1092 10.7393 22.0529 10.6731 22.0097C10.6068 21.9664 10.5325 21.9371 10.4546 21.9233C10.3767 21.9096 10.2968 21.9117 10.2197 21.9297C10.0699 21.9696 9.94203 22.0672 9.86406 22.2012C9.78609 22.3352 9.76439 22.4946 9.80371 22.6445C10.2461 24.3791 11.1477 25.9624 12.4137 27.228C13.6798 28.4935 15.2635 29.3944 16.9983 29.8361C18.733 30.2777 20.5547 30.2437 22.2718 29.7376C23.9889 29.2315 25.5378 28.2721 26.7558 26.9602C27.9737 25.6483 28.8156 24.0324 29.1929 22.2825C29.5702 20.5326 29.469 18.7134 28.8998 17.0162C28.3307 15.319 27.3147 13.8065 25.9588 12.6378C24.6028 11.4691 22.957 10.6874 21.1943 10.375ZM18.8506 9.03906H20.0225V10.2402C19.8291 10.2402 19.6357 10.2109 19.4365 10.2109C19.2373 10.2109 19.0439 10.2109 18.8506 10.2109V9.03906ZM11.1514 12.7129L11.9775 11.8867L12.8271 12.7305C12.5358 12.9915 12.26 13.2693 12.001 13.5625L11.1514 12.7129Z" fill="white"/>
<path d="M12.4053 20.1719C12.4053 20.0165 12.3435 19.8674 12.2337 19.7576C12.1238 19.6477 11.9747 19.5859 11.8193 19.5859H7.71777C7.56237 19.5859 7.41334 19.6477 7.30345 19.7576C7.19357 19.8674 7.13184 20.0165 7.13184 20.1719C7.13184 20.3273 7.19357 20.4763 7.30345 20.5862C7.41334 20.6961 7.56237 20.7578 7.71777 20.7578H11.8193C11.9747 20.7578 12.1238 20.6961 12.2337 20.5862C12.3435 20.4763 12.4053 20.3273 12.4053 20.1719Z" fill="white"/>
<path d="M22.7527 16.8552C22.6982 16.8003 22.6334 16.7567 22.562 16.7269C22.4906 16.6972 22.414 16.6819 22.3366 16.6819C22.2593 16.6819 22.1827 16.6972 22.1113 16.7269C22.0399 16.7567 21.9751 16.8003 21.9206 16.8552L20.1628 18.613C19.9283 18.5024 19.6722 18.445 19.4128 18.445C19.1535 18.445 18.8974 18.5024 18.6628 18.613L16.0964 16.0525C16.0439 15.9911 15.9792 15.9413 15.9066 15.9061C15.8339 15.871 15.7547 15.8512 15.674 15.8481C15.5933 15.845 15.5128 15.8586 15.4376 15.888C15.3624 15.9175 15.2941 15.9622 15.237 16.0193C15.1799 16.0764 15.1353 16.1447 15.1058 16.2199C15.0763 16.295 15.0627 16.3755 15.0659 16.4562C15.069 16.5369 15.0887 16.6161 15.1239 16.6888C15.1591 16.7615 15.2089 16.8261 15.2702 16.8786L17.8308 19.4392C17.728 19.6696 17.6761 19.9194 17.6784 20.1716C17.6784 20.6378 17.8636 21.0849 18.1933 21.4146C18.5229 21.7442 18.9701 21.9294 19.4363 21.9294C19.9025 21.9294 20.3496 21.7442 20.6792 21.4146C21.0089 21.0849 21.1941 20.6378 21.1941 20.1716C21.1925 19.9097 21.1325 19.6515 21.0183 19.4157L22.7761 17.6872C22.8295 17.6312 22.8713 17.5652 22.8991 17.493C22.9268 17.4207 22.94 17.3437 22.9378 17.2663C22.9356 17.189 22.9181 17.1128 22.8864 17.0422C22.8546 16.9717 22.8091 16.9081 22.7527 16.8552ZM19.8523 20.5876C19.7978 20.6425 19.733 20.6861 19.6616 20.7159C19.5902 20.7456 19.5136 20.7609 19.4363 20.7609C19.3589 20.7609 19.2823 20.7456 19.2109 20.7159C19.1395 20.6861 19.0747 20.6425 19.0202 20.5876C18.9653 20.5332 18.9217 20.4683 18.892 20.3969C18.8622 20.3255 18.8469 20.249 18.8469 20.1716C18.8469 20.0943 18.8622 20.0177 18.892 19.9463C18.9217 19.8749 18.9653 19.8101 19.0202 19.7556C19.0747 19.7007 19.1395 19.6571 19.2109 19.6273C19.2823 19.5976 19.3589 19.5823 19.4363 19.5823C19.5136 19.5823 19.5902 19.5976 19.6616 19.6273C19.733 19.6571 19.7978 19.7007 19.8523 19.7556C19.9072 19.8101 19.9508 19.8749 19.9805 19.9463C20.0103 20.0177 20.0256 20.0943 20.0256 20.1716C20.0256 20.249 20.0103 20.3255 19.9805 20.3969C19.9508 20.4683 19.9072 20.5332 19.8523 20.5876Z" fill="white"/>
<path d="M18.1252 31.2576C18.0584 31.2188 17.9845 31.1937 17.9079 31.1836C17.8312 31.1735 17.7534 31.1787 17.6787 31.1989C17.6041 31.219 17.5342 31.2538 17.4731 31.301C17.412 31.3483 17.3608 31.4072 17.3225 31.4744L17.0061 32.0251L15.7287 31.3044C15.6236 31.2441 15.5023 31.218 15.3816 31.2295C15.2609 31.2411 15.1468 31.2898 15.0549 31.3689C14.6161 31.7318 14.1161 32.0136 13.5784 32.2009C13.4642 32.2422 13.3656 32.3179 13.2963 32.4176C13.2271 32.5174 13.1905 32.6361 13.1916 32.7576V34.2341H10.8479V32.7576C10.8486 32.6354 10.8112 32.5161 10.7408 32.4163C10.6704 32.3165 10.5706 32.2412 10.4553 32.2009C9.99095 32.0393 9.55569 31.8038 9.16625 31.5037C9.07468 31.4323 8.96397 31.3897 8.84818 31.3814C8.73238 31.373 8.61671 31.3993 8.51586 31.4568L6.75804 32.4646L5.58617 30.4372L7.17992 29.5466C7.28916 29.4832 7.37499 29.3862 7.42461 29.2701C7.47424 29.1539 7.48501 29.0249 7.45531 28.9021C7.36797 28.5375 7.3247 28.1637 7.3264 27.7888C7.32661 27.502 7.3521 27.2157 7.40258 26.9333C7.41876 26.8188 7.40069 26.7021 7.35064 26.5978C7.30059 26.4935 7.2208 26.4064 7.12133 26.3474L5.84398 25.5798L7.01586 23.5525L7.92992 24.0798C7.99661 24.1222 8.07119 24.1507 8.14916 24.1635C8.22714 24.1763 8.30691 24.1733 8.38366 24.1545C8.46042 24.1357 8.53258 24.1015 8.5958 24.0541C8.65902 24.0067 8.712 23.947 8.75155 23.8786C8.79109 23.8101 8.81639 23.7344 8.82592 23.656C8.83545 23.5775 8.82901 23.498 8.807 23.4221C8.78498 23.3462 8.74784 23.2755 8.6978 23.2144C8.64777 23.1532 8.58588 23.1028 8.51586 23.0661L7.09203 22.2458C6.9582 22.169 6.79943 22.148 6.65023 22.1875C6.50102 22.227 6.37342 22.3237 6.29515 22.4568L4.53734 25.5036C4.46046 25.6375 4.43949 25.7962 4.47898 25.9455C4.51848 26.0947 4.61525 26.2223 4.74828 26.3005L6.18969 27.1326C6.16645 27.3505 6.15471 27.5696 6.15453 27.7888C6.15392 28.099 6.1794 28.4087 6.2307 28.7146L4.47289 29.7165C4.33887 29.7938 4.24085 29.921 4.20024 30.0703C4.15962 30.2196 4.1797 30.3789 4.25609 30.5134L6.0139 33.5603C6.05267 33.6269 6.10421 33.6853 6.16557 33.732C6.22694 33.7787 6.29691 33.8128 6.37148 33.8324C6.44606 33.852 6.52377 33.8567 6.60016 33.8462C6.67655 33.8357 6.75011 33.8102 6.81664 33.7712L8.74437 32.6638C9.03073 32.853 9.33259 33.0177 9.64672 33.156V34.8201C9.64672 34.9755 9.70845 35.1245 9.81833 35.2344C9.92822 35.3443 10.0773 35.406 10.2327 35.406H13.7483C13.9037 35.406 14.0527 35.3443 14.1626 35.2344C14.2725 35.1245 14.3342 34.9755 14.3342 34.8201V33.156C14.7442 32.9752 15.1316 32.7471 15.4885 32.4763L16.9299 33.3083C17.0638 33.3852 17.2225 33.4062 17.3717 33.3667C17.5209 33.3272 17.6485 33.2304 17.7268 33.0974L18.342 32.0369C18.413 31.904 18.43 31.7489 18.3897 31.6038C18.3493 31.4587 18.2546 31.3347 18.1252 31.2576Z" fill="white"/>
<path d="M10.0596 26.354C9.98847 26.3242 9.91213 26.3088 9.835 26.3086C9.75786 26.3084 9.68145 26.3234 9.61013 26.3528C9.53882 26.3822 9.47401 26.4254 9.41942 26.4799C9.36484 26.5344 9.32155 26.5991 9.29205 26.6704C9.15036 27.0264 9.07874 27.4064 9.08111 27.7896C9.08111 28.5666 9.38977 29.3117 9.9392 29.8612C10.4886 30.4106 11.2338 30.7192 12.0108 30.7192C12.4153 30.7172 12.8147 30.6293 13.1827 30.4614C13.2596 30.4351 13.3302 30.393 13.39 30.3379C13.4498 30.2828 13.4975 30.2158 13.53 30.1412C13.5625 30.0667 13.5791 29.9862 13.5788 29.9049C13.5785 29.8235 13.5613 29.7431 13.5282 29.6688C13.4951 29.5945 13.4469 29.5279 13.3867 29.4733C13.3265 29.4186 13.2556 29.3771 13.1784 29.3513C13.1013 29.3256 13.0196 29.3161 12.9386 29.3237C12.8577 29.3312 12.7791 29.3555 12.7081 29.395C12.4885 29.493 12.2512 29.5448 12.0108 29.5474C11.5446 29.5474 11.0975 29.3622 10.7678 29.0325C10.4382 28.7029 10.253 28.2558 10.253 27.7896C10.2519 27.56 10.2977 27.3327 10.3878 27.1216C10.4172 27.0497 10.4321 26.9727 10.4315 26.895C10.4309 26.8173 10.4149 26.7406 10.3843 26.6691C10.3538 26.5977 10.3094 26.5331 10.2536 26.479C10.1979 26.4249 10.1319 26.3824 10.0596 26.354Z" fill="white"/>
<path d="M15.9209 2.59375H25.2959C25.4513 2.59375 25.6003 2.53202 25.7102 2.42213C25.8201 2.31225 25.8818 2.16321 25.8818 2.00781C25.8818 1.85241 25.8201 1.70338 25.7102 1.59349C25.6003 1.48361 25.4513 1.42188 25.2959 1.42188H15.9209C15.7655 1.42188 15.6165 1.48361 15.5066 1.59349C15.3967 1.70338 15.335 1.85241 15.335 2.00781C15.335 2.16321 15.3967 2.31225 15.5066 2.42213C15.6165 2.53202 15.7655 2.59375 15.9209 2.59375Z" fill="white"/>
<path d="M2.44434 19H6.5459C6.7013 19 6.85033 18.9383 6.96022 18.8284C7.0701 18.7185 7.13184 18.5695 7.13184 18.4141C7.13184 18.2587 7.0701 18.1096 6.96022 17.9997C6.85033 17.8899 6.7013 17.8281 6.5459 17.8281H2.44434C2.28894 17.8281 2.1399 17.8899 2.03002 17.9997C1.92013 18.1096 1.8584 18.2587 1.8584 18.4141C1.8584 18.5695 1.92013 18.7185 2.03002 18.8284C2.1399 18.9383 2.28894 19 2.44434 19Z" fill="white"/>
<path d="M4.78809 14.8984H7.13184C7.28724 14.8984 7.43627 14.8367 7.54616 14.7268C7.65604 14.6169 7.71777 14.4679 7.71777 14.3125C7.71777 14.1571 7.65604 14.0081 7.54616 13.8982C7.43627 13.7883 7.28724 13.7266 7.13184 13.7266H4.78809C4.63269 13.7266 4.48365 13.7883 4.37377 13.8982C4.26388 14.0081 4.20215 14.1571 4.20215 14.3125C4.20215 14.4679 4.26388 14.6169 4.37377 14.7268C4.48365 14.8367 4.63269 14.8984 4.78809 14.8984Z" fill="white"/>
<path d="M5.95996 9.625H10.6475C10.8029 9.625 10.9519 9.56327 11.0618 9.45338C11.1717 9.3435 11.2334 9.19446 11.2334 9.03906C11.2334 8.88366 11.1717 8.73463 11.0618 8.62474C10.9519 8.51486 10.8029 8.45312 10.6475 8.45312H5.95996C5.80456 8.45312 5.65553 8.51486 5.54564 8.62474C5.43576 8.73463 5.37402 8.88366 5.37402 9.03906C5.37402 9.19446 5.43576 9.3435 5.54564 9.45338C5.65553 9.56327 5.80456 9.625 5.95996 9.625Z" fill="white"/>
<path d="M6.5459 35.4062H2.44434C2.28894 35.4062 2.1399 35.468 2.03002 35.5779C1.92013 35.6878 1.8584 35.8368 1.8584 35.9922C1.8584 36.1476 1.92013 36.2966 2.03002 36.4065C2.1399 36.5164 2.28894 36.5781 2.44434 36.5781H6.5459C6.7013 36.5781 6.85033 36.5164 6.96022 36.4065C7.0701 36.2966 7.13184 36.1476 7.13184 35.9922C7.13184 35.8368 7.0701 35.6878 6.96022 35.5779C6.85033 35.468 6.7013 35.4062 6.5459 35.4062Z" fill="white"/>
<path d="M2.44434 22.5156H4.20215C4.35755 22.5156 4.50658 22.4539 4.61647 22.344C4.72635 22.2341 4.78809 22.0851 4.78809 21.9297C4.78809 21.7743 4.72635 21.6253 4.61647 21.5154C4.50658 21.4055 4.35755 21.3438 4.20215 21.3438H2.44434C2.28894 21.3438 2.1399 21.4055 2.03002 21.5154C1.92013 21.6253 1.8584 21.7743 1.8584 21.9297C1.8584 22.0851 1.92013 22.2341 2.03002 22.344C2.1399 22.4539 2.28894 22.5156 2.44434 22.5156Z" fill="white"/>
<path d="M31.1553 17.2422C30.9999 17.2422 30.8508 17.3039 30.741 17.4138C30.6311 17.5237 30.5693 17.6727 30.5693 17.8281C30.5693 17.9835 30.6311 18.1326 30.741 18.2424C30.8508 18.3523 30.9999 18.4141 31.1553 18.4141H34.085C34.2404 18.4141 34.3894 18.3523 34.4993 18.2424C34.6092 18.1326 34.6709 17.9835 34.6709 17.8281C34.6709 17.6727 34.6092 17.5237 34.4993 17.4138C34.3894 17.3039 34.2404 17.2422 34.085 17.2422H31.1553Z" fill="white"/>
<path d="M25.2959 31.8906H20.6084C20.453 31.8906 20.304 31.9524 20.1941 32.0622C20.0842 32.1721 20.0225 32.3212 20.0225 32.4766C20.0225 32.632 20.0842 32.781 20.1941 32.8909C20.304 33.0008 20.453 33.0625 20.6084 33.0625H25.2959C25.4513 33.0625 25.6003 33.0008 25.7102 32.8909C25.8201 32.781 25.8818 32.632 25.8818 32.4766C25.8818 32.3212 25.8201 32.1721 25.7102 32.0622C25.6003 31.9524 25.4513 31.8906 25.2959 31.8906Z" fill="white"/>
<path d="M22.9521 34.2344H19.4365C19.2811 34.2344 19.1321 34.2961 19.0222 34.406C18.9123 34.5159 18.8506 34.6649 18.8506 34.8203C18.8506 34.9757 18.9123 35.1247 19.0222 35.2346C19.1321 35.3445 19.2811 35.4062 19.4365 35.4062H22.9521C23.1075 35.4062 23.2566 35.3445 23.3665 35.2346C23.4764 35.1247 23.5381 34.9757 23.5381 34.8203C23.5381 34.6649 23.4764 34.5159 23.3665 34.406C23.2566 34.2961 23.1075 34.2344 22.9521 34.2344Z" fill="white"/>
<path d="M34.6709 25.4453H29.9834C29.828 25.4453 29.679 25.507 29.5691 25.6169C29.4592 25.7268 29.3975 25.8758 29.3975 26.0312C29.3975 26.1867 29.4592 26.3357 29.5691 26.4456C29.679 26.5555 29.828 26.6172 29.9834 26.6172H34.6709C34.8263 26.6172 34.9753 26.5555 35.0852 26.4456C35.1951 26.3357 35.2568 26.1867 35.2568 26.0312C35.2568 25.8758 35.1951 25.7268 35.0852 25.6169C34.9753 25.507 34.8263 25.4453 34.6709 25.4453Z" fill="white"/>
<path d="M33.499 28.9609H28.8115C28.6561 28.9609 28.5071 29.0227 28.3972 29.1326C28.2873 29.2424 28.2256 29.3915 28.2256 29.5469C28.2256 29.7023 28.2873 29.8513 28.3972 29.9612C28.5071 30.0711 28.6561 30.1328 28.8115 30.1328H33.499C33.6544 30.1328 33.8035 30.0711 33.9133 29.9612C34.0232 29.8513 34.085 29.7023 34.085 29.5469C34.085 29.3915 34.0232 29.2424 33.9133 29.1326C33.8035 29.0227 33.6544 28.9609 33.499 28.9609Z" fill="white"/>
<path d="M36.4287 21.9297H32.3271C32.1717 21.9297 32.0227 21.9914 31.9128 22.1013C31.8029 22.2112 31.7412 22.3602 31.7412 22.5156C31.7412 22.671 31.8029 22.8201 31.9128 22.9299C32.0227 23.0398 32.1717 23.1016 32.3271 23.1016H36.4287C36.5841 23.1016 36.7331 23.0398 36.843 22.9299C36.9529 22.8201 37.0146 22.671 37.0146 22.5156C37.0146 22.3602 36.9529 22.2112 36.843 22.1013C36.7331 21.9914 36.5841 21.9297 36.4287 21.9297Z" fill="white"/>
<path d="M25.8442 9.62484L25.4809 9.98812C25.426 10.0426 25.3824 10.1074 25.3527 10.1788C25.3229 10.2502 25.3076 10.3268 25.3076 10.4041C25.3076 10.4815 25.3229 10.5581 25.3527 10.6295C25.3824 10.7009 25.426 10.7657 25.4809 10.8202C25.5907 10.9293 25.7392 10.9905 25.894 10.9905C26.0488 10.9905 26.1973 10.9293 26.3071 10.8202L26.893 10.2342C26.9694 10.1597 27.0239 10.0657 27.0508 9.96244C27.0776 9.85918 27.0758 9.75056 27.0454 9.64827C26.8591 8.95305 26.859 8.22103 27.0452 7.52576C27.2313 6.83049 27.5972 6.19646 28.1059 5.68734L29.3481 4.44515C29.7153 4.07747 30.1944 3.84227 30.7098 3.77651C31.2253 3.71075 31.748 3.81816 32.1958 4.08187L29.7641 6.51937C29.3602 6.96521 29.1431 7.54932 29.1579 8.15077C29.1727 8.75222 29.4183 9.32495 29.8437 9.75036C30.2691 10.1758 30.8418 10.4213 31.4433 10.4361C32.0447 10.4509 32.6288 10.2339 33.0747 9.82992L35.5122 7.39827C35.7759 7.84604 35.8833 8.36876 35.8175 8.88423C35.7518 9.3997 35.5166 9.87871 35.1489 10.2459L33.9067 11.4881C33.4016 11.9919 32.7738 12.3553 32.0854 12.5423C31.3969 12.7293 30.6715 12.7335 29.9809 12.5545C29.8787 12.5242 29.77 12.5223 29.6668 12.5492C29.5635 12.576 29.4695 12.6305 29.395 12.7069L28.8091 13.2928C28.7548 13.3474 28.7119 13.4122 28.6826 13.4835C28.6534 13.5547 28.6385 13.631 28.6388 13.708C28.6391 13.785 28.6545 13.8611 28.6842 13.9322C28.7139 14.0032 28.7574 14.0677 28.812 14.1219C28.8666 14.1762 28.9314 14.2191 29.0026 14.2483C29.0739 14.2775 29.1502 14.2924 29.2271 14.2922C29.3041 14.2919 29.3803 14.2765 29.4513 14.2467C29.5224 14.217 29.5868 14.1736 29.6411 14.119L30.0044 13.7557C30.8534 13.9249 31.7311 13.8824 32.5598 13.632C33.3886 13.3817 34.1429 12.9311 34.7563 12.3201L35.9985 11.078C36.3254 10.7515 36.5847 10.3637 36.7616 9.93693C36.9385 9.51014 37.0296 9.05266 37.0296 8.59066C37.0296 8.12865 36.9385 7.67117 36.7616 7.24438C36.5847 6.81759 36.3254 6.42986 35.9985 6.10335C35.8887 5.99422 35.7402 5.93297 35.5854 5.93297C35.4306 5.93297 35.2821 5.99422 35.1723 6.10335L32.2544 9.0389C32.0345 9.25879 31.7362 9.38232 31.4253 9.38232C31.1143 9.38232 30.8161 9.25879 30.5962 9.0389C30.3763 8.81901 30.2527 8.52077 30.2527 8.2098C30.2527 7.89882 30.3763 7.60059 30.5962 7.3807L33.5259 4.4803C33.5802 4.42555 33.6231 4.36062 33.6523 4.28923C33.6814 4.21785 33.6962 4.1414 33.6958 4.06429C33.6951 3.91057 33.6341 3.76327 33.5259 3.65413C33.1994 3.32726 32.8116 3.06795 32.3848 2.89103C31.958 2.71411 31.5006 2.62305 31.0386 2.62305C30.5765 2.62305 30.1191 2.71411 29.6923 2.89103C29.2655 3.06795 28.8778 3.32726 28.5513 3.65413L27.2798 4.86702C26.6679 5.48101 26.2168 6.23636 25.9664 7.06622C25.716 7.89609 25.674 8.77489 25.8442 9.62484Z" fill="white"/>
</svg>
