<svg width="40" height="34" viewBox="0 0 40 34" fill="none" xmlns="http://www.w3.org/2000/svg">
<path d="M36.2188 25.2682C33.7427 23.4112 31.2667 23.2131 28.8649 24.7916C27.975 25.3441 27.2568 26.1339 26.7909 27.0721C26.3251 28.0104 26.1301 29.0599 26.2279 30.1028C26.2712 31.118 26.3021 31.118 25.2622 31.118C21.6595 31.118 18.0506 31.118 14.4479 31.118C13.9094 31.118 13.7856 31.0251 13.8289 30.437C14.0036 29.2742 13.815 28.0859 13.2887 27.0344C12.7624 25.9829 11.9241 25.1195 10.8886 24.5625C9.94936 23.9711 8.85595 23.6714 7.74647 23.7012C6.63698 23.7309 5.5612 24.0888 4.65504 24.7297C4.41362 24.8906 4.15984 25.0392 3.82557 25.2435C3.63368 22.7674 3.68939 20.3842 5.64549 18.5519C6.16547 18.0628 6.19642 17.8029 5.64549 17.2705C5.3673 16.938 5.01207 16.6785 4.61076 16.5145C4.20944 16.3505 3.77415 16.2871 3.34272 16.3296C2.44514 16.4225 1.52898 16.3296 0.619019 16.3296C0.173325 16.3296 0 16.1934 0 15.7106C0.0495215 14.3178 -0.241396 14.4726 1.18235 14.4726C2.2842 14.4726 3.38603 14.4726 4.48789 14.4726C4.76737 14.4452 5.0493 14.4874 5.30851 14.5954C5.56773 14.7034 5.79619 14.8739 5.97355 15.0916C6.97636 16.3296 8.09061 17.3819 9.89195 16.6267C16.6516 16.6267 23.4134 16.6267 30.1772 16.6267C30.5701 16.597 30.9649 16.6519 31.3348 16.7877C31.4534 16.85 31.5831 16.8881 31.7165 16.9C31.8499 16.912 31.9843 16.8974 32.1121 16.8571C32.2398 16.8168 32.3583 16.7516 32.4608 16.6653C32.5632 16.5791 32.6476 16.4734 32.709 16.3543C33.177 15.6382 33.8486 15.0787 34.6375 14.7477C35.4263 14.4167 36.2962 14.3295 37.135 14.4973C37.8928 14.5654 38.6552 14.5654 39.413 14.4973C39.8711 14.4973 40.032 14.6644 39.9949 15.1163C39.9949 16.5834 40.0753 16.2925 38.8435 16.3172C37.9149 16.3172 36.9864 16.3544 36.0517 16.3172C34.9375 16.2553 34.5722 17.2272 33.9037 17.7781C33.7366 17.9143 33.9037 18.0257 34.0028 18.131C36.2312 20.8051 36.5778 21.9627 36.2188 25.2682ZM33.8789 20.8299C33.5146 20.1011 32.946 19.494 32.2425 19.0829C31.539 18.6718 30.731 18.4744 29.9172 18.5148C26.9769 18.5148 24.0365 18.5148 21.0962 18.5148C17.444 18.5148 13.7979 18.5148 10.1457 18.5148C9.40799 18.4963 8.6775 18.6641 8.02182 19.0028C7.36614 19.3414 6.80643 19.84 6.39448 20.4523C6.12211 20.8299 6.25211 20.9042 6.62971 20.9042H32.5047C32.9637 20.9566 33.4283 20.9315 33.8789 20.8299Z" fill="white"/>
<path d="M14.6584 14.918C12.9871 14.918 11.3219 14.918 9.65055 14.918C9.19247 14.918 8.98201 14.8313 9.03153 14.299C9.08105 13.7666 9.03153 13.1662 9.03153 12.6029C9.06248 11.761 9.44627 11.2967 10.2696 11.2596C10.7648 11.2596 10.8453 11.0429 10.7896 10.6405C10.7338 10.2382 10.9505 9.743 10.6162 9.3654C10.2819 8.9878 10.1272 8.58545 9.71863 9.22923C9.57006 9.46446 9.44008 9.35923 9.26056 9.22923C8.1649 8.23261 8.15872 8.23878 9.19867 7.19883C10.8948 5.50272 12.5971 3.8128 14.2684 2.09812C14.5965 1.76385 14.7079 1.85048 14.9927 2.14142C16.8126 3.99847 18.6449 5.85553 20.502 7.63211C20.8981 8.0221 21.0034 8.2883 20.5329 8.65971C20.3224 8.82684 20.1553 9.04353 19.9572 9.22923C19.7591 9.41494 19.7467 9.49541 19.5425 9.30971C19.3382 9.124 19.2639 8.78968 18.9854 9.02491C18.7068 9.26013 18.3663 9.45825 18.422 9.91014C18.422 10.2506 18.422 10.591 18.422 10.9377C18.422 11.2843 18.4963 11.2905 18.8058 11.2967C19.7715 11.2967 20.18 11.7424 20.1986 12.6895C20.1986 12.9805 20.1986 13.3085 20.1986 13.5747C20.1986 14.9303 20.1986 14.918 18.8739 14.9118C17.5492 14.9056 16.0698 14.918 14.6584 14.918ZM12.5537 8.25113C12.5471 8.52353 12.5951 8.79452 12.6948 9.0481C12.7945 9.30169 12.9439 9.53276 13.1343 9.72773C13.3246 9.92269 13.552 10.0776 13.8032 10.1834C14.0543 10.2891 14.324 10.3435 14.5965 10.3434C15.1393 10.3503 15.6635 10.1453 16.0576 9.77201C16.4518 9.39867 16.6849 8.88642 16.7074 8.344C16.7277 8.06288 16.6906 7.7806 16.5985 7.51423C16.5064 7.24787 16.3611 7.00298 16.1714 6.79449C15.9817 6.586 15.7517 6.41821 15.4952 6.30136C15.2387 6.18451 14.9611 6.12102 14.6794 6.11472C14.3976 6.10842 14.1175 6.15944 13.856 6.26471C13.5946 6.36998 13.3572 6.52736 13.1584 6.72716C12.9596 6.92696 12.8035 7.16505 12.6996 7.42703C12.5956 7.68902 12.546 7.96939 12.5537 8.25113Z" fill="white"/>
<path d="M27.2925 14.9308C26.2155 14.9308 25.1384 14.9308 24.0551 14.9308C23.8869 14.9457 23.7182 14.91 23.5704 14.8284C23.4226 14.7468 23.3026 14.623 23.2256 14.4727C22.5758 13.4829 22.3022 12.2929 22.4544 11.1187C22.6066 9.94441 23.1745 8.8636 24.0551 8.07208C24.279 7.91297 24.455 7.69554 24.5642 7.44346C24.6733 7.19139 24.7113 6.91426 24.6741 6.64211C24.5813 6.09737 24.8474 5.98595 25.3303 6.02309C26.6797 6.05198 28.0292 6.05198 29.3786 6.02309C29.8367 6.02309 30.0719 6.10975 29.9977 6.64211C29.9535 6.89949 29.9844 7.16412 30.0864 7.40447C30.1885 7.64483 30.3575 7.85074 30.5733 7.99773C31.5237 8.78713 32.1401 9.90706 32.2986 11.1323C32.457 12.3576 32.1459 13.5975 31.4276 14.6027C31.3492 14.7255 31.2382 14.8241 31.107 14.8875C30.9759 14.9509 30.8297 14.9766 30.6848 14.9617C29.521 14.9184 28.3944 14.9308 27.2925 14.9308ZM27.3606 13.148C28.1654 13.148 28.9763 13.148 29.781 13.148C29.8981 13.1709 30.0194 13.1484 30.1205 13.0852C30.2216 13.022 30.295 12.9227 30.3258 12.8075C30.4948 12.3445 30.5526 11.8482 30.4946 11.3587C30.4366 10.8692 30.2642 10.4003 29.9916 9.98966C29.7189 9.57902 29.3536 9.23817 28.9249 8.99471C28.4963 8.75126 28.0165 8.61199 27.5242 8.58811C27.0318 8.56423 26.5408 8.65644 26.0907 8.85726C25.6405 9.05809 25.2439 9.3619 24.9328 9.74423C24.6216 10.1266 24.4048 10.5767 24.2996 11.0583C24.1945 11.5399 24.204 12.0394 24.3275 12.5166C24.4513 12.9994 24.637 13.2037 25.1631 13.1356C25.8626 13.1109 26.5992 13.148 27.3297 13.148H27.3606Z" fill="white"/>
<path d="M32.1334 33.9346C31.5827 33.9362 31.0372 33.8284 30.5285 33.6173C30.0199 33.4062 29.5583 33.0961 29.1706 32.705C28.783 32.3139 28.4769 31.8495 28.2704 31.339C28.0638 30.8285 27.9608 30.2821 27.9674 29.7315C27.9556 29.1638 28.0583 28.5995 28.2694 28.0724C28.4804 27.5453 28.7955 27.0661 29.1958 26.6634C29.596 26.2607 30.0733 25.9428 30.5992 25.7285C31.125 25.5143 31.6886 25.4082 32.2563 25.4165C32.8241 25.4248 33.3843 25.5474 33.9036 25.7769C34.4229 26.0065 34.8907 26.3383 35.279 26.7525C35.6673 27.1668 35.9682 27.655 36.1637 28.1881C36.3592 28.7211 36.4454 29.2882 36.417 29.8552C36.4074 30.4055 36.2886 30.9485 36.0674 31.4524C35.8462 31.9564 35.527 32.4113 35.1285 32.7909C34.7299 33.1705 34.2599 33.467 33.7457 33.6634C33.2315 33.8597 32.6835 33.9519 32.1334 33.9346ZM29.7749 29.7253C29.7708 30.0425 29.8298 30.3573 29.9483 30.6515C30.0669 30.9458 30.2427 31.2135 30.4655 31.4392C30.6884 31.665 30.9539 31.8442 31.2466 31.9665C31.5393 32.0888 31.8533 32.1518 32.1705 32.1518C32.8125 32.1522 33.4295 31.9033 33.8914 31.4575C34.3534 31.0117 34.6241 30.4039 34.6466 29.7624C34.6285 29.1188 34.3677 28.5059 33.9165 28.0466C33.4652 27.5874 32.857 27.3157 32.2139 27.2863C31.5689 27.2943 30.9526 27.5536 30.4959 28.0091C30.0393 28.4646 29.7784 29.0804 29.7687 29.7253H29.7749Z" fill="white"/>
<path d="M7.9296 33.9345C7.37645 33.9427 6.82716 33.8411 6.31351 33.6357C5.79987 33.4302 5.3321 33.125 4.93719 32.7375C4.54229 32.3501 4.22811 31.8883 4.01286 31.3787C3.79761 30.869 3.68553 30.3218 3.68314 29.7686C3.68314 28.6489 4.12794 27.5751 4.91966 26.7833C5.71139 25.9916 6.78518 25.5469 7.90485 25.5469C9.02452 25.5469 10.0983 25.9916 10.89 26.7833C11.6818 27.5751 12.1266 28.6489 12.1266 29.7686C12.1299 30.3192 12.0234 30.865 11.8133 31.374C11.6032 31.883 11.2937 32.3449 10.9028 32.7328C10.512 33.1208 10.0478 33.4268 9.53729 33.6332C9.02677 33.8395 8.48019 33.942 7.9296 33.9345ZM7.86771 32.1271C8.5033 32.1454 9.12038 31.9116 9.58426 31.4767C10.0481 31.0419 10.3212 30.4412 10.3438 29.8057C10.3443 29.1658 10.0971 28.5506 9.65393 28.089C9.21078 27.6274 8.60615 27.3552 7.96678 27.3297C7.32894 27.329 6.71544 27.5745 6.25416 28.015C5.79288 28.4555 5.5194 29.0571 5.4907 29.6943C5.4798 30.012 5.5334 30.3286 5.64829 30.625C5.76317 30.9214 5.93693 31.1914 6.1591 31.4188C6.38126 31.6462 6.64722 31.8262 6.94088 31.9479C7.23455 32.0696 7.54984 32.1306 7.86771 32.1271Z" fill="white"/>
<path d="M8.90766 1.16416C9.00616 0.994648 9.11796 0.833181 9.24195 0.681311C9.51432 0.408942 9.75573 0.0189693 10.1643 0.613228C10.3995 0.959878 10.7338 0.7989 11.0185 0.501771C11.2661 0.251138 11.5887 0.0883229 11.9374 0.0380356C12.2861 -0.0122518 12.6416 0.0527749 12.9499 0.223243C13.2099 0.390378 13.3956 0.538942 13.0613 0.842262C11.6623 2.21029 10.2881 3.60306 8.90766 4.98966C8.36292 5.5344 7.81199 6.07915 7.27964 6.63627C7.04441 6.89007 6.90825 6.85914 6.72874 6.58058C6.53012 6.24066 6.44465 5.84641 6.4847 5.45476C6.52476 5.0631 6.68826 4.6943 6.95158 4.40162C7.2487 4.07973 7.32299 3.87544 6.95158 3.60926C6.58016 3.34308 6.82158 3.10167 7.02586 2.92216C7.46536 2.53837 7.57678 2.1917 7.02586 1.82648C6.7473 1.64697 6.85872 1.47367 7.02586 1.31272C7.11908 1.23297 7.20793 1.14823 7.29203 1.0589C8.02866 0.29132 8.02246 0.291347 8.90766 1.16416Z" fill="white"/>
<path d="M17.1965 0.0247849C17.5185 -0.00226071 17.8389 0.0927096 18.094 0.290921C18.515 0.631381 18.8554 0.990391 19.3754 0.346611C19.6107 0.0618626 19.8892 0.544752 20.0378 0.711887C20.3287 1.04616 20.4958 1.15758 20.7868 0.711887C21.0777 0.266193 21.3315 0.297144 21.6348 0.711887C21.7951 0.92892 21.9847 1.12262 22.1982 1.28753C22.4891 1.51038 22.5015 1.6899 22.1982 1.90655C21.7586 2.20987 21.7463 2.52561 22.1982 2.87226C22.65 3.21891 22.7243 3.42933 22.2353 3.75122C21.8639 3.99263 22.1053 4.16596 22.2972 4.37024C22.5592 4.66205 22.7271 5.02611 22.779 5.41483C22.8309 5.80355 22.7644 6.19886 22.5881 6.5492C22.4396 6.81537 22.3343 6.97635 22.0124 6.65446C20.1554 4.7974 18.2983 2.94034 16.4722 1.08328C16.2865 0.903768 15.9584 0.588035 16.008 0.507562C16.0979 0.362221 16.2212 0.240374 16.3676 0.15211C16.514 0.0638461 16.6793 0.0117336 16.8498 0L17.1965 0.0247849Z" fill="white"/>
</svg>
