<svg width="39" height="38" viewBox="0 0 39 38" fill="none" xmlns="http://www.w3.org/2000/svg">
<g clip-path="url(#clip0)">
<path d="M37.5933 15.4844V2.59375C37.5933 1.62461 36.7955 0.835938 35.8151 0.835938H13.2905C12.3101 0.835938 11.5123 1.62461 11.5123 2.59375V5.54395C11.3066 5.53047 11.1116 5.52344 10.9195 5.52344C5.36309 5.52344 0.842773 9.9918 0.842773 15.4844C0.842773 20.1684 4.13432 24.0971 8.54853 25.1553V27.2031C8.54853 27.5178 8.63922 27.809 8.78623 28.065C8.28891 28.3768 7.95578 28.9229 7.95578 29.5469V34.2344C7.95578 35.8498 9.28532 37.1641 10.9195 37.1641C12.5537 37.1641 13.8833 35.8498 13.8833 34.2344V29.5469C13.8833 28.9229 13.5502 28.3768 13.0528 28.065C13.1998 27.809 13.2905 27.5178 13.2905 27.2031V25.1553C15.6936 24.5775 17.7753 23.1467 19.1665 21.1832L19.6057 22.027C19.3911 22.4424 19.2086 22.8795 19.061 23.333L17.4398 23.8463V28.2168L19.0604 28.7301C19.208 29.1842 19.3905 29.6213 19.6051 30.0361L18.8274 31.5297L21.9536 34.6199L23.4645 33.8512C23.8848 34.0633 24.327 34.2438 24.7858 34.3896L25.3062 35.9922H29.7275L30.2468 34.3902C30.7056 34.2443 31.1483 34.0639 31.568 33.8518L33.0789 34.6205L36.2045 31.5303L35.4274 30.0367C35.642 29.6219 35.8246 29.1842 35.9721 28.7307L37.5933 28.2162V23.8457L35.9727 23.3324C35.8251 22.8795 35.6426 22.4412 35.428 22.0264L36.2051 20.5328L33.0795 17.4426L31.5686 18.2113C31.1477 17.9986 30.7056 17.8188 30.2474 17.6729L30.1069 17.2422H35.8151C36.7955 17.2422 37.5933 16.4535 37.5933 15.4844ZM13.2905 17.2422H17.1825C16.4001 19.9955 13.872 21.9297 10.9195 21.9297C7.3245 21.9297 4.39928 19.0381 4.39928 15.4844C4.39928 11.9307 7.3245 9.03906 10.9195 9.03906C11.1092 9.03906 11.3072 9.05195 11.5123 9.07246V15.4844C11.5123 16.4535 12.3101 17.2422 13.2905 17.2422ZM12.6978 34.2344C12.6978 35.2035 11.8999 35.9922 10.9195 35.9922C9.93913 35.9922 9.14128 35.2035 9.14128 34.2344V29.5469C9.14128 29.2234 9.40684 28.9609 9.73403 28.9609H10.3268H11.5123H12.105C12.4322 28.9609 12.6978 29.2234 12.6978 29.5469V34.2344ZM12.105 27.2031C12.105 27.5266 11.8395 27.7891 11.5123 27.7891H10.3268C9.99959 27.7891 9.73403 27.5266 9.73403 27.2031V25.3703C10.1235 25.4154 10.5177 25.4453 10.9195 25.4453C11.3208 25.4453 11.715 25.4137 12.105 25.368V27.2031ZM10.9195 24.2734C6.01689 24.2734 2.02827 20.3307 2.02827 15.4844C2.02827 10.6381 6.01689 6.69531 10.9195 6.69531C11.1074 6.69531 11.3048 6.70469 11.5123 6.72051V7.89355C11.3096 7.87715 11.1122 7.86719 10.9195 7.86719C6.6707 7.86719 3.21378 11.2844 3.21378 15.4844C3.21378 19.6844 6.6707 23.1016 10.9195 23.1016C14.5217 23.1016 17.5898 20.6646 18.4048 17.2422H19.6182C18.7865 21.2934 15.1624 24.2734 10.9195 24.2734ZM20.8197 17.2422H24.9256L24.7863 17.6723C24.3281 17.8182 23.8854 17.998 23.4651 18.2107L21.9542 17.442L20.3028 19.0744C20.5322 18.4896 20.7053 17.8773 20.8197 17.2422ZM29.309 18.6227L29.6155 18.7082C30.2011 18.8717 30.7589 19.099 31.2734 19.3838L31.5508 19.5373L32.8519 18.8758L34.7552 20.7572L34.086 22.0428L34.2413 22.3176C34.5294 22.8256 34.7594 23.3775 34.9248 23.9564L35.0113 24.2594L36.4078 24.7006V27.3613L35.0113 27.8031L34.9248 28.1061C34.7588 28.6861 34.5288 29.2375 34.2419 29.7449L34.086 30.0191L34.7552 31.3053L32.8519 33.1873L31.5514 32.5252L31.2734 32.6787C30.7595 32.9629 30.2017 33.1908 29.6155 33.3549L29.309 33.4404L28.8627 34.8203H26.171L25.7241 33.4398L25.4176 33.3543C24.8308 33.1902 24.273 32.9629 23.7597 32.6793L23.4823 32.5252L22.1812 33.1873L20.2773 31.3053L20.9471 30.0191L20.7912 29.7449C20.5043 29.2381 20.2743 28.6867 20.1078 28.1061L20.0212 27.8031L18.6253 27.3619V24.7012L20.0218 24.2594L20.1084 23.9564C20.2743 23.3764 20.5043 22.825 20.7912 22.3176L20.9471 22.0434L20.2773 20.7572L22.1812 18.8758L23.4823 19.5373L23.7597 19.3838C24.2742 19.099 24.832 18.8711 25.4176 18.7082L25.7241 18.6227L26.1704 17.2422H28.8621L29.309 18.6227ZM25.3062 16.0703H13.2905C12.9633 16.0703 12.6978 15.8072 12.6978 15.4844V2.59375C12.6978 2.2709 12.9633 2.00781 13.2905 2.00781H35.8151C36.1423 2.00781 36.4078 2.2709 36.4078 2.59375V15.4844C36.4078 15.8072 36.1423 16.0703 35.8151 16.0703H29.7269H25.3062Z" fill="white"/>
<path d="M32.2571 3.17969C30.6229 3.17969 29.2934 4.49395 29.2934 6.10938C29.2934 6.4375 29.3609 6.74805 29.4617 7.04277L26.8263 8.5627C26.3966 8.13379 25.8015 7.86719 25.1441 7.86719C24.5727 7.86719 24.0552 8.07578 23.6456 8.40977L20.8247 6.38184C20.9314 6.11523 20.9948 5.82695 20.9948 5.52344C20.9948 4.23086 19.9315 3.17969 18.6238 3.17969C17.3162 3.17969 16.2528 4.23086 16.2528 5.52344C16.2528 6.30801 16.6482 7 17.2487 7.42539L15.7069 11.3875C15.6909 11.3869 15.6761 11.3828 15.6601 11.3828C14.6797 11.3828 13.8818 12.1715 13.8818 13.1406C13.8818 14.1098 14.6797 14.8984 15.6601 14.8984C16.6405 14.8984 17.4383 14.1098 17.4383 13.1406C17.4383 12.6074 17.1923 12.1352 16.8118 11.8123L18.3577 7.84023C18.446 7.85078 18.5326 7.86719 18.6238 7.86719C19.1953 7.86719 19.7121 7.65859 20.1223 7.32461L22.9432 9.35254C22.8365 9.61914 22.7731 9.90742 22.7731 10.2109C22.7731 11.5035 23.8365 12.5547 25.1441 12.5547C26.4517 12.5547 27.5151 11.5035 27.5151 10.2109C27.5151 9.99062 27.4742 9.78145 27.4167 9.57871L30.0586 8.05527C30.6016 8.6541 31.3816 9.03906 32.2571 9.03906C33.8913 9.03906 35.2209 7.7248 35.2209 6.10938C35.2209 4.49395 33.8913 3.17969 32.2571 3.17969ZM15.6601 13.7266C15.3329 13.7266 15.0673 13.4635 15.0673 13.1406C15.0673 12.8178 15.3329 12.5547 15.6601 12.5547C15.9873 12.5547 16.2528 12.8178 16.2528 13.1406C16.2528 13.4635 15.9873 13.7266 15.6601 13.7266ZM18.6238 6.69531C17.97 6.69531 17.4383 6.16973 17.4383 5.52344C17.4383 4.87715 17.97 4.35156 18.6238 4.35156C19.2776 4.35156 19.8093 4.87715 19.8093 5.52344C19.8093 6.16973 19.2776 6.69531 18.6238 6.69531ZM25.1441 11.3828C24.4903 11.3828 23.9586 10.8572 23.9586 10.2109C23.9586 9.56465 24.4903 9.03906 25.1441 9.03906C25.7979 9.03906 26.3296 9.56465 26.3296 10.2109C26.3296 10.8572 25.7979 11.3828 25.1441 11.3828ZM32.2571 7.86719C31.2767 7.86719 30.4789 7.07852 30.4789 6.10938C30.4789 5.14023 31.2767 4.35156 32.2571 4.35156C33.2375 4.35156 34.0354 5.14023 34.0354 6.10938C34.0354 7.07852 33.2375 7.86719 32.2571 7.86719Z" fill="white"/>
<path d="M29.2959 13.7266H30.4814V14.8984H29.2959V13.7266Z" fill="white"/>
<path d="M31.667 13.7266H32.8525V14.8984H31.667V13.7266Z" fill="white"/>
<path d="M34.0381 13.7266H35.2236V14.8984H34.0381V13.7266Z" fill="white"/>
<path d="M29.2959 11.3828H35.2234V12.5547H29.2959V11.3828Z" fill="white"/>
<path d="M6.76949 15.4844H5.58398C5.58398 18.3918 7.97692 20.7578 10.9187 20.7578V19.5859C8.63132 19.5859 6.76949 17.7461 6.76949 15.4844Z" fill="white"/>
<path d="M31.6639 26.0312H30.4784C30.4784 27.6467 29.1489 28.9609 27.5146 28.9609V30.1328C29.8021 30.1328 31.6639 28.2924 31.6639 26.0312Z" fill="white"/>
<path d="M20.9951 26.0312C20.9951 29.585 23.9203 32.4766 27.5154 32.4766C31.1104 32.4766 34.0356 29.585 34.0356 26.0312C34.0356 22.4775 31.1104 19.5859 27.5154 19.5859C23.9203 19.5859 20.9951 22.4775 20.9951 26.0312ZM27.5154 20.7578C30.4572 20.7578 32.8501 23.1232 32.8501 26.0312C32.8501 28.9393 30.4572 31.3047 27.5154 31.3047C24.5736 31.3047 22.1806 28.9393 22.1806 26.0312C22.1806 23.1232 24.5736 20.7578 27.5154 20.7578Z" fill="white"/>
</g>
<defs>
<clipPath id="clip0">
<rect width="37.936" height="37.5" fill="white" transform="translate(0.25 0.25)"/>
</clipPath>
</defs>
</svg>
