<svg width="22" height="22" viewBox="0 0 22 22" fill="none" xmlns="http://www.w3.org/2000/svg">
<path d="M21.989 7.24923L21.0664 12.7609C20.9526 13.3697 20.4868 13.7399 19.9496 13.7469H6.49917L6.23212 15.3144H19.0513C19.7263 15.3678 20.1841 15.8658 20.1924 16.5026C20.1433 17.2041 19.6651 17.6822 19.0513 17.6909H4.8725C4.10568 17.6191 3.64842 16.9826 3.7314 16.2751L4.33836 12.8367L3.41577 3.17866L0.793685 2.3191C0.152916 2.05417 -0.108609 1.45053 0.0410464 0.827426C0.289885 0.178029 0.88614 -0.118672 1.47348 0.0436632L4.82394 1.15611C5.27531 1.3323 5.53496 1.71705 5.60085 2.16742L5.79507 4.0889L20.9935 5.85868C21.6918 6.01621 22.0709 6.59222 21.989 7.24923ZM8.34665 20.186C8.34665 21.1878 7.56675 22 6.60466 22C5.64258 22 4.86268 21.1878 4.86268 20.186C4.86268 19.1841 5.6426 18.3719 6.60466 18.3719C7.56673 18.3719 8.34665 19.1841 8.34665 20.186ZM18.7463 20.186C18.7463 21.1878 17.9664 22 17.0043 22C16.0422 22 15.2623 21.1878 15.2623 20.186C15.2623 19.1841 16.0422 18.3719 17.0043 18.3719C17.9664 18.3719 18.7463 19.1841 18.7463 20.186Z" fill="#3083FF"/>
</svg>
