<svg width="20" height="22" viewBox="0 0 20 22" fill="none" xmlns="http://www.w3.org/2000/svg">
<path d="M7.954 1.21021C9.30293 0.927349 10.6958 0.926668 12.045 1.20821C12.1349 1.8015 12.3573 2.3669 12.6958 2.86239C13.0342 3.35788 13.48 3.77072 14 4.07021C14.5196 4.37075 15.1002 4.55028 15.6987 4.59547C16.2972 4.64065 16.8982 4.55033 17.457 4.33121C18.3753 5.35928 19.0709 6.56625 19.5 7.87622C19.0313 8.25079 18.6531 8.72616 18.3934 9.26701C18.1337 9.80785 17.9993 10.4003 18 11.0002C17.9993 11.6004 18.134 12.193 18.394 12.7338C18.6541 13.2747 19.0328 13.75 19.502 14.1242C19.0703 15.4331 18.3739 16.6391 17.456 17.6672C16.8973 17.4483 16.2965 17.358 15.6982 17.4032C15.0999 17.4484 14.5194 17.6278 14 17.9282C13.4805 18.2276 13.035 18.6402 12.6967 19.1353C12.3585 19.6304 12.1361 20.1954 12.046 20.7882C10.6972 21.0717 9.30434 21.0731 7.955 20.7922C7.86555 20.1984 7.64331 19.6324 7.30482 19.1364C6.96634 18.6403 6.52033 18.227 6 17.9272C5.48036 17.6268 4.8997 17.4475 4.30119 17.4025C3.70268 17.3575 3.10172 17.448 2.543 17.6672C1.6246 16.6389 0.929005 15.4315 0.5 14.1212C0.968393 13.7468 1.34646 13.2718 1.60613 12.7313C1.86581 12.1909 2.00043 11.5988 2 10.9992C2.00049 10.3991 1.86571 9.80658 1.60567 9.26573C1.34563 8.72488 0.967024 8.24959 0.498 7.87522C0.929669 6.56634 1.62612 5.36032 2.544 4.33221C3.10265 4.55117 3.70347 4.64141 4.30179 4.59623C4.90012 4.55104 5.48057 4.37159 6 4.07121C6.51955 3.77181 6.96499 3.35924 7.30326 2.86412C7.64153 2.369 7.86395 1.80406 7.954 1.21121V1.21021ZM10 14.0002C10.7956 14.0002 11.5587 13.6841 12.1213 13.1215C12.6839 12.5589 13 11.7959 13 11.0002C13 10.2046 12.6839 9.4415 12.1213 8.87889C11.5587 8.31629 10.7956 8.00022 10 8.00022C9.20435 8.00022 8.44129 8.31629 7.87868 8.87889C7.31607 9.4415 7 10.2046 7 11.0002C7 11.7959 7.31607 12.5589 7.87868 13.1215C8.44129 13.6841 9.20435 14.0002 10 14.0002Z" fill="#3083FF"/>
</svg>
