<svg width="30" height="23" viewBox="0 0 30 23" fill="none" xmlns="http://www.w3.org/2000/svg">
<g clip-path="url(#clip0)">
<path d="M0 0H30V22.5H0V0Z" fill="#ED0202"/>
<path d="M3.59998 8.325L5.62496 2.25L7.64994 8.325L2.25 4.6125H8.99992L3.59998 8.325Z" fill="#FFDE00"/>
<path d="M12.3827 2.36613L10.2987 2.82795L11.6888 1.20811L11.5525 3.3882L10.396 1.45816L12.3827 2.36613Z" fill="#FFDE00"/>
<path d="M14.4862 5.0325L12.3862 4.64992L14.2957 3.696L13.3245 5.65258L13.0071 3.42508L14.4862 5.0325Z" fill="#FFDE00"/>
<path d="M14.18 8.77064L12.4187 7.56485L14.5512 7.47267L12.8665 8.86302L13.4852 6.69975L14.18 8.77064Z" fill="#FFDE00"/>
<path d="M11.53 11.2151L10.3711 9.42255L12.3737 10.1612L10.2827 10.7929L11.6889 9.03648L11.53 11.2151Z" fill="#FFDE00"/>
</g>
<defs>
<clipPath id="clip0">
<rect width="30" height="22.5" fill="white"/>
</clipPath>
</defs>
</svg>
