<svg width="30" height="23" viewBox="0 0 30 23" fill="none" xmlns="http://www.w3.org/2000/svg">
<g clip-path="url(#clip0)">
<path fill-rule="evenodd" clip-rule="evenodd" d="M0 0H42.75V1.73145H0V0ZM0 3.46289H42.75V5.19434H0V3.46289ZM0 6.92139H42.75V8.65723H0V6.92139ZM0 10.3843H42.75V12.1157H0V10.3843ZM0 13.8472H42.75V15.5786H0V13.8472ZM0 17.3057H42.75V19.0371H0V17.3057ZM0 20.7686H42.75V22.5H0V20.7686Z" fill="#ED0202"/>
<path fill-rule="evenodd" clip-rule="evenodd" d="M0 1.73242H42.75V3.46387H0V1.73242ZM0 5.19531H42.75V6.92236H0V5.19531ZM0 8.65381H42.75V10.3853H0V8.65381ZM0 12.1167H42.75V13.8481H0V12.1167ZM0 15.5796H42.75V17.311H0V15.5796ZM0 19.0381H42.75V20.7695H0V19.0381Z" fill="white"/>
<path fill-rule="evenodd" clip-rule="evenodd" d="M0 0H17.0991V12.1157H0V0Z" fill="#192F5D"/>
<path fill-rule="evenodd" clip-rule="evenodd" d="M1.4248 0.519531L1.58301 0.998535H2.08398L1.67969 1.29297L1.8335 1.77637L1.4248 1.47754L1.02051 1.77197L1.17432 1.29297L0.765625 0.998535H1.27539L1.4248 0.519531ZM4.27686 0.519531L4.43066 0.998535H4.93604L4.52734 1.29297L4.68115 1.77637L4.27686 1.47754L3.86816 1.77197L4.02197 1.29297L3.61768 0.998535H4.11865L4.27686 0.519531ZM7.12451 0.519531L7.28272 0.998535H7.7793L7.375 1.29297L7.52881 1.77637L7.12012 1.47754L6.71582 1.77197L6.86963 1.29297L6.46094 0.998535H6.96631L7.12451 0.519531ZM9.97656 0.519531L10.1304 0.998535H10.6357L10.2271 1.29297L10.3853 1.77637L9.97656 1.47754L9.56787 1.77197L9.72608 1.29297L9.31738 0.998535H9.81836L9.97656 0.519531ZM12.8242 0.519531L12.9824 0.998535H13.4834L13.0791 1.29297L13.2329 1.77637L12.8242 1.47754L12.4199 1.77197L12.5737 1.29297L12.1694 0.998535H12.6704L12.8242 0.519531ZM15.6763 0.519531L15.8301 0.998535H16.3355L15.9268 1.29297L16.085 1.77637L15.6763 1.47754L15.2676 1.77197L15.4258 1.29297L15.0171 0.998535H15.5225L15.6763 0.519531ZM2.85303 1.73242L3.00684 2.21142H3.51221L3.10352 2.50586L3.25293 2.98486L2.85742 2.69043L2.44873 2.98486L2.59375 2.50586L2.19824 2.21142H2.69922L2.85303 1.73242ZM5.70068 1.73242L5.85889 2.21142H6.35986L5.95117 2.50586L6.10938 2.98486L5.70068 2.69043L5.29199 2.98486L5.4502 2.50586L5.0415 2.21142H5.54688L5.70068 1.73242ZM8.55274 1.73242L8.70654 2.21142H9.21192L8.80322 2.50586L8.95703 2.98486L8.55274 2.69043L8.14404 2.98486L8.29785 2.50586L7.89356 2.21142H8.39453L8.55274 1.73242ZM11.4004 1.73242L11.5586 2.21142H12.0596L11.6509 2.50586L11.8091 2.98486L11.4004 2.69043L10.9961 2.98486L11.1499 2.50586L10.7412 2.21142H11.251L11.4004 1.73242ZM14.2524 1.73242L14.4063 2.21142H14.9116L14.5029 2.50586L14.6567 2.98486L14.2524 2.69043L13.8438 2.98486L13.9976 2.50586L13.5933 2.21142H14.0942L14.2524 1.73242ZM1.4248 2.94092L1.58301 3.42871H2.08398L1.67969 3.72314L1.8335 4.20215L1.4248 3.90332L1.02051 4.20215L1.17432 3.71875L0.765625 3.42431H1.27539L1.4248 2.94092ZM4.27686 2.94092L4.43066 3.42431H4.93604L4.52734 3.71875L4.68115 4.19775L4.27686 3.89892L3.86816 4.19775L4.02197 3.71435L3.61768 3.41992H4.11865L4.27686 2.94092ZM7.12451 2.94092L7.28272 3.42431H7.7793L7.375 3.71875L7.52881 4.19775L7.12012 3.89892L6.71582 4.19775L6.86963 3.71435L6.46094 3.41992H6.96631L7.12451 2.94092ZM9.97656 2.94092L10.1304 3.42431H10.6357L10.2271 3.71875L10.3853 4.19775L9.97656 3.89892L9.56787 4.19775L9.72608 3.71435L9.31738 3.41992H9.81836L9.97656 2.94092ZM12.8242 2.94092L12.9824 3.42431H13.4834L13.0791 3.71875L13.2329 4.19775L12.8242 3.89892L12.4199 4.19775L12.5737 3.71435L12.1694 3.41992H12.6704L12.8242 2.94092ZM15.6763 2.94092L15.8301 3.42431H16.3355L15.9268 3.71875L16.085 4.19775L15.6763 3.89892L15.2676 4.19775L15.4258 3.71435L15.0171 3.41992H15.5225L15.6763 2.94092ZM2.85303 4.15381L3.00684 4.63281H3.51221L3.10352 4.92724L3.25732 5.41064L2.85303 5.11181L2.44434 5.40625L2.59814 4.92724L2.19385 4.63281H2.69482L2.85303 4.15381ZM5.70068 4.15381L5.85889 4.63281H6.35986L5.95117 4.92724L6.10938 5.41064L5.70068 5.11181L5.29199 5.40625L5.4502 4.92724L5.0415 4.63281H5.54688L5.70068 4.15381ZM8.55274 4.15381L8.70654 4.63281H9.21192L8.80322 4.92724L8.95703 5.41064L8.55274 5.11181L8.14404 5.40625L8.29785 4.92724L7.89356 4.63281H8.39453L8.55274 4.15381ZM11.4004 4.15381L11.5586 4.63281H12.0596L11.6553 4.92724L11.8091 5.41064L11.4004 5.11181L10.9961 5.40625L11.1499 4.92724L10.7412 4.63281H11.251L11.4004 4.15381ZM14.2524 4.15381L14.4063 4.63281H14.9116L14.5029 4.92724L14.6567 5.41064L14.2524 5.11181L13.8438 5.40625L13.9976 4.92724L13.5933 4.63281H14.0942L14.2524 4.15381ZM1.4248 5.3667L1.58301 5.8457H2.08398L1.67969 6.14013L1.8335 6.62353L1.4248 6.3247L1.02051 6.61914L1.17432 6.14013L0.765625 5.8457H1.27539L1.4248 5.3667ZM4.27686 5.3667L4.43066 5.8457H4.93604L4.52734 6.14013L4.68115 6.61914L4.27686 6.3247L3.86816 6.61914L4.02197 6.14013L3.61768 5.8457H4.11865L4.27686 5.3667ZM7.12451 5.3667L7.28272 5.8457H7.7793L7.375 6.14013L7.52881 6.62353L7.12012 6.3247L6.71582 6.61914L6.86963 6.14013L6.46094 5.8457H6.96631L7.12451 5.3667ZM9.97656 5.3667L10.1304 5.8457H10.6357L10.2271 6.14013L10.3853 6.62353L9.97656 6.3247L9.56787 6.61914L9.72608 6.14013L9.31738 5.8457H9.81836L9.97656 5.3667ZM12.8242 5.3667L12.9824 5.8457H13.4834L13.0791 6.14013L13.2329 6.62353L12.8242 6.3247L12.4199 6.61914L12.5737 6.14013L12.1694 5.8457H12.6704L12.8242 5.3667ZM15.6763 5.3667L15.8301 5.8457H16.3355L15.9268 6.14013L16.085 6.62353L15.6763 6.3247L15.2676 6.61914L15.4258 6.14013L15.0171 5.8457H15.5225L15.6763 5.3667ZM2.85303 6.57959L3.00684 7.05859H3.51221L3.10352 7.35302L3.25732 7.83203L2.85303 7.5332L2.44434 7.83203L2.59814 7.34863L2.19385 7.0542H2.69482L2.85303 6.57959ZM5.70068 6.57959L5.85889 7.05859H6.35986L5.95117 7.35302L6.10938 7.83203L5.70068 7.5332L5.29199 7.83203L5.4502 7.34863L5.0415 7.0542H5.54688L5.70068 6.57959ZM8.55274 6.57959L8.70654 7.05859H9.21192L8.80322 7.35302L8.95703 7.83203L8.55274 7.5332L8.14404 7.83203L8.29785 7.34863L7.89356 7.0542H8.39453L8.55274 6.57959ZM11.4004 6.57959L11.5586 7.05859H12.0596L11.6553 7.35302L11.8091 7.83203L11.4004 7.5332L10.9961 7.83203L11.1499 7.34863L10.7412 7.0542H11.251L11.4004 6.57959ZM14.2524 6.57959L14.4063 7.05859H14.9116L14.5029 7.35302L14.6567 7.83203L14.2524 7.5332L13.8438 7.83203L13.9976 7.34863L13.5933 7.0542H14.0942L14.2524 6.57959ZM1.4248 7.78808L1.58301 8.27148H2.08398L1.67969 8.56591L1.8335 9.04052L1.4248 8.74609L1.02051 9.04052L1.17432 8.56152L0.765625 8.26709H1.27539L1.4248 7.78808ZM4.27686 7.78808L4.43066 8.27148H4.93604L4.52734 8.56591L4.68555 9.04052L4.27686 8.74609L3.86816 9.04052L4.02637 8.56152L3.61768 8.26709H4.11865L4.27686 7.78808ZM7.12451 7.78808L7.28272 8.27148H7.7793L7.375 8.56591L7.52881 9.04052L7.12012 8.74609L6.71582 9.04052L6.86963 8.56152L6.46094 8.26709H6.96631L7.12451 7.78808ZM9.97656 7.78808L10.1304 8.27148H10.6357L10.2271 8.56591L10.3853 9.04052L9.97656 8.74609L9.56787 9.04052L9.72608 8.56152L9.31738 8.26709H9.81836L9.97656 7.78808ZM12.8242 7.78808L12.9824 8.27148H13.4834L13.0791 8.56591L13.2329 9.04052L12.8242 8.74609L12.4199 9.04052L12.5737 8.56152L12.1694 8.26709H12.6704L12.8242 7.78808ZM15.6763 7.78808L15.8301 8.27148H16.3355L15.9268 8.56591L16.085 9.04052L15.6763 8.74609L15.2676 9.04052L15.4258 8.56152L15.0171 8.26709H15.5225L15.6763 7.78808ZM2.85303 9.00097L3.00684 9.47998H3.51221L3.10352 9.77441L3.25732 10.2578L2.85303 9.95898L2.44434 10.2534L2.59814 9.77441L2.19385 9.47998H2.69482L2.85303 9.00097ZM5.70068 9.00097L5.85889 9.47998H6.35986L5.95117 9.77441L6.10938 10.2578L5.70068 9.95898L5.29199 10.2534L5.4502 9.77441L5.0415 9.47998H5.54688L5.70068 9.00097ZM8.55274 9.00097L8.70654 9.47998H9.21192L8.80322 9.77441L8.95703 10.2578L8.55274 9.95898L8.14404 10.2534L8.29785 9.77441L7.89356 9.47998H8.39453L8.55274 9.00097ZM11.4004 9.00097L11.5586 9.47998H12.0596L11.6553 9.77441L11.8091 10.2578L11.4004 9.95898L10.9961 10.2534L11.1499 9.77441L10.7412 9.47998H11.251L11.4004 9.00097ZM14.2524 9.00097L14.4063 9.47998H14.9116L14.5029 9.77441L14.6567 10.2578L14.2524 9.95898L13.8438 10.2534L13.9976 9.77441L13.5933 9.47998H14.0942L14.2524 9.00097ZM1.4248 10.2139L1.58301 10.6929H2.08398L1.67969 10.9873L1.8335 11.4663L1.4248 11.1719L1.02051 11.4663L1.17432 10.9829L0.765625 10.6885H1.27539L1.4248 10.2139ZM4.27686 10.2139L4.43066 10.6929H4.93604L4.52734 10.9873L4.68555 11.4663L4.27686 11.1719L3.86816 11.4663L4.02637 10.9829L3.61768 10.6885H4.11865L4.27686 10.2139ZM7.12451 10.2139L7.28272 10.6929H7.7793L7.38379 10.9873L7.5376 11.4663L7.12891 11.1719L6.72461 11.4663L6.87842 10.9829L6.46973 10.6885H6.9751L7.12451 10.2139ZM9.97656 10.2139L10.1304 10.6929H10.6357L10.2271 10.9873L10.3853 11.4663L9.97656 11.1719L9.56787 11.4663L9.72608 10.9829L9.31738 10.6885H9.81836L9.97656 10.2139ZM12.8242 10.2139L12.9824 10.6929H13.4834L13.0791 10.9873L13.2329 11.4663L12.8242 11.1719L12.4199 11.4663L12.5737 10.9829L12.1694 10.6885H12.6704L12.8242 10.2139ZM15.6763 10.2139L15.8301 10.6929H16.3355L15.9268 10.9873L16.085 11.4663L15.6763 11.1719L15.2676 11.4663L15.4258 10.9829L15.0171 10.6885H15.5225L15.6763 10.2139Z" fill="white"/>
</g>
<defs>
<clipPath id="clip0">
<rect width="30" height="22.5" fill="white"/>
</clipPath>
</defs>
</svg>
