<svg width="30" height="23" viewBox="0 0 30 23" fill="none" xmlns="http://www.w3.org/2000/svg">
<path fill-rule="evenodd" clip-rule="evenodd" d="M0 0H45.0048V14.9458H0V0Z" fill="#ED0202"/>
<path fill-rule="evenodd" clip-rule="evenodd" d="M0 14.9453H45.0048V22.4995H0V14.9453Z" fill="#429F00"/>
<path fill-rule="evenodd" clip-rule="evenodd" d="M0 0H4.98393V22.5H0V0Z" fill="white"/>
<path fill-rule="evenodd" clip-rule="evenodd" d="M0.238281 0.382324H0.475611V0.764648H0.238281V0.382324ZM0.950271 0.382324H1.66226V0.764648H0.950271V0.382324ZM1.1876 0H1.42493V0.382324H1.1876V0ZM2.37425 0H2.61158V0.382324H2.37425V0ZM3.32357 0.382324H4.03556V0.764648H3.32357V0.382324ZM3.5609 0H3.79823V0.382324H3.5609V0ZM0.712941 0.764648H1.1876V1.14258H0.712941V0.764648ZM1.42493 0.764648H1.89959V1.14258H1.42493V0.764648ZM3.08624 0.764648H3.5609V1.14258H3.08624V0.764648ZM3.79823 0.764648H4.27289V1.14258H3.79823V0.764648ZM0.475611 1.14258H0.950271V1.5249H0.475611V1.14258ZM1.66226 1.14258H2.13692V1.5249H1.66226V1.14258ZM2.84891 1.14258H3.32357V1.5249H2.84891V1.14258ZM4.03556 1.14258H4.51022V1.5249H4.03556V1.14258ZM4.51022 0.382324H4.74755V0.764648H4.51022V0.382324ZM0.238281 1.5249H0.712941V1.90723H0.238281V1.5249ZM1.89959 1.5249H2.37425V1.90723H1.89959V1.5249ZM4.27289 1.5249H4.74755V1.90723H4.27289V1.5249ZM0.475611 2.66748H0.950271V3.0498H0.475611V2.66748ZM0.712941 3.0498H1.1876V3.43213H0.712941V3.0498ZM1.66226 2.67188H2.13692V3.0498H1.66226V2.67188ZM1.42493 3.0498H1.89959V3.43213H1.42493V3.0498ZM0.950271 3.43213H1.66226V3.81445H0.950271V3.43213Z" fill="#ED0202"/>
<path fill-rule="evenodd" clip-rule="evenodd" d="M1.18665 3.81445H1.42398V4.19678H1.18665V3.81445ZM2.84796 2.67188H3.32262V3.0498H2.84796V2.67188ZM3.08529 3.0498H3.55995V3.43213H3.08529V3.0498ZM4.03461 2.67188H4.50927V3.0498H4.03461V2.67188ZM3.79728 3.0498H4.27194V3.43213H3.79728V3.0498ZM3.32262 3.43213H4.03461V3.81445H3.32262V3.43213ZM3.55995 3.81445H3.79728V4.19678H3.55995V3.81445ZM2.3733 3.42773H2.61063V3.81006H2.3733V3.42773ZM0 3.42773H0.23733V3.81006H0V3.42773ZM4.7466 3.42773H4.98393V3.81006H4.7466V3.42773ZM1.18665 5.33496H1.42398V5.71729H1.18665V5.33496ZM0.94932 5.72168H1.66131V6.09961H0.94932V5.72168ZM0.71199 6.09961H1.89864V6.48193H0.71199V6.09961ZM3.55995 5.33936H3.79728V5.72168H3.55995V5.33936ZM3.32262 5.72168H4.03461V6.09961H3.32262V5.72168ZM3.08529 6.09961H4.27194V6.48193H3.08529V6.09961ZM3.32262 8.00684H4.50927V8.38916H3.32262V8.00684ZM2.84796 6.48193H4.50927V6.86426H2.84796V6.48193ZM0.47466 6.48193H2.13597V6.86426H0.47466V6.48193ZM0.71199 8.38916H1.42398V8.77148H0.71199V8.38916ZM0.47466 8.00684H1.66131V8.38916H0.47466V8.00684ZM3.79728 7.25098H4.98393V7.6333H3.79728V7.25098ZM3.55995 8.39356H4.27194V8.77588H3.55995V8.39356Z" fill="#ED0202"/>
<path fill-rule="evenodd" clip-rule="evenodd" d="M0.94932 8.77197H1.18665V9.1543H0.94932V8.77197ZM3.79728 8.77197H4.03461V9.1543H3.79728V8.77197ZM0 7.24707H1.18665V7.6294H0V7.24707ZM2.13597 8.00732H2.84796V8.38965H2.13597V8.00732ZM2.3733 8.39404H2.61063V8.77637H2.3733V8.39404ZM1.66131 7.25146H3.32262V7.63379H1.66131V7.25146ZM2.61063 1.52539H3.08529V1.90771H2.61063V1.52539ZM2.13597 1.90771H2.84796V2.29004H2.13597V1.90771ZM1.89864 2.29004H2.3733V2.66797H1.89864V2.29004ZM2.61063 2.29004H3.08529V2.66797H2.61063V2.29004ZM0 1.90771H0.47466V2.29004H0V1.90771ZM0.23733 2.29004H0.71199V2.66797H0.23733V2.29004ZM4.50927 1.90771H4.98393V2.28564H4.50927V1.90771ZM4.27194 2.28564H4.7466V2.66357H4.27194V2.28564ZM0 5.71338H0.23733V6.0957H0V5.71338ZM4.7466 5.71338H4.98393V6.0957H4.7466V5.71338ZM2.13597 8.76758H2.84796V9.1499H2.13597V8.76758ZM1.89864 9.1499H2.3733V9.52783H1.89864V9.1499ZM2.61063 9.1499H3.08529V9.52783H2.61063V9.1499ZM1.66131 9.52783H2.13597V9.91016H1.66131V9.52783ZM2.84796 9.52783H3.32262V9.91016H2.84796V9.52783ZM1.42398 9.91016H1.89864V10.2925H1.42398V9.91016ZM3.08529 9.91016H3.55995V10.2925H3.08529V9.91016ZM1.18665 10.2969H1.66131V10.6792H1.18665V10.2969ZM3.32262 10.2969H3.79728V10.6792H3.32262V10.2969ZM0.71199 10.6792H1.42398V11.0615H0.71199V10.6792ZM3.55995 10.6792H4.27194V11.0615H3.55995V10.6792ZM4.03461 10.2969H4.50927V10.6792H4.03461V10.2969ZM4.27194 9.91455H4.7466V10.2969H4.27194V9.91455ZM4.50927 9.53223H4.98393V9.91455H4.50927V9.53223ZM0.47466 10.2969H0.94932V10.6792H0.47466V10.2969ZM0.23733 9.91455H0.71199V10.2969H0.23733V9.91455ZM0 9.53662H0.47466V9.91895H0V9.53662ZM0.94932 11.0659H1.18665V11.4438H0.94932V11.0659ZM3.79728 11.0659H4.03461V11.4438H3.79728V11.0659ZM2.3733 9.92334H2.61063V10.3013H2.3733V9.92334ZM1.66131 11.0659H1.89864V11.4438H1.66131V11.0659ZM3.08529 11.0659H3.32262V11.4438H3.08529V11.0659ZM2.3733 11.0659H2.61063V11.4438H2.3733V11.0659ZM0 11.0659H0.23733V11.4438H0L0 11.0659ZM4.7466 11.0659H4.98393V11.4438H4.7466V11.0659ZM2.3733 5.72217H2.61063V6.1001H2.3733V5.72217ZM1.18665 1.90771H1.42398V2.29004H1.18665V1.90771ZM3.55995 1.90771H3.79728V2.29004H3.55995V1.90771ZM2.13597 4.5752H2.84796V4.95752H2.13597V4.5752ZM1.66131 4.95752H2.3733V5.33984H1.66131V4.95752ZM1.89864 5.33984H2.13597V5.72217H1.89864V5.33984ZM1.42398 4.5752H1.89864V4.95752H1.42398V4.5752ZM1.66131 4.19727H2.3733V4.5752H1.66131V4.19727ZM1.89864 3.81494H2.13597V4.19727H1.89864V3.81494ZM2.61063 4.19727H3.32262V4.5752H2.61063V4.19727ZM2.84796 3.81494H3.08529V4.19727H2.84796V3.81494ZM3.08529 4.5752H3.55995V4.95752H3.08529V4.5752ZM2.61063 4.95752H3.32262V5.33984H2.61063V4.95752ZM2.84796 5.33984H3.08529V5.72217H2.84796V5.33984ZM3.79728 4.5752H4.27194V4.95752H3.79728V4.5752ZM4.03461 4.19727H4.7466V4.5752H4.03461V4.19727ZM4.50927 4.5752H4.98393V4.95752H4.50927V4.5752ZM4.03461 4.95752H4.7466V5.33984H4.03461V4.95752ZM4.27194 5.33984H4.50927V5.72217H4.27194V5.33984ZM4.27194 3.81494H4.50927V4.19727H4.27194V3.81494ZM0 4.5708H0.47466V4.95312H0V4.5708ZM0.23733 4.19287H0.94932V4.5708H0.23733V4.19287ZM0.71199 4.5708H1.18665V4.95312H0.71199V4.5708ZM0.23733 4.95312H0.94932V5.33545H0.23733V4.95312Z" fill="#ED0202"/>
<path fill-rule="evenodd" clip-rule="evenodd" d="M0.47466 5.33936H0.71199V5.72168H0.47466V5.33936ZM0.47466 3.81445H0.71199V4.19678H0.47466V3.81445ZM0.23733 6.86426H1.18665V7.24658H0.23733V6.86426ZM1.42398 6.86426H2.3733V7.24658H1.42398V6.86426ZM2.61063 6.86426H3.55995V7.24658H2.61063V6.86426ZM3.79728 6.86426H4.7466V7.24658H3.79728V6.86426ZM1.89864 7.62891H3.08529V8.00684H1.89864V7.62891ZM0.23733 7.62891H1.42398V8.00684H0.23733V7.62891ZM3.55995 7.62891H4.7466V8.00684H3.55995V7.62891ZM4.7466 9.15381H4.98393V9.53174H4.7466V9.15381ZM0 9.15381H0.23733V9.53174H0V9.15381ZM0.23733 22.1177H0.47466V21.7397H0.23733V22.1177ZM0.94932 22.1177H1.66131V21.7397H0.94932V22.1177ZM1.18665 22.5H1.42398V22.1177H1.18665V22.5ZM2.3733 22.5H2.61063V22.1177H2.3733V22.5ZM3.32262 22.1177H4.03461V21.7354H3.32262V22.1177ZM3.55995 22.5H3.79728V22.1177H3.55995V22.5ZM0.71199 21.7354H1.18665V21.3574H0.71199V21.7354ZM1.42398 21.7354H1.89864V21.3574H1.42398V21.7354ZM3.08529 21.7354H3.55995V21.3574H3.08529V21.7354ZM3.79728 21.7354H4.27194V21.3574H3.79728V21.7354ZM1.66131 21.3574H2.13597V20.9751H1.66131V21.3574ZM2.84796 21.3574H3.32262V20.9751H2.84796V21.3574ZM4.03461 21.3574H4.50927V20.9751H4.03461V21.3574ZM4.50927 22.1177H4.7466V21.7354H4.50927V22.1177ZM0.23733 20.9751H0.71199V20.5928H0.23733V20.9751ZM1.89864 20.9751H2.3733V20.5928H1.89864V20.9751ZM4.27194 20.9751H4.7466V20.5928H4.27194V20.9751ZM0.47466 19.8325H0.94932V19.4502H0.47466V19.8325ZM0.71199 19.4502H1.18665V19.0679H0.71199V19.4502ZM1.66131 19.8325H2.13597V19.4502H1.66131V19.8325ZM1.42398 19.4502H1.89864V19.0679H1.42398V19.4502ZM0.94932 19.0679H1.66131V18.6855H0.94932V19.0679ZM1.18665 18.6855H1.42398V18.3076H1.18665V18.6855ZM2.84796 19.8281H3.32262V19.4502H2.84796V19.8281ZM3.08529 19.4502H3.55995V19.0679H3.08529V19.4502ZM4.03461 19.8325H4.50927V19.4502H4.03461V19.8325ZM3.79728 19.4502H4.27194V19.0679H3.79728V19.4502ZM3.32262 19.0679H4.03461V18.6855H3.32262V19.0679ZM3.55995 18.6855H3.79728V18.3076H3.55995V18.6855ZM2.3733 19.0723H2.61063V18.6899H2.3733V19.0723ZM0 19.0723H0.23733V18.6899H0V19.0723ZM4.7466 19.0723H4.98393V18.6899H4.7466V19.0723ZM1.18665 17.165H1.42398V16.7827H1.18665V17.165ZM0.94932 16.7783H1.66131V16.4004H0.94932V16.7783ZM0.71199 16.4004H1.89864V16.0181H0.71199V16.4004ZM3.55995 17.1606H3.79728V16.7783H3.55995V17.1606Z" fill="#ED0202"/>
<path fill-rule="evenodd" clip-rule="evenodd" d="M3.32262 16.7783H4.03461V16.4004H3.32262V16.7783ZM3.08529 16.4004H4.27194V16.0181H3.08529V16.4004ZM3.32262 14.4932H4.50927V14.1064H3.32262V14.4932ZM2.84796 16.0181H4.50927V15.6357H2.84796V16.0181ZM0.47466 16.0181H2.13597V15.6357H0.47466V16.0181ZM0.71199 14.1108H1.42398V13.7285H0.71199V14.1108ZM0.47466 14.4932H1.66131V14.1064H0.47466V14.4932ZM3.79728 15.249H4.98393V14.8667H3.79728V15.249ZM3.55995 14.1064H4.27194V13.7241H3.55995V14.1064ZM0 15.249H1.18665V14.8667H0V15.249ZM2.13597 14.4888H2.84796V14.1064H2.13597V14.4888ZM2.3733 14.1064H2.61063V13.7241H2.3733V14.1064ZM1.66131 15.249H3.32262V14.8667H1.66131V15.249ZM2.61063 20.9707H3.08529V20.5884H2.61063V20.9707ZM2.13597 20.5884H2.84796V20.2148H2.13597V20.5884ZM1.89864 20.2061H2.3733V19.8237H1.89864V20.2061ZM2.61063 20.2061H3.08529V19.8237H2.61063V20.2061ZM0 20.5928H0.47466V20.2148H0V20.5928ZM0.23733 20.2104H0.71199V19.8325H0.23733V20.2104ZM4.50927 20.5928H4.98393V20.2148H4.50927V20.5928ZM4.27194 20.2104H4.7466V19.8325H4.27194V20.2104ZM0 16.7871H0.23733V16.4048H0V16.7871ZM4.7466 16.7871H4.98393V16.4048H4.7466V16.7871ZM1.89864 13.3506H2.3733V12.9727H1.89864V13.3506ZM2.61063 13.3506H3.08529V12.9727H2.61063V13.3506ZM1.66131 12.9727H2.13597V12.5903H1.66131V12.9727ZM2.84796 12.9727H3.32262V12.5903H2.84796V12.9727ZM1.42398 12.5903H1.89864V12.208H1.42398V12.5903ZM3.08529 12.5903H3.55995V12.208H3.08529V12.5903ZM1.18665 12.2036H1.66131V11.8213H1.18665V12.2036ZM3.32262 12.2036H3.79728V11.8213H3.32262V12.2036ZM0.71199 11.8213H1.42398V11.439H0.71199V11.8213ZM3.55995 11.8213H4.27194V11.439H3.55995V11.8213ZM4.03461 12.2036H4.50927V11.8213H4.03461V12.2036ZM4.27194 12.5859H4.7466V12.2036H4.27194V12.5859ZM4.50927 12.9683H4.98393V12.5859H4.50927V12.9683ZM0.47466 12.2036H0.94932V11.8213H0.47466V12.2036ZM0.23733 12.5859H0.71199V12.2036H0.23733V12.5859ZM0 12.9639H0.47466V12.5815H0V12.9639ZM0.94932 11.4346H1.18665V11.0566H0.94932V11.4346ZM2.3733 12.5771H2.61063V12.1992H2.3733V12.5771ZM2.3733 16.7739H2.61063V16.396H2.3733V16.7739ZM1.18665 20.5884H1.42398V20.2148H1.18665V20.5884ZM3.55995 20.5884H3.79728V20.2148H3.55995V20.5884ZM2.13597 17.9297H2.84796V17.5474H2.13597V17.9297ZM1.66131 17.5474H2.3733V17.165H1.66131V17.5474ZM1.89864 17.165H2.13597V16.7827H1.89864V17.165ZM1.42398 17.9297H1.89864V17.5474H1.42398V17.9297ZM1.66131 18.3032H2.3733V17.9297H1.66131V18.3032ZM1.89864 18.6855H2.13597V18.3076H1.89864V18.6855ZM2.61063 18.3032H3.32262V17.9297H2.61063V18.3032ZM2.84796 18.6855H3.08529V18.3076H2.84796V18.6855ZM3.08529 17.9253H3.55995V17.543H3.08529V17.9253ZM2.61063 17.543H3.32262V17.1606H2.61063V17.543ZM2.84796 17.1606H3.08529V16.7783H2.84796V17.1606ZM3.79728 17.9297H4.27194V17.5474H3.79728V17.9297ZM4.03461 18.3032H4.7466V17.9297H4.03461V18.3032ZM4.50927 17.9253H4.98393V17.543H4.50927V17.9253ZM4.03461 17.543H4.7466V17.1606H4.03461V17.543ZM4.27194 17.1606H4.50927V16.7783H4.27194V17.1606ZM4.27194 18.6855H4.50927V18.3076H4.27194V18.6855ZM0 17.9297H0.47466V17.5474H0V17.9297ZM0.23733 18.3032H0.94932V17.9297H0.23733V18.3032Z" fill="#ED0202"/>
<path fill-rule="evenodd" clip-rule="evenodd" d="M0.71199 17.9263H1.18665V17.5439H0.71199V17.9263ZM0.23733 17.5439H0.94932V17.1616H0.23733V17.5439ZM0.47466 17.1616H0.71199V16.7793H0.47466V17.1616ZM0.47466 18.6865H0.71199V18.3086H0.47466V18.6865ZM0.23733 15.6367H1.18665V15.2544H0.23733V15.6367ZM1.42398 15.6367H2.3733V15.2544H1.42398V15.6367ZM2.61063 15.6367H3.55995V15.2544H2.61063V15.6367ZM3.79728 15.6367H4.7466V15.2544H3.79728V15.6367ZM1.89864 14.8721H3.08529V14.4941H1.89864V14.8721ZM0.23733 14.8721H1.42398V14.4941H0.23733V14.8721ZM3.55995 14.8721H4.7466V14.4941H3.55995V14.8721ZM4.7466 13.3516H4.98393V12.9648H4.7466V13.3516ZM0 13.3516H0.23733V12.9648H0V13.3516ZM2.13597 11.4399H2.3733V11.8223H2.13597V11.4399ZM2.61063 11.4399H2.84796V11.8223H2.61063V11.4399ZM2.61063 10.6797H2.84796V11.062H2.61063V10.6797ZM2.13597 10.6797H2.3733V11.062H2.13597V10.6797ZM0.47466 20.9761H0.94932V21.3584H0.47466V20.9761ZM3.79728 13.7295H4.03461V13.3472H3.79728V13.7295ZM0.94932 13.7295H1.18665V13.3472H0.94932V13.7295ZM2.13597 13.3472H2.84796V13.7295H2.13597V13.3472Z" fill="#ED0202"/>
</svg>
