<svg width="21" height="11" viewBox="0 0 21 11" fill="none" xmlns="http://www.w3.org/2000/svg">
<path d="M20.76 0.9C20.7 0.39 20.25 0 19.71 0H18.72H14.31H13.47C12.9 0 12.45 0.420001 12.42 0.930001H11.07C10.95 0.750001 10.74 0.630001 10.5 0.630001H9.48C9.09 0.630001 8.76 0.960001 8.76 1.38V1.41C8.76 1.83 9.09 2.16 9.48 2.16H10.5C10.74 2.16 10.95 2.04 11.07 1.86H12.42V4.77C11.85 4.17 11.1 3.84 10.26 3.84H5.94V3.48C5.94 3.33 5.79 3.18 5.61 3.18H5.31C5.13 3.18 4.98 3.3 4.98 3.48V3.57C4.92 3.48 4.8 3.39 4.65 3.39C4.02 3.3 3.27 3.27 2.46 3.27C1.68 3.27 0.96 3.33 0.36 3.39C0.15 3.42 0 3.57 0 3.75V4.86C0 5.04 0.15 5.19 0.36 5.22C0.93 5.31 1.59 5.37 2.34 5.37C3.24 5.37 4.02 5.31 4.68 5.22C4.83 5.19 4.92 5.13 4.98 5.04V5.07C4.98 5.13 4.98 5.16 5.01 5.19L4.92 5.88L2.4 6.33C2.13 6.39 1.98 6.63 2.01 6.9C2.04 7.14 2.25 7.29 2.49 7.29C2.52 7.29 2.55 7.29 2.58 7.29L5.43 6.78C5.64 6.75 5.79 6.57 5.82 6.36L6 4.8H10.26C11.52 4.8 12.12 5.76 12.42 6.57V9.15C12.42 9.63 12.84 10.02 13.38 10.02H15C15.15 10.02 15.3 9.99 15.42 9.93C16.53 9.42 17.76 8.64 18.81 7.41C20.82 4.98 20.88 2.31 20.76 0.9Z" fill="white"/>
</svg>
