<svg width="18" height="13" viewBox="0 0 18 13" fill="none" xmlns="http://www.w3.org/2000/svg">
<path d="M0.27 5.4L6.63 4.77C6.72 4.77 6.81 4.71 6.84 4.62L8.88 0L1.89 1.29C1.8 1.29 1.74 1.35 1.71 1.44L0.0300001 5.07C0.0300001 5.1 0 5.1 0 5.13V5.22C0 5.31 0.12 5.43 0.27 5.4Z" fill="white"/>
<path d="M15.7795 6.39091L15.0595 6.27091C14.9095 6.24091 14.7895 6.36091 14.7895 6.51091V10.1109L8.90953 11.2209V3.84092C8.90953 3.57092 8.51953 3.48092 8.42953 3.75092L7.61953 5.73092C7.58953 5.82091 7.49953 5.88091 7.40953 5.88091L2.00953 6.36091C1.88953 6.36091 1.76953 6.48091 1.76953 6.63091L1.88953 10.8609C1.88953 10.9809 1.97953 11.0709 2.09953 11.1009L8.42953 12.4209C8.72953 12.4809 9.05953 12.4809 9.35953 12.4209L15.7795 11.0409C15.8995 11.0109 15.9895 10.9209 15.9895 10.8009V6.63091C15.9895 6.51091 15.8995 6.39091 15.7795 6.39091Z" fill="white"/>
<path d="M11.2509 4.92L17.6109 5.43C17.7609 5.43 17.8809 5.34 17.8809 5.19V5.16C17.8809 5.13 17.8809 5.1 17.8509 5.07L16.2009 1.44C16.1709 1.35 16.1109 1.32 16.0209 1.29L8.88086 0L11.0409 4.77C11.0709 4.86 11.1609 4.89 11.2509 4.92Z" fill="white"/>
</svg>
