<svg width="18" height="10" viewBox="0 0 18 10" fill="none" xmlns="http://www.w3.org/2000/svg">
<path d="M13.2313 1.92062L11.6413 2.19062C11.6113 2.19062 11.6113 2.19062 11.5813 2.19062H4.14125C3.93125 2.19062 3.78125 2.40062 3.78125 2.64062V4.89062C3.78125 5.13062 3.93125 5.34062 4.14125 5.34062H11.6713C11.7013 5.34062 11.7013 5.34062 11.7313 5.34062L13.2313 5.61062C13.2613 5.61062 13.2613 5.61062 13.2913 5.61062H13.6213C13.8313 5.61062 13.9813 5.40062 13.9813 5.16062V2.34062C13.9813 2.10062 13.8313 1.89062 13.6213 1.89062H13.2913C13.2613 1.92062 13.2613 1.92062 13.2313 1.92062Z" fill="white"/>
<path d="M3.87 5.85C3.54 5.85 3.27 5.58 3.27 5.25V2.22C3.27 1.89 3.54 1.62 3.87 1.62H6.81C6.15 0.63 5.01 0 3.72 0C1.65 0 0 1.68 0 3.72C0 5.76 1.68 7.44 3.72 7.44C5.01 7.44 6.15 6.78 6.81 5.79H3.87V5.85Z" fill="white"/>
<path d="M16.7091 5.01078H14.0991C13.4091 5.01078 12.8691 4.44078 12.8691 3.78078C12.8691 3.09078 13.4391 2.55078 14.0991 2.55078H16.7091C17.3991 2.55078 17.9391 3.12078 17.9391 3.78078C17.9691 4.47078 17.3991 5.01078 16.7091 5.01078Z" fill="white"/>
<path d="M7.88992 9.51039C7.49992 9.51039 7.16992 9.18039 7.16992 8.79039V5.37039C7.16992 4.98039 7.49992 4.65039 7.88992 4.65039C8.27992 4.65039 8.60992 4.98039 8.60992 5.37039V8.82039C8.60992 9.21039 8.27992 9.51039 7.88992 9.51039Z" fill="white"/>
</svg>
