<svg width="18" height="18" viewBox="0 0 18 18" fill="none" xmlns="http://www.w3.org/2000/svg">
<path d="M10.8452 1.43656L10.6352 1.19656C10.4852 1.04656 10.2452 1.04656 10.0952 1.16656L9.55516 1.64656L8.14516 0.116563C7.99516 -0.0334368 7.75516 -0.0334369 7.60516 0.0865631L7.42516 0.266563C7.27516 0.416563 7.27516 0.656563 7.39516 0.806563L8.80516 2.33656L8.47516 2.66656C8.32516 2.81656 8.32516 3.05656 8.44516 3.20656L8.65516 3.44656C8.80516 3.59656 9.04516 3.59656 9.19516 3.47656L10.8152 1.97656C10.9952 1.82656 10.9952 1.58656 10.8452 1.43656Z" fill="white"/>
<path d="M17.505 10.1969L16.095 8.66687L16.635 8.18687C16.785 8.03687 16.785 7.79688 16.665 7.64688L16.425 7.43688C16.275 7.28688 16.035 7.28688 15.885 7.40688L14.265 8.90687C14.115 9.05687 14.115 9.29687 14.235 9.44687L14.445 9.68687C14.595 9.83687 14.835 9.83687 14.985 9.71687L15.315 9.38687L16.725 10.9169C16.875 11.0669 17.115 11.0669 17.265 10.9469L17.445 10.7669C17.625 10.5869 17.655 10.3469 17.505 10.1969Z" fill="white"/>
<path d="M8.92655 10.3164L7.39655 8.6664C7.12655 8.3664 6.67655 8.3664 6.37655 8.6364L3.82655 10.9764C3.52655 11.2464 3.52655 11.6964 3.79655 11.9964L5.32655 13.6464C5.59655 13.9464 6.04655 13.9464 6.34655 13.6764L8.86655 11.3364C9.16655 11.0664 9.19655 10.5864 8.92655 10.3164Z" fill="white"/>
<path d="M4.5757 13.4058L3.9757 12.7758C3.7057 12.4758 3.2557 12.4758 2.9557 12.7458L0.645701 14.9058C0.405701 15.1158 0.345701 15.4758 0.495701 15.7758L0.195701 16.0458C-0.0442986 16.2858 -0.0742987 16.6758 0.165701 16.9158C0.405701 17.1558 0.795701 17.1858 1.0357 16.9458L1.3357 16.6758C1.6057 16.8258 1.9657 16.8258 2.2057 16.5858L4.5157 14.4258C4.8157 14.1258 4.8457 13.6758 4.5757 13.4058Z" fill="white"/>
<path d="M15.1063 3.02632C13.9063 1.73632 12.3763 1.22632 11.6863 1.88632L7.33633 5.93632C7.18633 6.08632 7.18633 6.32632 7.30633 6.47632C7.45633 6.62632 7.45633 6.86632 7.27633 7.01632L7.12633 7.13632C6.97633 7.28632 6.97633 7.52632 7.09633 7.67632L9.82633 10.6163C9.97633 10.7663 10.2163 10.7663 10.3663 10.6463L10.5163 10.5263C10.6663 10.3763 10.9063 10.3763 11.0563 10.5563C11.2063 10.7063 11.4463 10.7063 11.5963 10.5863L15.9463 6.53632C16.6963 5.87632 16.3063 4.28632 15.1063 3.02632ZM10.7563 8.78632L9.01633 6.92632C8.89633 6.77632 8.89633 6.56632 9.04633 6.44632C9.19633 6.32632 9.40633 6.32632 9.52633 6.47632L11.2663 8.33632C11.3863 8.48632 11.3863 8.69632 11.2363 8.81632C11.1163 8.93632 10.9063 8.90632 10.7563 8.78632ZM11.7763 7.82632L10.0363 5.96632C9.91633 5.81632 9.91633 5.60632 10.0663 5.48632C10.2163 5.36632 10.4263 5.36632 10.5463 5.51632L12.2863 7.37632C12.4063 7.52632 12.4063 7.73632 12.2563 7.85632C12.1363 7.97632 11.9263 7.97632 11.7763 7.82632ZM12.8563 6.86632L11.1163 5.00632C10.9963 4.85632 10.9963 4.64632 11.1463 4.52632C11.2963 4.40632 11.5063 4.40632 11.6263 4.55632L13.3663 6.41632C13.4863 6.56632 13.4863 6.77632 13.3363 6.89632C13.1863 6.98632 12.9763 6.98632 12.8563 6.86632ZM14.7763 5.30632L12.8263 3.20632C12.5863 2.93632 12.7963 2.51632 13.1563 2.57632C13.6363 2.63632 14.2063 2.93632 14.6863 3.44632C15.1663 3.95632 15.4363 4.55632 15.4363 5.03632C15.4363 5.36632 15.0163 5.54632 14.7763 5.30632Z" fill="white"/>
</svg>
