<svg width="21" height="11" viewBox="0 0 21 11" fill="none" xmlns="http://www.w3.org/2000/svg">
<path d="M20.099 5.03255C17.4323 5.19922 14.599 5.26589 11.6323 5.26589C8.56562 5.26589 5.66562 5.16589 2.89896 5.03255C2.86562 5.03255 2.63229 5.03255 2.46563 4.86589C2.36563 4.76589 2.26562 4.63255 2.26562 4.46589V3.96589C2.26562 3.79922 2.33229 3.66589 2.46563 3.56589C2.59896 3.43255 2.79896 3.39922 2.89896 3.39922C5.39896 3.19922 11.6323 3.19922 11.6323 3.19922C11.6323 3.19922 17.799 3.19922 20.099 3.39922C20.2323 3.39922 20.5323 3.43255 20.7323 3.63255C20.899 3.76589 20.999 3.96589 20.999 4.19922C20.999 4.66589 20.599 5.03255 20.099 5.03255Z" fill="white"/>
<path d="M12.6331 9.03333H12.2997C12.1997 9.03333 12.0997 8.96666 12.0664 8.86666C11.8664 8.43333 11.4664 7.76667 10.7331 7.2C9.46641 6.2 7.99974 6.03333 7.33307 6.03333C7.19974 6.03333 7.06641 5.9 7.06641 5.76667C7.06641 5.63333 7.19974 5.5 7.33307 5.5H12.6331C12.7664 5.5 12.8997 5.63333 12.8997 5.76667V8.76666C12.8997 8.9 12.7997 9.03333 12.6331 9.03333Z" fill="white"/>
<path d="M1.66563 4.9674L0.598958 4.8674C0.432292 4.8674 0.265625 4.70073 0.265625 4.50073V3.8674C0.265625 3.70073 0.398958 3.53406 0.598958 3.50073L1.66563 3.40073C1.86563 3.3674 2.03229 3.53407 2.03229 3.7674V4.5674C2.03229 4.83406 1.86563 5.00073 1.66563 4.9674Z" fill="white"/>
<path d="M5.76507 0L5.66507 0.300001L5.79841 0.333334C5.29841 1.86667 5.73174 3.36667 6.73174 3.7C7.73174 4.03334 8.96507 3.06667 9.46507 1.53334L9.59841 1.56667L9.69841 1.26667L5.76507 0Z" fill="white"/>
<path d="M11.733 1.80018L10.133 2.40018C9.96632 2.46684 9.86632 2.66684 9.93299 2.83351C9.99966 3.00018 10.1997 3.10018 10.3663 3.03351L10.8663 2.83351L11.533 4.60018L12.1663 4.36684L11.4997 2.60018L11.9663 2.43351C12.133 2.36685 12.233 2.16684 12.1663 2.00018C12.133 1.83351 11.933 1.73351 11.733 1.80018Z" fill="white"/>
<path d="M13.0999 9.30091H11.7999C11.6665 9.30091 11.5332 9.20091 11.5332 9.03425C11.5332 8.90091 11.6332 8.76758 11.7999 8.76758H13.0999C13.2332 8.76758 13.3665 8.86758 13.3665 9.03425C13.3332 9.16758 13.2332 9.30091 13.0999 9.30091Z" fill="white"/>
<path d="M12.4996 10.266C12.2663 10.266 12.0996 10.066 12.0996 9.86601V9.56601C12.0996 9.33268 12.2996 9.16602 12.4996 9.16602C12.7329 9.16602 12.8996 9.36602 12.8996 9.56601V9.86601C12.8996 10.066 12.6996 10.266 12.4996 10.266Z" fill="white"/>
</svg>
