<svg width="18" height="11" viewBox="0 0 18 11" fill="none" xmlns="http://www.w3.org/2000/svg">
<path d="M3.38786 7.785C3.34787 7.75312 3.31736 7.71092 3.29961 7.66295C3.28186 7.61499 3.27755 7.56309 3.28714 7.51286C3.28714 7.43572 3.28714 7.35643 3.28714 7.27929C3.28714 7.20215 3.26357 7.19143 3.20357 7.18286C2.94729 7.13339 2.69822 7.05204 2.46214 6.94072C2.29535 6.8652 2.13606 6.77408 1.98643 6.66857C1.98022 6.66056 1.97226 6.65408 1.96316 6.64962C1.95406 6.64516 1.94406 6.64285 1.93393 6.64285C1.92379 6.64285 1.91379 6.64516 1.90469 6.64962C1.8956 6.65408 1.88764 6.66056 1.88143 6.66857C1.81071 6.74357 1.73786 6.81429 1.66714 6.88286C1.64999 6.90591 1.62769 6.92463 1.60202 6.93753C1.57635 6.95043 1.54802 6.95715 1.51928 6.95715C1.49055 6.95715 1.46222 6.95043 1.43655 6.93753C1.41088 6.92463 1.38858 6.90591 1.37143 6.88286C1.2 6.71572 1.03071 6.54643 0.863571 6.37929C0.735 6.25072 0.735 6.165 0.863571 6.03857C0.934286 5.96786 1.005 5.89714 1.07786 5.82429C1.11429 5.79 1.12286 5.76643 1.09286 5.72143C0.92446 5.46644 0.791798 5.18958 0.698571 4.89857C0.657857 4.77429 0.636428 4.64357 0.604285 4.51929C0.591428 4.47214 0.578571 4.44857 0.522857 4.45072C0.42 4.45072 0.308571 4.45072 0.214286 4.45072C0.0642857 4.45072 0 4.38643 0 4.23643V3.52929C0 3.375 0.0642857 3.315 0.214286 3.315C0.319286 3.315 0.428571 3.315 0.531428 3.315C0.580714 3.315 0.606428 3.30214 0.617142 3.25072C0.679859 2.94006 0.788173 2.64039 0.938571 2.36143C0.992974 2.26208 1.05234 2.16553 1.11643 2.07214C1.15286 2.01857 1.14 1.98643 1.09929 1.94571C1.02214 1.875 0.947142 1.8 0.872142 1.73143C0.845181 1.71342 0.823079 1.68904 0.807794 1.66044C0.792508 1.63185 0.784511 1.59992 0.784511 1.5675C0.784511 1.53508 0.792508 1.50315 0.807794 1.47456C0.823079 1.44597 0.845181 1.42158 0.872142 1.40357C1.04357 1.23 1.21714 1.05857 1.39071 0.887143C1.40753 0.865352 1.42912 0.847708 1.45382 0.835568C1.47853 0.823428 1.50569 0.817115 1.53321 0.817115C1.56074 0.817115 1.5879 0.823428 1.6126 0.835568C1.63731 0.847708 1.6589 0.865352 1.67571 0.887143C1.76143 0.972857 1.85143 1.05643 1.93286 1.14643C1.93866 1.15577 1.94651 1.16367 1.9558 1.16954C1.9651 1.17542 1.9756 1.17911 1.98653 1.18035C1.99746 1.18159 2.00852 1.18033 2.01889 1.17669C2.02927 1.17304 2.03868 1.16709 2.04643 1.15929C2.25627 1.0192 2.48217 0.904805 2.71929 0.818572C2.87512 0.759911 3.03571 0.714746 3.19928 0.683572C3.21343 0.682985 3.22727 0.679292 3.23982 0.672755C3.25237 0.666219 3.26333 0.656999 3.27192 0.64575C3.28051 0.634501 3.28652 0.621499 3.28952 0.607667C3.29252 0.593835 3.29244 0.579511 3.28928 0.565714C3.28928 0.45 3.28928 0.332143 3.28928 0.214286C3.28928 0.0964286 3.35143 0 3.50357 0H4.24714C4.39071 0 4.46143 0.0642857 4.46143 0.214286C4.46143 0.364286 4.46143 0.465 4.46143 0.589286C4.45924 0.599957 4.45941 0.610977 4.46191 0.621578C4.46441 0.632179 4.4692 0.642108 4.47593 0.650673C4.48266 0.659239 4.49117 0.666235 4.50088 0.671177C4.51059 0.676118 4.52126 0.678885 4.53214 0.679286C4.83995 0.739465 5.13735 0.844134 5.415 0.99C5.50928 1.04143 5.60357 1.09714 5.69357 1.155C5.70135 1.16255 5.71068 1.16832 5.72091 1.17192C5.73114 1.17551 5.74203 1.17685 5.75283 1.17583C5.76362 1.17481 5.77407 1.17146 5.78344 1.16602C5.79282 1.16057 5.80091 1.15316 5.80714 1.14429C5.89928 1.04357 5.99571 0.949286 6.09214 0.852857C6.10886 0.836077 6.12873 0.822762 6.15061 0.813677C6.17249 0.804592 6.19595 0.799915 6.21964 0.799915C6.24333 0.799915 6.26679 0.804592 6.28867 0.813677C6.31055 0.822762 6.33042 0.836077 6.34714 0.852857C6.53143 1.035 6.71357 1.21714 6.89571 1.40143C6.91679 1.41872 6.93377 1.44046 6.94544 1.4651C6.9571 1.48975 6.96314 1.51667 6.96314 1.54393C6.96314 1.57119 6.9571 1.59811 6.94544 1.62275C6.93377 1.6474 6.91679 1.66914 6.89571 1.68643C6.81 1.77857 6.72214 1.86643 6.63 1.95214C6.58928 1.98857 6.59571 2.01429 6.63 2.055C6.83484 2.35601 6.9897 2.68815 7.08857 3.03857C7.10786 3.105 7.12286 3.17357 7.13571 3.24C7.14857 3.30643 7.17428 3.31714 7.23214 3.315C7.35428 3.315 7.47643 3.315 7.59857 3.315C7.72071 3.315 7.81285 3.37929 7.81285 3.52929V4.28143C7.81819 4.31074 7.81633 4.34091 7.80745 4.36935C7.79856 4.39779 7.78292 4.42365 7.76185 4.44471C7.74079 4.46578 7.71493 4.48143 7.68649 4.49031C7.65805 4.49919 7.62788 4.50105 7.59857 4.49572C7.47857 4.49572 7.35857 4.49572 7.23857 4.49572C7.18286 4.49572 7.16143 4.515 7.15071 4.56857C7.09099 4.89064 6.98337 5.20195 6.83143 5.49214C6.77063 5.57538 6.70479 5.65481 6.63428 5.73C6.62489 5.73966 6.61779 5.75129 6.61349 5.76406C6.6092 5.77682 6.60782 5.79039 6.60947 5.80375C6.61111 5.81712 6.61574 5.82995 6.623 5.84129C6.63026 5.85263 6.63998 5.8622 6.65143 5.86929C6.73039 5.93644 6.80551 6.00798 6.87643 6.08357C6.90034 6.10109 6.91979 6.12399 6.9332 6.15042C6.9466 6.17685 6.95359 6.20608 6.95359 6.23572C6.95359 6.26536 6.9466 6.29458 6.9332 6.32101C6.91979 6.34745 6.90034 6.37035 6.87643 6.38786L6.345 6.92143C6.3273 6.94222 6.30529 6.95892 6.2805 6.97037C6.25571 6.98182 6.22873 6.98775 6.20143 6.98775C6.17412 6.98775 6.14714 6.98182 6.12235 6.97037C6.09756 6.95892 6.07556 6.94222 6.05786 6.92143C5.985 6.84643 5.90786 6.77357 5.84357 6.70715C5.83717 6.69694 5.82853 6.68833 5.81831 6.68197C5.80808 6.6756 5.79654 6.67165 5.78456 6.67041C5.77258 6.66917 5.76048 6.67068 5.74917 6.67481C5.73786 6.67895 5.72764 6.68561 5.71928 6.69429C5.40817 6.90424 5.06414 7.06068 4.70143 7.15715C4.63103 7.17619 4.55945 7.19051 4.48714 7.2C4.47814 7.20043 4.46934 7.2028 4.46135 7.20697C4.45336 7.21113 4.44637 7.21699 4.44086 7.22412C4.43536 7.23125 4.43147 7.2395 4.42947 7.24829C4.42747 7.25707 4.42741 7.26619 4.42928 7.275C4.42928 7.37143 4.42928 7.47 4.42928 7.56643C4.43574 7.61323 4.42745 7.66088 4.40556 7.70275C4.38366 7.74461 4.34926 7.77861 4.30714 7.8L3.38786 7.785ZM5.68928 3.88929C5.68844 3.65122 5.64071 3.41565 5.54883 3.19603C5.45694 2.9764 5.3227 2.77703 5.15376 2.60929C4.98483 2.44154 4.78451 2.30872 4.56424 2.21839C4.34397 2.12807 4.10807 2.08201 3.87 2.08286C3.63193 2.0837 3.39636 2.13143 3.17674 2.22331C2.95712 2.3152 2.75774 2.44944 2.59 2.61838C2.42226 2.78731 2.28943 2.98763 2.19911 3.2079C2.10878 3.42817 2.06273 3.66408 2.06357 3.90214C2.06528 4.38294 2.25791 4.84337 2.59909 5.18215C2.94027 5.52092 3.40206 5.71028 3.88286 5.70857C4.36366 5.70687 4.82409 5.51424 5.16286 5.17305C5.50163 4.83187 5.69099 4.37009 5.68928 3.88929Z" fill="#FDFDFD"/>
<path d="M11.656 0.929877C11.7722 1.10512 11.8605 1.29743 11.9174 1.49988C11.9538 1.61131 12.0138 1.63059 12.1317 1.61131C12.5845 1.5149 13.0525 1.5149 13.5053 1.61131C13.5383 1.62563 13.5742 1.63198 13.6102 1.62984C13.6461 1.6277 13.681 1.61712 13.7121 1.59896C13.7432 1.58081 13.7696 1.55559 13.7891 1.52535C13.8087 1.4951 13.8208 1.46068 13.8245 1.42488C13.8635 1.31054 13.9116 1.19948 13.9681 1.09273C13.9794 1.06406 13.9967 1.03817 14.0189 1.0168C14.0411 0.995443 14.0677 0.979121 14.0968 0.968952C14.1259 0.958782 14.1568 0.955005 14.1875 0.957876C14.2182 0.960748 14.2479 0.970201 14.2745 0.985592C14.5595 1.10559 14.8424 1.22773 15.1317 1.35202C15.3138 1.43345 15.346 1.52773 15.2774 1.71845C15.2153 1.87488 15.0631 2.03131 15.1038 2.18345C15.1445 2.33559 15.3567 2.39773 15.4831 2.50059C15.777 2.74908 16.0345 3.03761 16.2481 3.35773C16.3231 3.47131 16.3831 3.46059 16.4838 3.41345C16.5845 3.36631 16.7303 3.31702 16.8545 3.26773C16.8826 3.25192 16.9139 3.24265 16.9461 3.24062C16.9783 3.23859 17.0105 3.24384 17.0404 3.256C17.0703 3.26815 17.097 3.28688 17.1186 3.31081C17.1402 3.33473 17.1562 3.36322 17.1653 3.39416C17.2874 3.69202 17.4031 3.98988 17.5188 4.28988C17.5363 4.31927 17.5464 4.35241 17.5484 4.38653C17.5505 4.42064 17.5443 4.45475 17.5305 4.48599C17.5166 4.51724 17.4955 4.54473 17.4689 4.56615C17.4422 4.58758 17.4109 4.60233 17.3774 4.60916C17.2467 4.65845 17.1203 4.71845 16.9874 4.76131C16.9697 4.76429 16.9528 4.77114 16.9381 4.78139C16.9233 4.79163 16.911 4.805 16.902 4.82056C16.8929 4.83611 16.8875 4.85347 16.886 4.87137C16.8844 4.88928 16.8869 4.90731 16.8931 4.92416C16.9917 5.43156 16.9917 5.95319 16.8931 6.46059C16.8849 6.48279 16.8817 6.50652 16.8837 6.5301C16.8857 6.55368 16.8929 6.57652 16.9048 6.59699C16.9167 6.61746 16.9329 6.63505 16.9524 6.64852C16.9719 6.66198 16.9941 6.67098 17.0174 6.67488C17.1385 6.71509 17.256 6.76526 17.3688 6.82488C17.3974 6.83599 17.4232 6.85311 17.4446 6.87506C17.466 6.89701 17.4824 6.92329 17.4928 6.95213C17.5031 6.98097 17.5072 7.0117 17.5046 7.04224C17.5021 7.07278 17.4931 7.10242 17.4781 7.12916C17.3474 7.42916 17.221 7.73131 17.0881 8.03131C17.0768 8.06181 17.0587 8.08934 17.0352 8.11181C17.0117 8.13429 16.9834 8.15112 16.9525 8.16103C16.9215 8.17095 16.8887 8.17368 16.8565 8.16902C16.8243 8.16437 16.7936 8.15245 16.7667 8.13416C16.426 7.90059 16.2288 7.99702 16.0124 8.32488C15.7653 8.66659 15.4473 8.95093 15.0803 9.15845C15.0653 9.16504 15.0519 9.17485 15.0411 9.1872C15.0303 9.19954 15.0224 9.21411 15.0179 9.22987C15.0134 9.24563 15.0124 9.26218 15.0151 9.27836C15.0177 9.29453 15.0239 9.30993 15.0331 9.32345C15.0867 9.43916 15.1253 9.56131 15.1703 9.67916C15.1842 9.70641 15.1922 9.73634 15.1936 9.76692C15.195 9.7975 15.1899 9.82804 15.1785 9.85646C15.1671 9.88489 15.1498 9.91055 15.1277 9.93172C15.1056 9.95288 15.0792 9.96906 15.0503 9.97917C14.7545 10.1035 14.4567 10.2277 14.1567 10.337C13.9724 10.4056 13.8974 10.3606 13.816 10.1785C13.756 10.0413 13.7281 9.84845 13.6231 9.78416C13.5181 9.71988 13.3467 9.80988 13.1945 9.81845C12.7815 9.85203 12.3659 9.82605 11.9603 9.74131C11.8295 9.71131 11.7738 9.75631 11.7331 9.86988C11.6972 9.9731 11.655 10.074 11.6067 10.172C11.5948 10.2034 11.5762 10.2318 11.5522 10.2552C11.5282 10.2786 11.4993 10.2964 11.4676 10.3075C11.436 10.3185 11.4023 10.3225 11.3689 10.319C11.3355 10.3156 11.3033 10.3049 11.2745 10.2877L10.4603 9.92559C10.2781 9.84631 10.246 9.73059 10.321 9.54416C10.501 9.14559 10.4988 9.14559 10.1731 8.87131C9.85845 8.61932 9.5864 8.31833 9.3674 7.97988C9.29669 7.86631 9.22383 7.82345 9.09097 7.89631C8.99328 7.94407 8.89143 7.9828 8.78669 8.01202C8.75799 8.02648 8.72641 8.0343 8.69428 8.0349C8.66215 8.03551 8.63029 8.02887 8.60107 8.0155C8.57185 8.00212 8.54602 7.98235 8.52547 7.95764C8.50493 7.93292 8.49021 7.90391 8.4824 7.87274C8.3624 7.58131 8.24669 7.28774 8.13097 6.99416C8.11538 6.96427 8.10671 6.93126 8.10559 6.89756C8.10448 6.86387 8.11094 6.83036 8.12452 6.7995C8.1381 6.76864 8.15844 6.74123 8.18403 6.71929C8.20963 6.69734 8.23983 6.68144 8.2724 6.67274L8.48669 6.58059C8.73954 6.47559 8.73954 6.47559 8.70097 6.21202C8.63431 5.76601 8.65395 5.31134 8.75883 4.87274C8.76896 4.84985 8.77376 4.82495 8.77285 4.79994C8.77194 4.77492 8.76535 4.75044 8.75358 4.72835C8.74182 4.70626 8.72518 4.68714 8.70492 4.67243C8.68467 4.65772 8.66133 4.64781 8.63669 4.64345C8.52311 4.60059 8.40954 4.55559 8.30026 4.50416C8.19097 4.45273 8.08597 4.34773 8.1524 4.19988C8.27883 3.89773 8.40954 3.59774 8.54026 3.29773C8.55105 3.26424 8.56941 3.23368 8.59391 3.20842C8.61841 3.18316 8.6484 3.16387 8.68155 3.15206C8.7147 3.14025 8.75012 3.13623 8.78508 3.14031C8.82003 3.14439 8.85358 3.15647 8.88312 3.17559C9.01169 3.23131 9.1424 3.28273 9.26669 3.34273C9.35026 3.38345 9.39954 3.35559 9.44883 3.28488C9.73284 2.87318 10.0973 2.52328 10.5203 2.25631C10.5421 2.24732 10.5615 2.23344 10.5772 2.21575C10.5928 2.19806 10.6041 2.17702 10.6103 2.15425C10.6165 2.13148 10.6174 2.10759 10.613 2.08442C10.6085 2.06125 10.5988 2.03941 10.5845 2.02059C10.528 1.90269 10.4779 1.7818 10.4345 1.65845C10.3638 1.45488 10.4045 1.37131 10.6017 1.29202C10.8481 1.19345 11.0967 1.09702 11.3431 0.994163C11.3774 0.981306 11.4331 0.994163 11.4374 0.927734L11.656 0.929877ZM12.8453 7.90059C13.2929 7.89592 13.7292 7.75869 14.0989 7.50623C14.4686 7.25377 14.7552 6.8974 14.9225 6.48214C15.0898 6.06689 15.1303 5.61136 15.0389 5.17311C14.9474 4.73485 14.7282 4.33352 14.4088 4.01981C14.0894 3.7061 13.6842 3.49407 13.2444 3.41051C12.8045 3.32696 12.3498 3.37562 11.9376 3.55035C11.5254 3.72507 11.1743 4.01804 10.9285 4.39223C10.6827 4.76642 10.5533 5.20505 10.5567 5.65273C10.5629 6.25404 10.8073 6.82834 11.2363 7.24972C11.6653 7.6711 12.2439 7.90516 12.8453 7.90059Z" fill="#FDFDFD"/>
</svg>
