<svg width="18" height="15" viewBox="0 0 18 15" fill="none" xmlns="http://www.w3.org/2000/svg">
<path d="M16.6294 10.1426C16.0921 10.7098 15.4054 11.2173 14.5397 11.5756C14.3307 11.6651 14.1217 11.695 13.9127 11.695H1.43382C0.77704 11.695 0.209816 11.3069 0.0904008 10.7994C0.060547 10.8591 0.0605469 10.9486 0.0605469 11.0382V13.3966C0.0605469 13.9937 0.657624 14.5012 1.40397 14.5012H3.04593C3.28476 14.5012 3.52359 14.4415 3.73257 14.3221C4.18038 14.0534 4.92673 13.9042 5.79249 13.9042C6.65825 13.9042 7.4046 14.0833 7.8524 14.3221C8.06138 14.4415 8.33007 14.5012 8.59875 14.5012H14.1217V13.0384C14.1217 12.919 14.2411 12.7996 14.3904 12.7996H14.5397C14.6889 12.7996 14.8084 12.919 14.8084 13.0384V14.5012H15.8831C16.6294 14.5012 17.2265 13.9937 17.2265 13.3966V11.0382C17.2265 10.6501 16.9877 10.3217 16.6294 10.1426Z" fill="white"/>
<path d="M10.8682 0.947808C9.34566 0.947808 7.94252 1.33591 6.80808 2.02255C4.80787 2.76889 4.21079 1.90313 4.12123 1.72401C3.76298 1.00752 3.04649 0.5 2.18073 0.5C1.01643 0.5 0.03125 1.45532 0.03125 2.64948V8.76952V9.84426C0.03125 9.84426 0.03125 9.84426 0.03125 9.87411C0.03125 10.6205 0.658181 11.2474 1.43438 11.2474H14.0029C14.2417 11.2474 14.4507 11.1877 14.6596 11.0981C16.5106 10.1129 17.7346 8.41127 17.7346 6.50063C17.7047 3.39582 14.6298 0.947808 10.8682 0.947808ZM3.1062 9.12777C3.1062 9.4263 2.86737 9.66514 2.56883 9.66514H1.97175C1.67321 9.66514 1.43438 9.4263 1.43438 9.12777V7.39624C1.43438 7.0977 1.67321 6.85887 1.97175 6.85887H2.56883C2.86737 6.85887 3.1062 7.0977 3.1062 7.39624V9.12777ZM3.19576 5.75428H1.34482C1.19555 5.75428 1.07614 5.63486 1.07614 5.48559C1.07614 5.33633 1.19555 5.21691 1.34482 5.21691H3.19576C3.34503 5.21691 3.46444 5.33633 3.46444 5.48559C3.46444 5.63486 3.34503 5.75428 3.19576 5.75428ZM3.19576 4.50042H1.34482C1.19555 4.50042 1.07614 4.381 1.07614 4.23173C1.07614 4.08246 1.19555 3.96305 1.34482 3.96305H3.19576C3.34503 3.96305 3.46444 4.08246 3.46444 4.23173C3.46444 4.381 3.34503 4.50042 3.19576 4.50042ZM3.19576 3.27641H1.34482C1.19555 3.27641 1.07614 3.15699 1.07614 3.00772C1.07614 2.85845 1.19555 2.73904 1.34482 2.73904H3.19576C3.34503 2.73904 3.46444 2.85845 3.46444 3.00772C3.46444 3.15699 3.34503 3.27641 3.19576 3.27641ZM11.2264 9.84426C8.62916 10.1129 6.36027 8.76952 6.18115 6.85887C5.97217 4.94823 7.94252 3.15699 10.51 2.91816C13.1072 2.64948 15.3761 3.9929 15.5553 5.90355C15.7642 7.78434 13.8237 9.57557 11.2264 9.84426Z" fill="white"/>
<path d="M2.83698 14.7999H0.926331C0.806915 14.7999 0.6875 14.6805 0.6875 14.5611C0.6875 14.4417 0.806915 14.3223 0.926331 14.3223H2.83698C2.95639 14.3223 3.07581 14.4417 3.07581 14.5611C3.07581 14.7104 2.95639 14.7999 2.83698 14.7999Z" fill="white"/>
</svg>
