<svg width="19" height="17" viewBox="0 0 19 17" fill="none" xmlns="http://www.w3.org/2000/svg">
<path d="M8.24946 12.5438L7.52946 12.2438C6.95946 12.0038 6.68946 11.3138 6.92946 10.7438L10.8295 1.68376C11.0695 1.11376 11.7595 0.843756 12.3295 1.08376L13.0495 1.38376C13.6195 1.62376 13.8895 2.31376 13.6495 2.88376L9.74946 11.9438C9.50946 12.5138 8.84946 12.7838 8.24946 12.5438ZM12.1195 1.56376C11.8195 1.44376 11.4295 1.56376 11.3095 1.89376L7.40946 10.9538C7.28946 11.2538 7.40946 11.6438 7.73946 11.7638L8.45946 12.0638C8.75946 12.1838 9.14946 12.0638 9.26946 11.7338L13.1695 2.67376C13.2895 2.37376 13.1695 1.98376 12.8395 1.86376L12.1195 1.56376Z" fill="white"/>
<path d="M9.23938 1.62318L5.81938 9.63318C5.78937 9.69318 5.78937 9.75318 5.81938 9.78318L6.29937 10.6232C6.35938 10.7132 6.47937 10.6832 6.53937 10.5632L10.4394 1.44318C10.4994 1.32318 10.4094 1.20318 10.3194 1.23318L9.38938 1.47318C9.32938 1.53318 9.26938 1.56318 9.23938 1.62318Z" fill="white"/>
<path d="M5.58112 9.39331C5.16112 9.21331 4.95112 8.70331 5.13112 8.28331L7.80112 2.07331C7.98112 1.65331 8.49112 1.44331 8.91112 1.62331C9.33112 1.80331 9.54112 2.31331 9.36112 2.73331L6.69112 8.94331C6.51112 9.39331 6.03112 9.60331 5.58112 9.39331Z" fill="white"/>
<path d="M7.17031 0.964114L4.98031 0.0341137C4.71031 -0.0858863 4.38031 0.124114 4.26031 0.454113L3.18031 2.97411L3.24031 3.00411C3.51031 3.12411 3.60031 3.48411 3.45031 3.81411L0.570312 10.5641L1.44031 10.9241L4.71031 3.27411C4.80031 3.03411 5.04031 2.91411 5.22031 2.97411C5.40031 3.06411 5.46031 3.30411 5.37031 3.54411L2.04031 11.1941L2.64031 11.4641C2.91031 11.5841 3.24031 11.3741 3.36031 11.0441L7.32031 1.80411C7.50031 1.44411 7.41031 1.08411 7.17031 0.964114Z" fill="white"/>
<path d="M2.46 11.8243L1.89 11.5843L1.62 12.2143C1.53 12.4543 1.29 12.5743 1.11 12.5143C0.93 12.4543 0.87 12.1843 0.96 11.9443L1.23 11.3143L0.93 11.1943C0.81 11.1343 0.63 11.2243 0.57 11.4043L0.0300001 12.6643C-0.0299999 12.8443 -1.69873e-07 13.0243 0.12 13.0843L1.62 13.7443C1.74 13.8043 1.92 13.7143 1.98 13.5343L2.52 12.2743C2.61 12.0643 2.58 11.8843 2.46 11.8243Z" fill="white"/>
<path d="M11.729 3.18453C11.8781 3.18453 11.999 3.06365 11.999 2.91453C11.999 2.76541 11.8781 2.64453 11.729 2.64453C11.5799 2.64453 11.459 2.76541 11.459 2.91453C11.459 3.06365 11.5799 3.18453 11.729 3.18453Z" fill="white"/>
<path d="M10.9501 6.30445C11.0164 6.30445 11.0701 6.25073 11.0701 6.18445C11.0701 6.11818 11.0164 6.06445 10.9501 6.06445C10.8838 6.06445 10.8301 6.11818 10.8301 6.18445C10.8301 6.25073 10.8838 6.30445 10.9501 6.30445Z" fill="white"/>
<path d="M9.44969 8.49508C9.5988 8.49508 9.71969 8.3742 9.71969 8.22508C9.71969 8.07596 9.5988 7.95508 9.44969 7.95508C9.30057 7.95508 9.17969 8.07596 9.17969 8.22508C9.17969 8.3742 9.30057 8.49508 9.44969 8.49508Z" fill="white"/>
<path d="M8.82063 10.0241C8.92004 10.0241 9.00063 9.94348 9.00063 9.84406C9.00063 9.74465 8.92004 9.66406 8.82063 9.66406C8.72121 9.66406 8.64062 9.74465 8.64062 9.84406C8.64062 9.94348 8.72121 10.0241 8.82063 10.0241Z" fill="white"/>
<path d="M15.9293 4.925H18.0593V3.875H15.4793C14.0693 4.085 13.4993 5.315 13.0493 6.575L11.6093 9.995C11.3993 10.325 11.2793 10.715 11.2793 11.105V12.155V12.935V16.115C11.2793 16.565 11.6393 16.955 12.1193 16.955H13.8593C14.3093 16.955 14.6993 16.595 14.6993 16.115V14.525H16.3193H18.0893V12.455V11.705V10.445V8.765H13.9793C13.6493 8.765 13.3193 8.825 13.0193 8.915L14.0393 6.935C14.6093 5.375 15.0293 4.925 15.9293 4.925ZM13.0793 11.375H14.9093C15.2393 11.375 15.5093 11.645 15.5093 11.975C15.5093 12.305 15.2393 12.575 14.9093 12.575H13.0793C12.7493 12.575 12.4793 12.305 12.4793 11.975C12.4793 11.645 12.7493 11.375 13.0793 11.375Z" fill="white"/>
</svg>
