<svg width="12" height="16" viewBox="0 0 12 16" fill="none" xmlns="http://www.w3.org/2000/svg">
<path d="M2.19062 4.83047H8.97063C9.12063 4.83047 9.27062 4.71047 9.27062 4.53047C9.27062 4.38047 9.15063 4.23047 8.97063 4.23047H2.19062C2.01062 4.23047 1.89062 4.35047 1.89062 4.53047C1.89062 4.71047 2.04062 4.83047 2.19062 4.83047Z" fill="white"/>
<path d="M0.93 15.51H10.5C10.95 15.51 11.31 15.21 11.43 14.79V2.91L8.76 0H0.96C0.45 0 0 0.42 0 0.96V14.58C0 15.09 0.420001 15.51 0.93 15.51ZM8.97 1.41L10.17 2.7H8.97V1.41ZM0.78 0.93C0.78 0.84 0.84 0.78 0.93 0.78H8.16V3.09C8.16 3.3 8.34 3.48 8.55 3.48H10.62V14.52C10.62 14.61 10.56 14.67 10.47 14.67H0.93C0.84 14.67 0.78 14.61 0.78 14.52V0.93Z" fill="white"/>
<path d="M2.19062 10.7699H8.97063C9.12063 10.7699 9.27062 10.6499 9.27062 10.4699C9.27062 10.3199 9.15063 10.1699 8.97063 10.1699H2.19062C2.01062 10.1699 1.89062 10.2899 1.89062 10.4699C1.89062 10.6499 2.04062 10.7699 2.19062 10.7699Z" fill="white"/>
<path d="M2.19062 8.78945H8.97063C9.12063 8.78945 9.27062 8.66945 9.27062 8.48945C9.27062 8.30945 9.15063 8.18945 8.97063 8.18945H2.19062C2.01062 8.18945 1.89062 8.30945 1.89062 8.48945C1.89062 8.66945 2.04062 8.78945 2.19062 8.78945Z" fill="white"/>
<path d="M2.19062 6.84023H8.97063C9.12063 6.84023 9.27062 6.72023 9.27062 6.54023C9.27062 6.36023 9.15063 6.24023 8.97063 6.24023H2.19062C2.01062 6.24023 1.89062 6.36023 1.89062 6.54023C1.89062 6.72023 2.04062 6.84023 2.19062 6.84023Z" fill="white"/>
</svg>
