<svg width="20" height="15" viewBox="0 0 20 15" fill="none" xmlns="http://www.w3.org/2000/svg">
<path d="M6.41568 5.30599C5.15568 4.91599 3.83568 5.00599 2.66568 5.60599C1.49568 6.20599 0.625682 7.22599 0.235682 8.48599C-0.154318 9.74599 -0.0643178 11.066 0.535682 12.236C1.13568 13.406 2.15568 14.276 3.41568 14.666C4.67568 15.056 5.99568 14.966 7.16568 14.366C8.33568 13.766 9.20568 12.746 9.59568 11.486C9.98568 10.226 9.89568 8.90599 9.29568 7.73599C8.69568 6.56599 7.67568 5.72599 6.41568 5.30599ZM9.05568 11.336C8.69568 12.446 7.94568 13.346 6.89568 13.886C5.87568 14.426 4.67568 14.516 3.56568 14.156C2.45568 13.796 1.55568 13.046 1.01568 11.996C0.475682 10.976 0.385682 9.77599 0.745682 8.66599C1.10568 7.55599 1.85568 6.65599 2.90568 6.11599C3.92568 5.57599 5.12568 5.48599 6.23568 5.84599C7.34568 6.20599 8.24568 6.95599 8.78568 8.00599C9.32568 9.05599 9.41568 10.226 9.05568 11.336Z" fill="white"/>
<path d="M3.20514 6.65545C1.34514 7.61545 0.625137 9.89545 1.58514 11.7254C2.54514 13.5854 4.82514 14.3054 6.65514 13.3454C8.48513 12.3854 9.23514 10.1054 8.27514 8.27545C7.31514 6.41545 5.03514 5.69545 3.20514 6.65545ZM5.12514 10.3754C4.91514 10.4654 4.67514 10.4054 4.55514 10.1954C4.43514 9.98545 4.52514 9.74545 4.73514 9.62545C4.94514 9.53545 5.18513 9.59545 5.30513 9.80545C5.39513 10.0154 5.30514 10.2554 5.12514 10.3754ZM4.94514 9.02545C4.88514 9.02545 4.82514 9.02545 4.76514 9.05545L3.74514 7.07545C4.37514 6.83545 5.03514 6.77545 5.63514 6.92545L4.94514 9.02545ZM4.22514 9.29545C4.16514 9.35545 4.13514 9.38545 4.10514 9.44545L1.97514 8.75545C2.21514 8.18545 2.63514 7.67545 3.20514 7.31545L4.22514 9.29545ZM3.92514 9.98545C3.92514 10.0454 3.92514 10.1054 3.95514 10.1654L1.97514 11.1854C1.73514 10.5554 1.67514 9.89545 1.82514 9.29545L3.92514 9.98545ZM4.22514 10.7054C4.28514 10.7654 4.31514 10.7954 4.37514 10.8254L3.68514 12.9554C3.11514 12.7154 2.60514 12.2954 2.24514 11.7254L4.22514 10.7054ZM4.91514 11.0054C4.97514 11.0054 5.03514 11.0054 5.09514 10.9754L6.11514 12.9554C5.48514 13.1954 4.82514 13.2554 4.22514 13.1054L4.91514 11.0054ZM5.60513 10.7054C5.66513 10.6454 5.69514 10.6154 5.72514 10.5554L7.85513 11.2454C7.61513 11.8154 7.19514 12.3254 6.62514 12.6854L5.60513 10.7054ZM5.90513 10.0154C5.90513 9.95545 5.90514 9.89545 5.87514 9.83545L7.85513 8.81545C8.09513 9.44545 8.15513 10.1054 8.00514 10.7054L5.90513 10.0154ZM5.63514 9.32545C5.57514 9.26545 5.54514 9.23545 5.48514 9.20545L6.17514 7.07545C6.74514 7.31545 7.25514 7.73545 7.61514 8.30545L5.63514 9.32545Z" fill="white"/>
<path d="M16.2868 0.235682C15.0268 -0.154318 13.7068 -0.0643178 12.5368 0.535682C11.3668 1.13568 10.4968 2.15568 10.1068 3.41568C9.71678 4.67568 9.80678 5.99568 10.4068 7.16568C11.0068 8.33568 12.0268 9.20568 13.2868 9.59568C14.5468 9.98568 15.8668 9.89568 17.0368 9.29568C18.2068 8.69568 19.0768 7.67568 19.4668 6.41568C19.8568 5.15568 19.7668 3.83568 19.1668 2.66568C18.5668 1.49568 17.5468 0.625682 16.2868 0.235682ZM18.9268 6.26568C18.5668 7.37568 17.8168 8.27568 16.7668 8.81568C15.7468 9.35568 14.5468 9.44568 13.4368 9.08568C12.3268 8.72568 11.4268 7.97568 10.8868 6.92568C10.3468 5.87568 10.2568 4.70568 10.6168 3.59568C10.9768 2.48568 11.7268 1.58568 12.7768 1.04568C13.7968 0.505682 14.9968 0.415682 16.1068 0.775682C17.2168 1.13568 18.1168 1.88568 18.6568 2.93568C19.1968 3.98568 19.2868 5.15568 18.9268 6.26568Z" fill="white"/>
<path d="M13.0762 1.58514C11.2162 2.54514 10.4962 4.82513 11.4562 6.65513C12.4162 8.48513 14.6962 9.23513 16.5262 8.27513C18.3862 7.31513 19.1062 5.03513 18.1462 3.20514C17.1862 1.34514 14.9062 0.625137 13.0762 1.58514ZM14.9662 5.30513C14.7562 5.39513 14.5162 5.33513 14.3962 5.12513C14.3062 4.91513 14.3662 4.67513 14.5762 4.55513C14.7862 4.43513 15.0262 4.52513 15.1462 4.73513C15.2662 4.94513 15.1762 5.18513 14.9662 5.30513ZM14.8162 3.92514C14.7562 3.92514 14.6962 3.92513 14.6362 3.95513L13.6162 1.97514C14.2462 1.73514 14.9062 1.67514 15.5062 1.82514L14.8162 3.92514ZM14.0962 4.22514C14.0362 4.28514 14.0062 4.31514 13.9762 4.37514L11.8462 3.68513C12.0862 3.11513 12.5062 2.60514 13.0762 2.24514L14.0962 4.22514ZM13.7962 4.91513C13.7962 4.97513 13.7962 5.03513 13.8262 5.09513L11.8462 6.11513C11.6062 5.48513 11.5462 4.82513 11.6962 4.22514L13.7962 4.91513ZM14.0662 5.60513C14.1262 5.66513 14.1562 5.69513 14.2162 5.72513L13.5262 7.85513C12.9562 7.61513 12.4462 7.19513 12.0862 6.62513L14.0662 5.60513ZM14.7862 5.90513C14.8462 5.90513 14.9062 5.90513 14.9662 5.87513L15.9862 7.85513C15.3562 8.09513 14.6962 8.15513 14.0962 8.00513L14.7862 5.90513ZM15.4762 5.63513C15.5362 5.57513 15.5662 5.54513 15.5962 5.48513L17.7262 6.17513C17.4862 6.74513 17.0662 7.25513 16.4962 7.61513L15.4762 5.63513ZM15.7762 4.94513C15.7762 4.88513 15.7762 4.82513 15.7462 4.76513L17.7262 3.74513C17.9662 4.37513 18.0262 5.03513 17.8762 5.63513L15.7762 4.94513ZM15.5062 4.22514C15.4462 4.16514 15.4162 4.13513 15.3562 4.10513L16.0462 1.97514C16.6162 2.21514 17.1262 2.63514 17.4862 3.20514L15.5062 4.22514Z" fill="white"/>
</svg>
