<svg width="19" height="15" viewBox="0 0 19 15" fill="none" xmlns="http://www.w3.org/2000/svg">
<path d="M11.685 5.56641H11.585C11.5517 5.56641 11.5184 5.59974 11.5184 5.66641C11.485 5.93307 11.4517 6.3664 11.285 6.7664C11.0184 7.43307 10.585 7.59974 10.385 7.63307C10.3517 7.63307 10.3184 7.73307 10.3184 7.79974C10.3184 7.89974 10.385 7.9664 10.4184 7.9664L11.9517 7.7664C11.985 7.7664 12.0184 7.6664 12.0184 7.59974L11.785 5.73307C11.7517 5.63307 11.7184 5.56641 11.685 5.56641Z" fill="white"/>
<path d="M18.1182 12.1999L17.0849 5.09987C17.0516 4.76654 16.7516 4.5332 16.4182 4.5332H12.7182C12.3182 4.5332 11.9849 4.89987 12.0516 5.29987L12.6849 9.6332C12.7516 10.0332 12.4182 10.3999 12.0182 10.3999C11.6516 10.3999 11.3516 10.6999 11.3516 11.0665V12.2999C11.3516 12.6665 11.6516 12.9665 12.0182 12.9665H13.1516H14.0182C13.9849 13.0332 13.9516 13.0999 13.9516 13.1999V13.3999C13.9516 13.6665 14.1849 13.8665 14.4849 13.8665H16.1182C16.4182 13.8665 16.6516 13.6665 16.6516 13.3999V13.1999C16.6516 13.1332 16.6182 13.0332 16.5849 12.9665H17.4516C17.8849 12.9665 18.1849 12.5999 18.1182 12.1999Z" fill="white"/>
<path d="M10.4513 5.26615H10.218C9.48463 5.26615 8.91797 4.66615 8.91797 3.96615V2.43281C8.91797 1.69948 9.51797 1.13281 10.218 1.13281H10.4513C11.1846 1.13281 11.7513 1.73281 11.7513 2.43281V3.96615C11.7513 4.66615 11.1846 5.26615 10.4513 5.26615Z" fill="white"/>
<path d="M8.21882 5.99909H5.45215C5.41882 5.99909 5.35215 5.99909 5.31882 5.96576C4.38548 5.63242 2.35215 4.69909 1.21882 2.76576C1.05215 2.49909 0.952149 2.23242 0.852149 1.99909C0.752149 1.73242 1.08548 1.53242 1.35215 1.66576C1.81882 1.86576 2.51882 2.06576 3.35215 2.03242C4.45215 1.96576 5.18548 1.53242 5.51882 1.29909C5.51882 1.23242 5.58548 1.23242 5.68548 1.23242H8.21882C8.41882 1.23242 8.55215 1.36576 8.55215 1.53242V5.73242C8.55215 5.86576 8.41882 5.99909 8.21882 5.99909Z" fill="white"/>
<path d="M17.418 0.5C17.118 0.5 16.818 0.5 16.518 0.5C16.2513 0.5 16.0513 0.7 16.0513 0.966667C16.0513 1.23333 15.8513 1.43333 15.5846 1.43333H10.3846C10.118 1.43333 9.91797 1.63333 9.91797 1.9V3.7C9.91797 4.4 10.4846 4.96667 11.1846 4.96667H11.218C11.918 4.96667 12.4846 5.53333 12.4846 6.23333V6.8C12.4846 7.33333 12.818 7.83333 13.3513 8C13.7846 8.13333 14.3513 8.26667 14.9846 8.26667C15.5846 8.26667 16.118 8.16667 16.518 8.03333C17.0513 7.86667 17.3846 7.4 17.418 6.83333C17.418 6.5 17.4513 6.1 17.5513 5.66667C17.6846 5 17.918 4.46667 18.118 4.1C18.1513 4 18.1846 3.93333 18.218 3.83333C18.3846 3.23333 18.518 2.66667 18.6846 2.06667C18.8846 1.26667 18.2513 0.5 17.418 0.5Z" fill="white"/>
<path d="M15.4518 14.8329H15.3518C15.0185 14.8329 14.7852 14.5663 14.7852 14.2663V14.1663C14.7852 13.8329 15.0518 13.5996 15.3518 13.5996H15.4518C15.7852 13.5996 16.0185 13.8663 16.0185 14.1663V14.2663C16.0518 14.5663 15.7852 14.8329 15.4518 14.8329Z" fill="white"/>
</svg>
