<svg width="22" height="18" viewBox="0 0 22 18" fill="none" xmlns="http://www.w3.org/2000/svg">
<path d="M5.19935 16.599C5.16602 16.599 5.09935 16.599 5.06602 16.5656L4.29935 16.0656L4.56602 15.6323L5.26602 16.099H6.39935C6.26602 15.699 6.16602 15.299 6.06602 14.8323H4.69935C4.66602 14.8323 4.59935 14.8323 4.56602 14.799L3.79935 14.299L4.06602 13.8656L4.76602 14.3323H5.96602C5.89935 13.9323 5.83268 13.499 5.79935 13.0656H4.43268C4.39935 13.0656 4.33268 13.0656 4.29935 13.0323L3.53268 12.5323L3.79935 12.099L4.49935 12.5656H5.73268C5.69935 12.1656 5.66602 11.7323 5.66602 11.299H4.39935C4.36602 11.299 4.29935 11.299 4.26602 11.2656L3.49935 10.7656L3.76602 10.3323L4.46602 10.799H5.63268C5.63268 10.3656 5.63268 9.96563 5.66602 9.53229H4.36602C4.33268 9.53229 4.26602 9.53229 4.23268 9.49896L3.46602 8.99896L3.73268 8.56563L4.43268 9.03229H5.66602C5.69935 8.59896 5.73268 8.19896 5.79935 7.76563H4.59935C4.56602 7.76563 4.49935 7.76563 4.46602 7.73229L3.69935 7.23229L4.06602 6.83229L4.76602 7.29896H5.96602C6.03268 6.86563 6.13268 6.43229 6.23268 6.03229H4.93268C4.89935 6.03229 4.83268 6.03229 4.79935 5.99896L4.03268 5.49896L4.29935 5.06563L4.99935 5.53229H6.39935C6.63268 4.79896 6.93268 4.16563 7.26602 3.76562H2.93268C2.46602 3.76562 1.83268 4.39896 1.29935 5.53229H2.36602L3.06602 5.06563L3.33268 5.49896L2.56602 5.99896C2.53268 6.03229 2.46602 6.03229 2.43268 6.03229H1.06602C0.899349 6.39896 0.766016 6.83229 0.632683 7.29896H1.86602L2.56602 6.83229L2.83268 7.26563L2.06602 7.76563C2.03268 7.79896 1.96602 7.79896 1.93268 7.79896H0.499349C0.399349 8.19896 0.332683 8.63229 0.266016 9.06563H1.33268L2.03268 8.59896L2.29935 9.03229L1.56602 9.49896C1.53268 9.53229 1.46602 9.53229 1.43268 9.53229H0.232683C0.199349 9.93229 0.166016 10.3656 0.166016 10.799H1.33268L2.03268 10.3323L2.29935 10.7656L1.53268 11.2656C1.49935 11.299 1.43268 11.299 1.39935 11.299H0.166016C0.166016 11.7323 0.232683 12.1656 0.266016 12.5656H1.59935L2.29935 12.099L2.56602 12.5323L1.79935 13.0323C1.76602 13.0656 1.69935 13.0656 1.66602 13.0656H0.332682C0.432682 13.5656 0.532682 14.0323 0.666016 14.4656V14.3323H2.09935L2.79935 13.8656L3.06602 14.299L2.29935 14.799C2.26602 14.8323 2.23268 14.8323 2.16602 14.8323H0.766016C0.932683 15.299 1.09935 15.7323 1.26602 16.099H2.59935L3.29935 15.6323L3.56602 16.0656L2.79935 16.5656C2.76602 16.599 2.69935 16.599 2.66602 16.599H1.53268C1.99935 17.399 2.53268 17.8656 2.89935 17.8656H7.23268C6.96602 17.5656 6.73268 17.1323 6.53268 16.599H5.19935Z" fill="white"/>
<path d="M21.9659 6.93268C21.9659 4.53268 20.1326 2.56602 17.7992 2.33268V1.66602H18.0992C18.3326 1.66602 18.4992 1.49935 18.4992 1.26602V1.06602C18.4992 0.832683 18.3326 0.666016 18.0992 0.666016H16.7659C16.5326 0.666016 16.3659 0.832683 16.3659 1.06602V1.26602C16.3659 1.49935 16.5326 1.66602 16.7659 1.66602H17.0659V2.33268C14.6659 2.49935 12.7326 4.49935 12.7326 6.93268C12.7326 9.23268 14.4326 11.1327 16.6326 11.4993C16.6659 11.9993 16.6659 12.8993 16.5659 13.766C16.4659 14.6993 16.1992 16.266 15.3659 16.3327C14.4992 16.3993 14.0992 15.966 13.3326 15.0327C12.7659 14.3327 12.0659 13.466 10.8992 12.766C10.6326 12.5993 10.3992 12.4993 10.1326 12.3993C10.1659 11.8993 10.1992 11.366 10.1992 10.7993C10.1992 6.63268 9.13255 3.76602 8.19922 3.76602C7.23255 3.76602 6.19922 6.66602 6.19922 10.7993C6.19922 14.9327 7.26589 17.8327 8.19922 17.8327C8.96589 17.8327 9.76588 16.0327 10.0992 13.1993C10.2326 13.266 10.3992 13.3327 10.5326 13.4327C11.5992 14.066 12.1992 14.8327 12.7659 15.4993C13.4326 16.3327 14.0659 17.0993 15.2326 17.0993C15.3326 17.0993 15.3992 17.0993 15.4992 17.0993C15.9326 17.066 16.4992 16.8327 16.9326 15.8993C17.1659 15.366 17.3326 14.666 17.3992 13.8327C17.4992 12.966 17.4659 12.0993 17.4659 11.566C19.9326 11.4993 21.9659 9.46602 21.9659 6.93268ZM8.19922 7.03268C9.06589 7.03268 9.46589 8.99935 9.46589 10.7993C9.46589 11.2993 9.43255 11.7993 9.36589 12.266C9.06589 12.266 8.79922 12.2993 8.49922 12.3993C7.93255 12.5993 7.49922 12.966 7.19922 13.2993C6.99922 12.5993 6.93255 11.6993 6.93255 10.7993C6.96588 8.99935 7.33255 7.03268 8.19922 7.03268ZM8.19922 14.5993C7.96589 14.5993 7.73255 14.4327 7.56589 14.166C7.79922 13.8327 8.19922 13.3327 8.76588 13.1327C8.93255 13.0993 9.06589 13.066 9.23255 13.066C9.03255 13.9327 8.69922 14.5993 8.19922 14.5993ZM17.3659 10.766C15.2659 10.766 13.5326 9.06602 13.5326 6.93268C13.5326 4.79935 15.2326 3.09935 17.3659 3.09935C19.4659 3.09935 21.1992 4.79935 21.1992 6.93268C21.1992 9.06602 19.4659 10.766 17.3659 10.766Z" fill="white"/>
<path d="M17.8329 6.43242C17.8996 5.83242 17.9329 5.23242 17.9996 4.63242C18.0329 4.39909 17.8996 4.23242 17.7996 4.23242C17.6996 4.23242 17.5996 4.33242 17.5663 4.49909C17.3996 5.09909 17.1996 5.69909 17.0329 6.29909C16.7996 6.39909 16.5996 6.66576 16.5996 6.93242C16.5996 7.33242 16.9329 7.63242 17.2996 7.63242C17.6996 7.63242 17.9996 7.29909 17.9996 6.93242C18.0663 6.73242 17.9663 6.56576 17.8329 6.43242Z" fill="white"/>
</svg>
