<svg width="19" height="16" viewBox="0 0 19 16" fill="none" xmlns="http://www.w3.org/2000/svg">
<path d="M12.2108 6.53906H12.1208C12.0908 6.53906 12.0608 6.56906 12.0608 6.62906C12.0008 6.86906 11.9108 7.22906 11.7308 7.52906C11.4008 8.06906 11.0408 8.15906 10.8608 8.15906C10.8308 8.15906 10.8008 8.21906 10.8008 8.30906C10.8008 8.39906 10.8308 8.45906 10.8608 8.45906H12.1808C12.2108 8.45906 12.2408 8.39906 12.2408 8.30906V6.68906C12.3008 6.59906 12.2708 6.53906 12.2108 6.53906Z" fill="white"/>
<path d="M18.8395 4.95V1.35C18.8395 0.6 18.2395 0 17.4895 0H10.7395C9.86945 0 9.14945 0.63 8.96945 1.44H8.93945V4.86H8.96945C9.14945 5.67 9.86945 6.3 10.7395 6.3H12.6295C13.0195 8.16 13.4095 10.02 13.7995 11.88C13.8595 12.18 13.5895 12.45 13.2295 12.45C12.8995 12.45 12.6295 12.66 12.6295 12.93V13.86C12.6295 14.13 12.8995 14.34 13.2295 14.34H14.2195H14.9995C14.9695 14.4 14.9395 14.46 14.9395 14.52V14.67C14.9395 14.85 15.1495 15.03 15.4195 15.03H16.8595C17.1295 15.03 17.3395 14.88 17.3395 14.67V14.52C17.3395 14.46 17.3095 14.4 17.2795 14.34H18.0595C18.4195 14.34 18.6895 14.07 18.6295 13.77C18.1495 11.28 17.6695 8.79 17.1895 6.3H17.5195C18.2395 6.3 18.8395 5.7 18.8395 4.95ZM15.1795 8.1H14.0995C13.8895 8.04 13.7395 7.86 13.7395 7.65C13.7395 7.41 13.9495 7.2 14.1895 7.2H15.0895C15.3295 7.2 15.5695 7.41 15.5395 7.65C15.5395 7.86 15.3895 8.04 15.1795 8.1ZM12.9895 1.8H16.5595C16.7995 1.8 17.0395 2.01 17.0095 2.25C17.0095 2.49 16.7995 2.7 16.5595 2.7H12.9895C12.7495 2.7 12.5095 2.49 12.5395 2.25C12.5395 2.01 12.7495 1.8 12.9895 1.8ZM12.9895 4.5C12.7495 4.5 12.5095 4.29 12.5395 4.05C12.5395 3.81 12.7495 3.6 12.9895 3.6H16.5595C16.7995 3.6 17.0395 3.81 17.0095 4.05C17.0095 4.29 16.7995 4.5 16.5595 4.5H12.9895Z" fill="white"/>
<path d="M8.19023 1.34961H5.88023C5.67023 1.34961 5.49023 1.55961 5.49023 1.82961V1.88961H5.13023C4.92023 1.88961 4.74023 2.09961 4.74023 2.36961V3.23961V3.65961V4.16961C4.74023 4.43961 4.92023 4.64961 5.13023 4.64961H5.52023V4.70961C5.52023 4.97961 5.70023 5.18961 5.91023 5.18961H8.22023C8.43023 5.18961 8.61023 4.97961 8.61023 4.70961V1.85961C8.58023 1.55961 8.40023 1.34961 8.19023 1.34961Z" fill="white"/>
<path d="M0.48 2.75914H0.69V2.36914H1.62V2.75914H2.58V2.36914H3.51V2.75914H5.22C5.49 2.75914 5.7 2.96914 5.7 3.23914C5.7 3.50914 5.49 3.71914 5.22 3.71914H4.44V4.10914H3.51V3.71914H2.61V4.10914H1.68V3.71914H0.48C0.21 3.71914 0 3.50914 0 3.23914C0 2.96914 0.21 2.75914 0.48 2.75914Z" fill="white"/>
</svg>
