<svg width="20" height="14" viewBox="0 0 20 14" fill="none" xmlns="http://www.w3.org/2000/svg">
<path d="M9.21 6.27C9.18 6.27 9.15 6.24 9.15 6.24C9.15 5.97 9.18 5.79 9.21 5.7C9.3 5.52 9.51 5.34 11.07 5.16C11.79 5.07 12.54 5.04 13.29 5.04C13.41 5.04 13.5 4.92 13.5 4.77C13.5 4.62 13.41 4.53 13.29 4.53C12.54 4.53 11.79 4.59 11.04 4.68C9.42 4.86 9.03 5.07 8.85 5.49C8.76 5.64 8.73 5.88 8.73 6.27C8.67 6.27 8.64 6.3 8.61 6.3C8.49 6.33 8.34 6.42 8.19 6.6C7.95 6.96 7.86 7.5 7.98 8.01L8.22 10.8C8.25 11.1 8.4 11.37 8.58 11.46C8.58 11.79 8.49 12.18 8.22 12.48C7.83 12.93 7.17 12.96 6.06 12.93C4.86 12.93 4.17 12.9 3.66 12.54C2.79 11.94 2.43 10.56 2.67 8.97L3.18 9.15C3.27 9.18 3.33 9.27 3.33 9.36V10.11L3.75 10.26C3.78 10.26 3.81 10.29 3.84 10.29H4.11C4.29 10.29 4.44 10.14 4.44 9.96V9.57C4.44 9.39 4.59 9.24 4.77 9.24H7.2L7.11 8.1C7.05 7.86 7.02 7.62 7.05 7.38H5.25C5.16 7.38 5.07 7.29 5.07 7.2V7.08C5.07 6.99 5.16 6.9 5.25 6.9H7.11C7.17 6.6 7.32 6.36 7.47 6.12C7.5 6.09 7.5 6.09 7.53 6.06H5.25C5.16 6.06 5.07 5.97 5.07 5.88V5.76C5.07 5.67 5.16 5.58 5.25 5.58H7.74C7.83 5.58 7.92 5.67 7.92 5.76C7.95 5.76 7.95 5.73 7.98 5.73C8.01 5.49 8.07 5.31 8.16 5.13C8.34 4.83 8.58 4.59 8.91 4.44V1.47C8.91 1.32 8.82 1.2 8.7 1.17L5.22 0.0300001C5.19 0.0300001 5.16 0 5.13 0H0.33C0.15 0 0 0.15 0 0.33V8.85C0 9 0.0900002 9.12 0.21 9.15L0.63 9.3V8.4C0.66 8.4 0.66 8.4 0.69 8.4L1.95 8.82C1.8 9.63 1.83 10.41 1.98 11.1C2.16 12 2.61 12.72 3.21 13.14C3.9 13.62 4.68 13.62 5.97 13.62C6.12 13.62 6.24 13.62 6.36 13.62C7.29 13.62 8.07 13.56 8.61 12.96C9 12.54 9.12 12 9.12 11.52C9.33 11.46 9.51 11.19 9.54 10.86L9.78 8.07C9.9 7.56 9.84 6.99 9.57 6.66C9.48 6.39 9.33 6.3 9.21 6.27ZM7.62 2.85C7.77 2.85 7.89 2.97 7.89 3.12C7.89 3.27 7.77 3.39 7.62 3.39C7.47 3.39 7.35 3.27 7.35 3.12C7.35 2.97 7.47 2.85 7.62 2.85ZM6.45 2.85C6.6 2.85 6.72 2.97 6.72 3.12C6.72 3.27 6.6 3.39 6.45 3.39C6.3 3.39 6.18 3.27 6.18 3.12C6.18 2.97 6.3 2.85 6.45 2.85ZM5.34 2.85C5.49 2.85 5.61 2.97 5.61 3.12C5.61 3.27 5.49 3.39 5.34 3.39C5.19 3.39 5.07 3.27 5.07 3.12C5.04 2.97 5.19 2.85 5.34 2.85ZM5.01 4.41C5.01 4.32 5.1 4.23 5.19 4.23H7.68C7.77 4.23 7.86 4.32 7.86 4.41V4.53C7.86 4.62 7.77 4.71 7.68 4.71H5.19C5.1 4.71 5.01 4.62 5.01 4.53V4.41Z" fill="white"/>
<path d="M11.1294 4.08047C11.9094 3.99047 12.7194 3.96047 13.4994 3.93047L13.2294 1.89047L9.35938 1.23047L10.1094 4.17047C10.4094 4.14047 10.7394 4.11047 11.1294 4.08047ZM10.4694 2.28047C10.5294 2.13047 10.7994 2.10047 11.5194 2.43047C12.2394 2.79047 12.7494 3.21047 13.0494 3.45047C12.6894 3.42047 12.0594 3.30047 11.3094 2.97047C10.5894 2.67047 10.4094 2.43047 10.4694 2.28047Z" fill="white"/>
<path d="M15.7498 2.33984L14.1298 8.81985L13.7398 5.78985C12.9298 5.78985 12.1198 5.84984 11.3098 5.90984C11.0098 5.93984 10.7698 5.96985 10.5898 5.99985L11.9698 11.4598L16.6498 12.7198L19.7698 2.99984L15.7498 2.33984ZM17.4298 6.26985C17.3698 6.38984 17.1898 6.41985 16.6498 6.17985C16.1398 5.93985 15.8098 5.60985 15.6298 5.39985C15.8998 5.42985 16.3498 5.48984 16.8598 5.72985C17.3998 5.93985 17.4898 6.14984 17.4298 6.26985ZM17.6998 4.13984C16.7698 4.31984 16.0198 4.28984 15.5998 4.25984C15.9898 4.04984 16.6498 3.74984 17.5798 3.53984C18.5098 3.32984 18.8098 3.44984 18.8398 3.59984C18.8698 3.74984 18.6298 3.95984 17.6998 4.13984Z" fill="white"/>
</svg>
