<svg width="16" height="16" viewBox="0 0 16 16" fill="none" xmlns="http://www.w3.org/2000/svg">
<path d="M13.7402 8.00977H10.7702C10.4402 8.00977 10.2002 8.30977 10.2302 8.63977L10.7402 12.2998C10.8002 12.6298 10.5302 12.9298 10.2002 12.9298C9.90016 12.9298 9.66016 13.1698 9.66016 13.4998V14.5498C9.66016 14.8498 9.90016 15.1198 10.2002 15.1198H11.1002H13.7702H14.5502C14.8802 15.1198 15.1202 14.8198 15.0902 14.4898L14.2802 8.54977C14.2502 8.21977 14.0102 8.00977 13.7402 8.00977Z" fill="white"/>
<path d="M15.091 5.73L14.521 1.44C14.401 0.600001 13.741 0 12.961 0H8.01097C7.08097 0 6.36097 0.87 6.45097 1.86C6.45097 1.92 6.45097 2.01 6.45097 2.07V5.58C6.45097 6.63 7.26096 7.5 8.28096 7.62C8.37096 7.65 8.49097 7.65 8.61097 7.65H13.591C14.491 7.65 15.211 6.72 15.091 5.73Z" fill="white"/>
<path d="M5.79 1.67969H3.54C2.91 1.67969 2.43 2.18969 2.43 2.78969V2.99969H1.71C1.44 2.99969 1.2 3.17969 1.2 3.41969V3.92969H0.18C0.0899995 3.92969 0 4.01969 0 4.10969V4.37969C0 4.46969 0.0899995 4.55969 0.18 4.55969H1.2V4.91969C1.2 5.12969 1.44 5.33969 1.71 5.33969H2.46C2.55 5.87969 3 6.29969 3.57 6.29969H5.82C5.88 6.29969 5.94 6.29969 5.97 6.29969V1.67969C5.88 1.67969 5.82 1.67969 5.79 1.67969Z" fill="white"/>
<path d="M9.89961 8.25H9.77961C9.74961 8.25 9.71961 8.28 9.68961 8.37C9.62961 8.67 9.50961 9.12 9.26961 9.51C8.87961 10.2 8.39961 10.29 8.18961 10.32C8.12961 10.32 8.09961 10.41 8.09961 10.5C8.09961 10.59 8.12961 10.68 8.18961 10.68H9.86961C9.92961 10.68 9.95961 10.59 9.95961 10.5V8.43C9.98961 8.34 9.95961 8.25 9.89961 8.25Z" fill="white"/>
</svg>
