<svg width="20" height="8" viewBox="0 0 20 8" fill="none" xmlns="http://www.w3.org/2000/svg">
<path d="M17.9105 6.83937H16.2605C15.1805 6.83937 14.3105 5.93937 14.3105 4.82937V3.11937C14.3105 2.00937 15.1805 1.10938 16.2605 1.10938H17.9105C18.9905 1.10938 19.8605 2.00937 19.8605 3.11937V4.82937C19.8605 5.93937 18.9905 6.83937 17.9105 6.83937ZM16.2605 2.12937C15.7505 2.12937 15.3005 2.57937 15.3005 3.11937V4.82937C15.3005 5.36937 15.7205 5.81937 16.2605 5.81937H17.9105C18.4205 5.81937 18.8705 5.36937 18.8705 4.82937V3.11937C18.8705 2.57937 18.4505 2.12937 17.9105 2.12937H16.2605Z" fill="white"/>
<path d="M17.7297 1.76953H15.1797V6.11954H17.7297V1.76953Z" fill="white"/>
<path d="M19.3205 7.26078C19.0505 7.26078 18.8105 7.05078 18.8105 6.75078V5.31078C18.8105 5.04078 19.0205 4.80078 19.3205 4.80078C19.5905 4.80078 19.8305 5.01078 19.8305 5.31078V6.75078C19.8305 7.02078 19.5905 7.26078 19.3205 7.26078Z" fill="white"/>
<path d="M6.21 2.55078H5.58C5.4 2.55078 5.22 2.70078 5.22 2.91078V3.42078H0.990001C0.930001 3.33078 0.84 3.27078 0.72 3.27078H0.36C0.18 3.27078 0 3.42078 0 3.63078V4.62078C0 4.83078 0.15 4.98078 0.36 4.98078H0.72C0.84 4.98078 0.930001 4.92078 0.990001 4.83078H5.22V5.40078C5.22 5.61079 5.37 5.76078 5.58 5.76078H6.21C6.39 5.76078 6.57 5.61079 6.57 5.40078V2.91078C6.54 2.73078 6.39 2.55078 6.21 2.55078Z" fill="white"/>
<path d="M11.1897 0H10.5897C10.4097 0 10.2297 0.149999 10.2297 0.359999V0.989999H8.03969C7.43969 0.989999 6.92969 1.5 6.92969 2.13V5.82C6.92969 6.45 7.40969 6.96 8.03969 6.96H10.2297V7.47C10.2297 7.68 10.3797 7.83 10.5897 7.83H11.1897C11.3697 7.83 11.5497 7.68 11.5497 7.47V0.359999C11.5197 0.149999 11.3697 0 11.1897 0Z" fill="white"/>
<path d="M16.2307 0.599609H11.9707V7.34961H16.2307C16.8307 7.34961 17.3407 6.83961 17.3407 6.20961V1.73961C17.3407 1.10961 16.8307 0.599609 16.2307 0.599609Z" fill="white"/>
</svg>
