<svg width="12" height="18" viewBox="0 0 12 18" fill="none" xmlns="http://www.w3.org/2000/svg">
<path d="M10.2898 11.8809C10.0498 11.8809 9.83984 12.0909 9.83984 12.3309V14.7009C9.83984 14.9409 10.0498 15.1509 10.2898 15.1509H10.3798C10.6198 15.1509 10.8298 14.9409 10.8298 14.7009V12.3309C10.8298 12.0909 10.6198 11.8809 10.3798 11.8809H10.2898Z" fill="white"/>
<path d="M0.540001 11.8809H0.450001C0.21 11.8809 0 12.0909 0 12.3309V14.7009C0 14.9409 0.21 15.1509 0.450001 15.1509H0.540001C0.780001 15.1509 0.990002 14.9409 0.990002 14.7009V12.3309C0.990002 12.0909 0.810001 11.8809 0.540001 11.8809Z" fill="white"/>
<path d="M11.8198 15.9C10.7398 15.54 9.74977 15.48 8.84977 15.72C8.00977 15.96 7.40977 16.44 6.92977 16.83C6.35977 17.28 6.02977 17.52 5.60977 17.43C5.12977 17.31 4.73977 16.77 4.76977 16.44C4.76977 16.26 4.91977 16.14 5.18977 15.96C5.39977 15.81 5.66977 15.6 5.84977 15.27C6.14977 14.76 6.20977 14.1 5.96977 13.26H8.87977C8.90977 13.26 8.96977 13.26 8.99977 13.23V13.71C8.99977 13.89 9.14977 14.01 9.29977 14.01C9.44977 14.01 9.59977 13.86 9.59977 13.71V0.51H10.1398C10.2598 0.51 10.3498 0.42 10.3498 0.3V0.21C10.3498 0.0899997 10.2598 0 10.1398 0H9.17977C9.05977 0 8.96977 0.0899997 8.96977 0.21C8.93977 0.24 8.93977 0.3 8.93977 0.33V12.63C8.90977 12.63 8.87977 12.6 8.81977 12.6H5.75977C5.75977 12.57 5.72977 12.54 5.72977 12.48V12.33H6.14977C7.58977 12.33 8.78977 11.16 8.78977 9.69V4.68C8.78977 3.57 8.09977 2.61 7.10977 2.22V1.29C7.10977 1.23 7.10977 1.2 7.07977 1.14C7.07977 1.05 6.98977 0.96 6.86977 0.96H5.90977C5.78977 0.96 5.69977 1.05 5.69977 1.17V1.26C5.69977 1.38 5.78977 1.47 5.90977 1.47H6.47977V2.1C6.35977 2.1 6.26977 2.07 6.14977 2.07H4.67977C4.61977 2.07 4.55977 2.07 4.52977 2.07V1.89C4.73977 1.8 4.91977 1.56 4.91977 1.32C4.91977 0.99 4.64977 0.69 4.28977 0.69C3.95977 0.69 3.65977 0.96 3.65977 1.32C3.65977 1.59 3.80977 1.8 4.04977 1.89V2.16C2.90977 2.46 2.06977 3.48 2.06977 4.71V9.84C2.06977 11.28 3.23977 12.48 4.70977 12.48H5.09977V12.72H1.94977C1.91977 12.72 1.85977 12.72 1.82977 12.75V0.48C1.85977 0.45 1.88977 0.39 1.88977 0.36V0.27C1.88977 0.15 1.79977 0.0599997 1.67977 0.0599997H0.719766C0.599766 0.0599997 0.509766 0.15 0.509766 0.27V0.36C0.509766 0.48 0.599766 0.57 0.719766 0.57H1.19977V13.77C1.19977 13.95 1.34977 14.07 1.49977 14.07C1.64977 14.07 1.79977 13.92 1.79977 13.77V13.29C1.82977 13.29 1.85977 13.32 1.91977 13.32H5.45977C5.69977 14.07 5.66977 14.64 5.42977 15.06C5.27977 15.3 5.06977 15.45 4.88977 15.6C4.61977 15.81 4.31977 16.02 4.28977 16.44C4.22977 17.07 4.79977 17.76 5.48977 17.94C5.60977 17.97 5.69977 17.97 5.78977 17.97C6.32977 17.97 6.77977 17.61 7.22977 17.25C7.70977 16.86 8.24977 16.44 8.99977 16.23C9.80977 15.99 10.7098 16.05 11.6698 16.38C11.7898 16.44 11.9398 16.35 11.9698 16.23C12.0298 16.11 11.9698 15.96 11.8198 15.9Z" fill="white"/>
</svg>
