<svg width="22" height="18" viewBox="0 0 22 18" fill="none" xmlns="http://www.w3.org/2000/svg">
<path d="M8.54167 6.00026L8.675 12.4336V12.4669L7.875 14.0669C7.875 14.1003 7.875 14.1336 7.90833 14.1669C7.90833 14.4003 8.04167 14.6003 8.24167 14.6669C8.40833 14.7336 8.64167 14.7003 8.775 14.5669H8.80833C8.80833 14.5669 8.84167 14.5669 8.84167 14.5336L9.70833 12.8003C9.70833 12.7669 9.74166 12.7669 9.775 12.7669L9.64166 6.00026C9.64166 5.96693 9.60833 5.93359 9.575 5.93359L8.575 5.96693C8.575 5.93359 8.54167 5.96693 8.54167 6.00026Z" fill="white"/>
<path d="M21.8085 16.501L19.3752 10.201C19.2752 9.96771 19.0752 9.80104 18.8418 9.76771C17.7418 9.56771 16.9085 8.60104 16.9085 7.43437C16.9085 6.76771 17.1752 6.13438 17.6418 5.73438H12.6085C12.1418 5.73438 11.8085 6.23437 11.9752 6.66771L15.9752 17.001C16.0752 17.2677 16.3418 17.4344 16.6085 17.4344H21.1752C21.6418 17.4344 21.9752 16.9344 21.8085 16.501Z" fill="white"/>
<path d="M17.7411 5.63399L15.6745 3.80065C15.6411 3.73398 15.6078 3.70065 15.5745 3.63399L12.7078 0.967318C12.6078 0.900651 12.5078 0.833984 12.3745 0.833984H10.6411C10.5078 0.833984 10.4078 0.867318 10.3078 0.967318L7.50781 3.56732H2.14115C1.80781 3.56732 1.50781 3.76732 1.50781 4.00065V5.90065C1.50781 6.13399 1.77448 6.33399 2.14115 6.33399H7.60781C7.60781 5.50065 8.27448 4.83399 9.10781 4.83399C9.94115 4.83399 10.6078 5.50065 10.6078 6.33399H17.2745C17.7745 6.36732 18.0745 5.93399 17.7411 5.63399ZM13.1078 3.40065H9.90781C9.70781 3.40065 9.64115 3.16732 9.77448 3.03398L11.0078 1.90065C11.0411 1.86732 11.1078 1.83398 11.1411 1.83398H11.8745C11.9411 1.83398 11.9745 1.86732 12.0078 1.90065L13.2411 3.03398C13.3745 3.20065 13.3078 3.40065 13.1078 3.40065Z" fill="white"/>
<path d="M9.10781 7.46758C9.71533 7.46758 10.2078 6.97509 10.2078 6.36758C10.2078 5.76006 9.71533 5.26758 9.10781 5.26758C8.5003 5.26758 8.00781 5.76006 8.00781 6.36758C8.00781 6.97509 8.5003 7.46758 9.10781 7.46758Z" fill="white"/>
<path d="M14.8415 5.90039H10.9082V8.16706C10.9082 8.16706 12.6749 8.53372 13.4415 10.4671L12.8749 8.16706H14.8415V5.90039Z" fill="white"/>
<path d="M10.7414 7.83412C10.5747 7.83412 10.4414 7.70078 10.4414 7.53412V7.10078C10.4414 6.93412 10.5747 6.80078 10.7414 6.80078C10.9081 6.80078 11.0414 6.93412 11.0414 7.10078V7.53412C11.0747 7.70078 10.9081 7.83412 10.7414 7.83412Z" fill="white"/>
<path d="M10.6734 7.56823H9.50677C9.37344 7.56823 9.27344 7.46823 9.27344 7.3349C9.27344 7.20156 9.37344 7.10156 9.50677 7.10156H10.6734C10.8068 7.10156 10.9068 7.20156 10.9068 7.3349C10.9068 7.46823 10.7734 7.56823 10.6734 7.56823Z" fill="white"/>
<path d="M0.841015 5.89971C1.47435 6.09971 2.14101 5.63304 2.14101 4.96637C2.14101 4.29971 1.47435 3.83304 0.841015 4.03304C-0.0589842 4.33304 -0.0589842 5.59971 0.841015 5.89971Z" fill="white"/>
</svg>
