<svg width="17" height="14" viewBox="0 0 17 14" fill="none" xmlns="http://www.w3.org/2000/svg">
<path d="M4.19969 2.19C4.22969 2.07 4.28969 2.01 4.34969 1.92C4.40969 1.83 4.49969 1.77 4.58969 1.71C4.76969 1.59 4.97969 1.5 5.15969 1.41C5.24969 1.38 5.36969 1.32 5.48969 1.29C5.60969 1.26 5.69969 1.23 5.81969 1.2C6.23969 1.08 6.68969 1.02 7.16969 0.960001C7.40969 0.930001 7.61969 0.930001 7.85969 0.900001C7.97969 0.900001 8.09969 0.900001 8.21969 0.900001C8.33969 0.900001 8.45969 0.900001 8.57969 0.900001C8.81969 0.900001 9.05968 0.900001 9.26968 0.900001C9.50968 0.900001 9.71968 0.930001 9.95968 0.930001C10.4097 0.960001 10.8597 1.05 11.3097 1.17C11.3697 1.17 11.4297 1.2 11.4597 1.23L11.6097 1.29C11.6697 1.32 11.7297 1.32 11.7597 1.35C11.8197 1.38 11.8797 1.38 11.9097 1.41C12.1197 1.5 12.3297 1.59 12.4797 1.71C12.5697 1.77 12.6597 1.83 12.7197 1.92C12.7797 2.01 12.8397 2.07 12.8697 2.19C12.9297 2.4 12.9597 2.64 12.9297 2.88C13.0497 2.67 13.1397 2.43 13.1397 2.16C13.1397 2.1 13.1397 2.01 13.1097 1.95C13.0797 1.89 13.0797 1.8 13.0497 1.74C12.9897 1.62 12.8997 1.5 12.8097 1.38C12.6297 1.17 12.4197 0.990001 12.2097 0.87C12.1497 0.84 12.0897 0.810001 12.0597 0.780001C11.9997 0.750001 11.9397 0.720001 11.8797 0.690001L11.6997 0.6C11.6397 0.57 11.5797 0.540001 11.5197 0.510001C11.2797 0.39 11.0397 0.33 10.7997 0.27C10.5597 0.21 10.2897 0.15 10.0497 0.12C9.92969 0.0899999 9.80968 0.0900003 9.65968 0.0600003L9.47968 0.0300001H9.29969C9.05969 1.13994e-07 8.78969 0 8.54969 0C8.30969 0 8.03969 1.13994e-07 7.79969 0.0300001L7.61969 0.0600003L7.43969 0.0900004C7.31969 0.0900004 7.19969 0.12 7.04969 0.15C6.80969 0.18 6.53969 0.24 6.29969 0.3C6.05969 0.36 5.81969 0.45 5.57969 0.57C5.33969 0.69 5.12969 0.780001 4.88969 0.930001C4.67969 1.08 4.46969 1.23 4.28969 1.44C4.19969 1.53 4.10969 1.65 4.04969 1.77C4.01969 1.83 3.98969 1.89 3.98969 1.98C3.92969 2.01 3.92969 2.1 3.92969 2.16C3.92969 2.43 4.01969 2.7 4.13969 2.88C4.10969 2.64 4.10969 2.4 4.19969 2.19Z" fill="white"/>
<path d="M12.8697 11.3704C12.8397 11.4904 12.7797 11.5504 12.7197 11.6404C12.6597 11.7304 12.5697 11.7904 12.4797 11.8504C12.2997 11.9704 12.1197 12.0904 11.9097 12.1504C11.8497 12.1804 11.8197 12.1804 11.7597 12.2104C11.6997 12.2404 11.6697 12.2404 11.6097 12.2704L11.4297 12.3304C11.3697 12.3604 11.3097 12.3604 11.2797 12.3904C10.8297 12.4804 10.3797 12.5404 9.92969 12.6004C9.68969 12.6304 9.47969 12.6304 9.23969 12.6304C8.99969 12.6304 8.78969 12.6304 8.54969 12.6304C8.42969 12.6304 8.30969 12.6304 8.18969 12.6304C8.06969 12.6304 7.94969 12.6304 7.82969 12.6304C7.58969 12.6304 7.37969 12.6004 7.13969 12.5704C6.68969 12.5404 6.23969 12.4504 5.78969 12.3304C5.66969 12.3004 5.57969 12.2704 5.45969 12.2404C5.33969 12.2104 5.24969 12.1504 5.12969 12.1204C4.91969 12.0304 4.70969 11.9404 4.55969 11.8204C4.46969 11.7604 4.37969 11.7004 4.31969 11.6104C4.25969 11.5204 4.19969 11.4604 4.16969 11.3404C4.10969 11.1304 4.07969 10.8904 4.13969 10.6504C4.01969 10.8604 3.92969 11.1004 3.92969 11.3704C3.92969 11.4304 3.92969 11.5204 3.95969 11.5804C3.98969 11.6404 4.01969 11.7304 4.01969 11.7904C4.07969 11.9104 4.16969 12.0304 4.25969 12.1204C4.43969 12.3304 4.64969 12.4804 4.85969 12.6304C5.06969 12.7804 5.30969 12.9004 5.54969 12.9904C5.78969 13.0804 6.02969 13.1704 6.26969 13.2604C6.50969 13.3204 6.77969 13.3804 7.01969 13.4104C7.13969 13.4404 7.25969 13.4404 7.40969 13.4704L7.58969 13.5004L7.76969 13.5304C8.00969 13.5604 8.27969 13.5604 8.51969 13.5604C8.75969 13.5604 9.02969 13.5604 9.26969 13.5304H9.44969L9.62969 13.5004C9.74969 13.5004 9.86969 13.4704 10.0197 13.4404C10.2597 13.4104 10.5297 13.3504 10.7697 13.2904C11.0097 13.2304 11.2497 13.1404 11.4897 13.0504C11.5497 13.0204 11.6097 12.9904 11.6697 12.9604L11.8497 12.8704C11.9097 12.8404 11.9697 12.8104 12.0297 12.7804C12.0897 12.7504 12.1497 12.7204 12.1797 12.6904C12.3897 12.5404 12.5997 12.3904 12.7797 12.1804C12.8697 12.0904 12.9597 11.9704 13.0197 11.8204C13.0497 11.7604 13.0797 11.7004 13.0797 11.6104C13.1097 11.5504 13.1097 11.4604 13.1097 11.4004C13.1097 11.1304 13.0197 10.8604 12.8997 10.6804C12.9597 10.9204 12.9597 11.1604 12.8697 11.3704Z" fill="white"/>
<path d="M5.73086 11.7299V1.91992C5.43086 2.00992 5.10086 2.06992 4.80086 2.18992V6.38992C4.56086 6.47992 4.38086 6.71992 4.38086 6.98992C4.38086 7.25992 4.56086 7.49992 4.80086 7.58992V11.4599C5.10086 11.5499 5.40086 11.6399 5.73086 11.7299Z" fill="white"/>
<path d="M9.75 1.61914V11.9991C9.78 11.9991 9.84 11.9991 9.87 11.9991C10.11 11.9691 10.32 11.9391 10.56 11.9091C10.59 11.9091 10.65 11.8791 10.68 11.8791V1.76914C10.65 1.76914 10.59 1.73914 10.56 1.73914C10.35 1.70914 10.11 1.67914 9.87 1.64914C9.81 1.64914 9.78 1.64914 9.75 1.61914Z" fill="white"/>
<path d="M8.00977 1.61984V12.0598C8.15977 12.0598 8.33977 12.0598 8.48976 12.0598C8.63976 12.0598 8.78976 12.0598 8.93976 12.0598V1.58984C8.78976 1.58984 8.63976 1.58984 8.48976 1.58984C8.33977 1.58984 8.15977 1.58984 8.00977 1.61984Z" fill="white"/>
<path d="M6.39062 11.8504C6.69063 11.9104 7.02063 11.9404 7.32063 11.9704V1.65039C7.02063 1.68039 6.69063 1.71039 6.39062 1.77039V11.8504Z" fill="white"/>
<path d="M0.630001 4.79906C0.97794 4.79906 1.26 4.517 1.26 4.16906C1.26 3.82112 0.97794 3.53906 0.630001 3.53906C0.282061 3.53906 0 3.82112 0 4.16906C0 4.517 0.282061 4.79906 0.630001 4.79906Z" fill="white"/>
<path d="M0.630001 6.68969C0.97794 6.68969 1.26 6.40763 1.26 6.05969C1.26 5.71175 0.97794 5.42969 0.630001 5.42969C0.282061 5.42969 0 5.71175 0 6.05969C0 6.40763 0.282061 6.68969 0.630001 6.68969Z" fill="white"/>
<path d="M0.630001 8.69945C0.97794 8.69945 1.26 8.41739 1.26 8.06945C1.26 7.72151 0.97794 7.43945 0.630001 7.43945C0.282061 7.43945 0 7.72151 0 8.06945C0 8.41739 0.282061 8.69945 0.630001 8.69945Z" fill="white"/>
<path d="M0.630001 10.5901C0.97794 10.5901 1.26 10.308 1.26 9.96008C1.26 9.61214 0.97794 9.33008 0.630001 9.33008C0.282061 9.33008 0 9.61214 0 9.96008C0 10.308 0.282061 10.5901 0.630001 10.5901Z" fill="white"/>
<path d="M2.13 5.67015C2.47794 5.67015 2.76 5.38809 2.76 5.04016C2.76 4.69222 2.47794 4.41016 2.13 4.41016C1.78206 4.41016 1.5 4.69222 1.5 5.04016C1.5 5.38809 1.78206 5.67015 2.13 5.67015Z" fill="white"/>
<path d="M2.13 7.70922C2.47794 7.70922 2.76 7.42716 2.76 7.07922C2.76 6.73128 2.47794 6.44922 2.13 6.44922C1.78206 6.44922 1.5 6.73128 1.5 7.07922C1.5 7.42716 1.78206 7.70922 2.13 7.70922Z" fill="white"/>
<path d="M2.13 9.57055C2.47794 9.57055 2.76 9.28849 2.76 8.94055C2.76 8.59261 2.47794 8.31055 2.13 8.31055C1.78206 8.31055 1.5 8.59261 1.5 8.94055C1.5 9.28849 1.78206 9.57055 2.13 9.57055Z" fill="white"/>
<path d="M3.63 6.75023C3.97794 6.75023 4.26 6.46817 4.26 6.12023C4.26 5.77229 3.97794 5.49023 3.63 5.49023C3.28206 5.49023 3 5.77229 3 6.12023C3 6.46817 3.28206 6.75023 3.63 6.75023Z" fill="white"/>
<path d="M3.63 8.64086C3.97794 8.64086 4.26 8.3588 4.26 8.01086C4.26 7.66292 3.97794 7.38086 3.63 7.38086C3.28206 7.38086 3 7.66292 3 8.01086C3 8.3588 3.28206 8.64086 3.63 8.64086Z" fill="white"/>
<path d="M12.2697 7.91992V7.31992H15.7797C16.0497 7.31992 16.2297 7.10992 16.2297 6.86992C16.2297 6.59992 16.0197 6.41992 15.7797 6.41992H12.2697V5.78992C12.3597 5.78992 12.4797 5.78992 12.5697 5.78992C13.5897 5.78992 14.9697 5.51992 16.1397 4.22992C16.3197 4.04992 16.2897 3.74992 16.1097 3.56992C15.9297 3.38992 15.6297 3.41992 15.4497 3.59992C14.3997 4.73992 13.0797 4.88992 12.2697 4.82992V2.18992C11.9697 2.06992 11.6397 1.97992 11.3397 1.91992V4.67992C11.1297 4.67992 10.9497 4.79992 10.8897 5.00992C10.7997 5.24992 10.9497 5.51992 11.1897 5.57992C11.1897 5.57992 11.2497 5.60992 11.3397 5.60992V6.35992C11.0697 6.35992 10.8897 6.56992 10.8897 6.80992C10.8897 7.07992 11.0997 7.25992 11.3397 7.25992V8.00992C11.2497 8.03992 11.2197 8.03992 11.1897 8.03992C10.9497 8.12992 10.7997 8.36992 10.8897 8.60992C10.9497 8.81992 11.1297 8.93992 11.3397 8.93992V11.6999C11.6397 11.6099 11.9697 11.5199 12.2697 11.4299V8.81992C13.0797 8.75992 14.3997 8.90992 15.4497 10.0499C15.5397 10.1399 15.6597 10.1999 15.7797 10.1999C15.8997 10.1999 15.9897 10.1699 16.0797 10.0799C16.2597 9.89992 16.2897 9.59992 16.1097 9.41992C14.8497 8.06992 13.2897 7.85992 12.2697 7.91992Z" fill="white"/>
</svg>
