<svg width="21" height="15" viewBox="0 0 21 15" fill="none" xmlns="http://www.w3.org/2000/svg">
<path d="M10.2605 1.64945L11.5805 6.50945V6.53945L11.3105 7.88945C11.3105 7.91945 11.3105 7.94945 11.3405 7.94945C11.3705 8.12945 11.5205 8.24945 11.6705 8.27945C11.8205 8.30945 11.9405 8.24945 12.0305 8.12945H12.0605L12.0905 8.09945L12.3605 6.62945C12.3605 6.59945 12.3905 6.59945 12.3905 6.59945L10.9805 1.46945C10.9805 1.43945 10.9505 1.43945 10.9205 1.43945L10.2305 1.61945C10.2605 1.58945 10.2605 1.61945 10.2605 1.64945Z" fill="white"/>
<path d="M20.0995 10.2004L18.3295 5.61039C18.2695 5.46039 18.1195 5.34039 17.9395 5.31039C17.1295 5.16039 16.5295 4.47039 16.5295 3.63039C16.5295 3.15039 16.7395 2.70039 17.0695 2.40039H13.4095C13.0495 2.40039 12.8095 2.76039 12.9595 3.09039L15.8695 10.5904C15.9295 10.7704 16.1395 10.9204 16.3195 10.9204H19.6195C19.9795 10.8904 20.2195 10.5304 20.0995 10.2004Z" fill="white"/>
<path d="M14.9696 0H5.54961C5.30961 0 5.09961 0.21 5.09961 0.45V2.37C5.09961 2.61 5.30961 2.82 5.54961 2.82H16.5296C16.9196 2.82 17.1296 2.37 16.8896 2.1L15.3596 0.18C15.2396 0.0600001 15.1196 0 14.9696 0Z" fill="white"/>
<path d="M4.11008 2.81929C3.69008 2.81929 3.33008 2.45929 3.33008 2.03929V0.809296C3.33008 0.389296 3.69008 0.0292969 4.11008 0.0292969C4.53008 0.0292969 4.89008 0.389296 4.89008 0.809296V2.03929C4.89008 2.45929 4.53008 2.81929 4.11008 2.81929Z" fill="white"/>
<path d="M5.64062 2.78977C5.64062 2.36977 6.00062 2.00977 6.42062 2.00977H7.05063C7.47063 2.00977 7.83062 2.36977 7.83062 2.78977C7.83062 3.20977 7.47063 3.56977 7.05063 3.56977H6.42062C5.97062 3.56977 5.64062 3.20977 5.64062 2.78977Z" fill="white"/>
<path d="M3.03 1.97984H0.57C0.27 1.97984 0 1.73984 0 1.40984C0 1.10984 0.24 0.839844 0.57 0.839844H3.03C3.33 0.839844 3.6 1.07984 3.6 1.40984C3.6 1.70984 3.36 1.97984 3.03 1.97984Z" fill="white"/>
<path d="M15.6327 3.08429L11.3184 3.83984L11.5409 5.11049L15.8552 4.35494L15.6327 3.08429Z" fill="white"/>
<path d="M6.11954 14.0098C5.99954 14.0098 5.90954 13.9498 5.87954 13.8298C5.57954 12.9898 5.36954 12.0898 5.27954 11.1898C5.15954 9.98984 5.06954 9.20984 5.42954 8.30984C5.48954 8.18984 5.69954 7.67984 6.11954 7.13984C6.02954 5.87984 6.20954 4.49984 6.59954 3.08984C6.62954 2.93984 6.77954 2.87984 6.92954 2.90984C7.07954 2.93984 7.13954 3.08984 7.10954 3.23984C6.77954 4.40984 6.59954 5.57984 6.62954 6.65984C7.04954 6.29984 7.58954 6.02984 8.24954 6.02984C9.29954 5.99984 10.5895 6.62984 10.8895 7.82984C11.0995 8.72984 10.7095 9.74984 9.89954 10.2598C8.99954 10.8598 7.91954 10.6498 7.28954 10.1998C6.68954 9.77984 6.47954 9.11984 6.32954 8.45984C6.29954 8.27984 6.26954 8.09984 6.23954 7.91984C6.05954 8.21984 5.96954 8.45984 5.93954 8.51984C5.60954 9.29984 5.69954 9.98984 5.81954 11.1298C5.90954 11.9998 6.11954 12.8398 6.41954 13.6498C6.47954 13.7698 6.38954 13.9198 6.26954 13.9798C6.17954 14.0098 6.14954 14.0098 6.11954 14.0098ZM6.65954 7.34984C6.68954 7.70984 6.74954 8.03984 6.80954 8.39984C6.98954 9.14984 7.19954 9.56984 7.55954 9.83984C8.03954 10.1698 8.87954 10.3498 9.59954 9.86984C10.2295 9.44984 10.5295 8.66984 10.3795 7.97984C10.1395 6.98984 8.99954 6.53984 8.24954 6.56984C7.55954 6.56984 7.01954 6.92984 6.65954 7.34984Z" fill="white"/>
<path d="M18.4505 11.5209H17.5505C17.2505 11.5209 16.9805 11.2809 16.9805 10.9509C16.9805 10.6509 17.2205 10.3809 17.5505 10.3809H18.4505C18.7505 10.3809 19.0205 10.6209 19.0205 10.9509C19.0205 11.2809 18.7505 11.5209 18.4505 11.5209Z" fill="white"/>
</svg>
