<svg width="15" height="12" viewBox="0 0 15 12" fill="none" xmlns="http://www.w3.org/2000/svg">
<path d="M8.05172 3.30078H6.76172V3.69078H8.05172V3.30078Z" fill="white"/>
<path d="M8.05172 2.55078H6.76172V2.94078H8.05172V2.55078Z" fill="white"/>
<path d="M9.43172 0.12L8.65172 0C8.56172 0 8.50172 0.06 8.50172 0.15V1.14C8.50172 1.17 8.53172 1.23 8.56172 1.26H8.29172C8.35172 1.23 8.38172 1.2 8.38172 1.14V0.15C8.38172 0.06 8.32172 0 8.23172 0H6.58172C6.49172 0 6.43172 0.06 6.43172 0.15V1.14C6.43172 1.2 6.46172 1.26 6.52172 1.26H6.28172C6.31172 1.23 6.34172 1.2 6.34172 1.14V0.15C6.34172 0.06 6.28172 0 6.19172 0L5.38172 0.12C5.32172 0.12 5.26172 0.18 5.26172 0.27V1.26C5.26172 1.35 5.32172 1.41 5.41172 1.41L6.13172 1.32C6.04172 1.38 5.98172 1.47 5.98172 1.56V1.71C5.98172 1.86 6.10172 2.01 6.28172 2.01H6.76172V2.22H8.05172V2.01H8.53172C8.68172 2.01 8.83172 1.89 8.83172 1.71V1.56C8.83172 1.44 8.77172 1.35 8.68172 1.32L9.40172 1.41C9.49172 1.41 9.55172 1.35 9.55172 1.26V0.27C9.55172 0.18 9.49172 0.12 9.43172 0.12Z" fill="white"/>
<path d="M8.05094 8.13008V4.08008H6.76094C6.76094 5.43008 6.76094 6.78008 6.76094 8.13008C6.64094 8.13008 6.46094 8.28008 6.46094 8.49008V9.54008C6.49094 9.78008 6.61094 9.96008 6.76094 9.96008C6.76094 10.1701 6.76094 10.3801 6.76094 10.5901C6.79094 10.6201 7.00094 10.8301 7.39094 10.8301C7.78094 10.8301 8.05094 10.6201 8.05094 10.5901V9.96008C8.20094 9.96008 8.32094 9.78008 8.35094 9.54008V8.49008C8.35094 8.28008 8.20094 8.13008 8.05094 8.13008Z" fill="white"/>
<path d="M11.5708 4.22862L11.4863 4.60938L12.7458 4.88866L12.8302 4.5079L11.5708 4.22862Z" fill="white"/>
<path d="M11.7426 3.51182L11.6582 3.89258L12.9176 4.17186L13.0021 3.79111L11.7426 3.51182Z" fill="white"/>
<path d="M14.8923 1.70984L14.1423 1.43984C14.0523 1.40984 13.9923 1.46984 13.9623 1.52984L13.7523 2.48984C13.7523 2.51984 13.7523 2.57984 13.7823 2.60984L13.5423 2.54984C13.6023 2.54984 13.6323 2.48984 13.6623 2.42984L13.8723 1.43984C13.9023 1.37984 13.8423 1.28984 13.7823 1.28984L12.1323 0.959844C12.0723 0.929844 11.9823 0.989843 11.9823 1.04984L11.7723 2.03984C11.7723 2.09984 11.7723 2.15984 11.8323 2.18984L11.5923 2.12984C11.6223 2.09984 11.6523 2.06984 11.6523 2.03984L11.8623 1.07984C11.8923 0.989844 11.8323 0.929843 11.7423 0.899843L10.9323 0.839844C10.8723 0.839844 10.8123 0.869844 10.7823 0.959844L10.5723 1.91984C10.5423 2.00984 10.6023 2.06984 10.6923 2.09984L11.4123 2.15984C11.3223 2.18984 11.2323 2.27984 11.2023 2.36984L11.1723 2.51984C11.1423 2.66984 11.2323 2.84984 11.3823 2.87984L11.8323 2.96984L11.8023 3.14984L13.0623 3.41984L13.0923 3.23984L13.5423 3.32984C13.6923 3.35984 13.8723 3.26984 13.9023 3.11984L13.9323 2.96984C13.9623 2.84984 13.9323 2.75984 13.8423 2.69984L14.5023 2.93984C14.5923 2.96984 14.6523 2.90984 14.6823 2.84984L14.8923 1.88984C14.9823 1.79984 14.9523 1.73984 14.8923 1.70984Z" fill="white"/>
<path d="M11.8013 9.23977L12.6713 5.27977L11.4113 5.00977C11.1113 6.32977 10.8413 7.64977 10.5413 8.96977C10.4213 8.93977 10.2113 9.05977 10.1813 9.26977L9.94129 10.2598C9.91129 10.4998 10.0013 10.7098 10.1513 10.7398C10.0913 10.9498 10.0613 11.1598 10.0013 11.3698C10.0313 11.3998 10.1813 11.6698 10.5713 11.7598C10.9613 11.8498 11.2613 11.6698 11.2913 11.6698L11.4413 11.0398C11.5913 11.0698 11.7413 10.9198 11.8313 10.6798L12.0713 9.65977C12.0713 9.44977 11.9213 9.26977 11.8013 9.23977Z" fill="white"/>
<path d="M3.37661 4.24611L2.11719 4.52539L2.20162 4.90615L3.46105 4.62686L3.37661 4.24611Z" fill="white"/>
<path d="M3.19302 3.50001L1.93359 3.7793L2.01803 4.16005L3.27746 3.88077L3.19302 3.50001Z" fill="white"/>
<path d="M0.0717689 1.71055L0.821769 1.44055C0.911769 1.41055 0.97177 1.47055 1.00177 1.53055L1.21177 2.49055C1.21177 2.52055 1.21177 2.58055 1.18177 2.61055L1.42177 2.55055C1.36177 2.55055 1.33177 2.49055 1.30177 2.43055L1.09177 1.44055C1.06177 1.38055 1.12177 1.29055 1.18177 1.29055L2.77177 0.930547C2.83177 0.900547 2.92177 0.960547 2.92177 1.02055L3.13177 2.01055C3.13177 2.07055 3.13177 2.13055 3.07177 2.16055L3.31177 2.10055C3.28177 2.07055 3.25177 2.04055 3.25177 2.01055L3.04177 1.05055C3.01177 0.960547 3.07177 0.900547 3.16177 0.870547L3.97177 0.810547C4.03177 0.810547 4.09177 0.840547 4.12177 0.930547L4.33177 1.89055C4.36177 1.98055 4.30177 2.04055 4.21177 2.07055L3.49177 2.13055C3.58177 2.16055 3.67177 2.25055 3.70177 2.34055L3.73177 2.49055C3.76177 2.64055 3.67177 2.82055 3.52177 2.85055L3.07177 2.94055L3.10177 3.12055L1.84177 3.39055L1.81177 3.21055L1.36177 3.30055C1.21177 3.33055 1.03177 3.24055 1.00177 3.09055L0.971769 2.94055C0.941769 2.82055 0.97177 2.73055 1.06177 2.67055L0.401769 2.91055C0.311769 2.94055 0.251769 2.88055 0.221769 2.82055L0.0117692 1.86055C-0.0182308 1.80055 0.0117689 1.74055 0.0717689 1.71055Z" fill="white"/>
<path d="M3.16101 9.23977L2.29102 5.27977L3.55102 5.00977C3.85102 6.32977 4.12102 7.64977 4.42102 8.96977C4.54102 8.93977 4.75102 9.05977 4.78102 9.26977L5.02101 10.2898C5.05101 10.5298 4.96101 10.7398 4.81101 10.7698C4.87101 10.9798 4.90101 11.1898 4.96101 11.3998C4.93101 11.4298 4.78102 11.6998 4.39102 11.7898C4.00102 11.8798 3.70102 11.6998 3.67102 11.6998L3.52102 11.0698C3.37102 11.0998 3.22102 10.9498 3.13102 10.7098L2.95102 9.65977C2.89102 9.44977 3.04101 9.26977 3.16101 9.23977Z" fill="white"/>
</svg>
