<svg width="18" height="12" viewBox="0 0 18 12" fill="none" xmlns="http://www.w3.org/2000/svg">
<path d="M9.78 1.17C9.78 1.14 9.78 1.11 9.78 1.11C9.78 0.510001 7.59 0 4.89 0C2.19 0 0 0.510001 0 1.11C0 1.14 0 1.17 0 1.17H9.78Z" fill="white"/>
<path d="M0 1.34961L0.93 3.35961H3.99L3.75 3.41961C3.6 3.44961 3.51 3.56961 3.54 3.71961C3.57 3.83961 3.72 3.92961 3.87 3.89961L6 3.47961C6.09 3.44961 6.15 3.41961 6.18 3.35961H8.91L9.84 1.34961H0Z" fill="white"/>
<path d="M3.8709 5.04058L6.0009 4.62058C6.1509 4.59058 6.2409 4.47058 6.2109 4.32058C6.1809 4.20058 6.0309 4.11058 5.8809 4.14058L3.7509 4.56058C3.6009 4.59058 3.5109 4.71058 3.5409 4.86058C3.5709 4.98058 3.7209 5.07058 3.8709 5.04058Z" fill="white"/>
<path d="M3.86965 6.17925L5.96966 5.75925C6.11966 5.72925 6.20966 5.60925 6.17966 5.45925C6.14966 5.33925 5.99966 5.24925 5.84966 5.27925L3.71965 5.69925C3.56965 5.72925 3.47965 5.84925 3.50965 5.99925C3.56965 6.11925 3.71965 6.20925 3.86965 6.17925Z" fill="white"/>
<path d="M6.00031 6.59961H3.84031C3.69031 6.59961 3.57031 6.71961 3.57031 6.86961V7.10961C3.57031 7.25961 3.69031 7.37961 3.84031 7.37961H6.00031C6.15031 7.37961 6.27032 7.25961 6.27032 7.10961V6.86961C6.27032 6.71961 6.15031 6.59961 6.00031 6.59961Z" fill="white"/>
<path d="M17.8503 5.60945C17.8503 5.57945 17.8503 5.54945 17.8503 5.54945C17.8503 4.94945 15.6603 4.43945 12.9603 4.43945C10.2603 4.43945 8.07031 4.94945 8.07031 5.54945C8.07031 5.57945 8.07031 5.60945 8.07031 5.60945H17.8503Z" fill="white"/>
<path d="M8.07031 5.78906L9.00031 7.79906H12.0603L11.8203 7.85906C11.6703 7.88906 11.5803 8.00906 11.6103 8.15906C11.6403 8.27906 11.7903 8.36906 11.9403 8.33906L14.0703 7.91906C14.1603 7.88906 14.2203 7.85906 14.2503 7.79906H16.9803L17.9103 5.78906H8.07031Z" fill="white"/>
<path d="M11.91 9.48003L14.04 9.06003C14.19 9.03003 14.28 8.91003 14.25 8.76003C14.22 8.64003 14.07 8.55003 13.92 8.58003L11.79 9.00003C11.64 9.03003 11.55 9.15003 11.58 9.30003C11.61 9.42003 11.76 9.51003 11.91 9.48003Z" fill="white"/>
<path d="M11.91 10.6187L14.04 10.1987C14.19 10.1687 14.28 10.0487 14.25 9.8987C14.22 9.7787 14.07 9.68871 13.92 9.71871L11.79 10.1387C11.64 10.1687 11.55 10.2887 11.58 10.4387C11.61 10.5887 11.76 10.6487 11.91 10.6187Z" fill="white"/>
<path d="M14.0394 11.0391H11.8794C11.7294 11.0391 11.6094 11.1591 11.6094 11.3091V11.5491C11.6094 11.6991 11.7294 11.8191 11.8794 11.8191H14.0394C14.1894 11.8191 14.3094 11.6991 14.3094 11.5491V11.3091C14.3394 11.1591 14.1894 11.0391 14.0394 11.0391Z" fill="white"/>
</svg>
