<svg width="12" height="20" viewBox="0 0 12 20" fill="none" xmlns="http://www.w3.org/2000/svg">
<path d="M1.26602 10.9004H1.19935C1.16602 10.9004 1.16601 10.9337 1.16601 10.9671C1.13268 11.1671 1.03268 11.4337 0.899349 11.7004C0.666016 12.1337 0.366016 12.2004 0.232682 12.2004C0.199349 12.2004 0.166016 12.2671 0.166016 12.3004C0.166016 12.3671 0.199349 12.4004 0.232682 12.4004H1.29935C1.33268 12.4004 1.36602 12.3337 1.36602 12.3004V11.0337C1.33268 10.9671 1.29935 10.9004 1.26602 10.9004Z" fill="white"/>
<path d="M1.26602 10.5664H1.19935C1.16602 10.5664 1.16601 10.5331 1.16601 10.4997C1.13268 10.2997 1.03268 10.0331 0.899349 9.76641C0.666016 9.33307 0.366016 9.26641 0.232682 9.26641C0.199349 9.26641 0.166016 9.19974 0.166016 9.16641C0.166016 9.09974 0.199349 9.06641 0.232682 9.06641H1.29935C1.33268 9.06641 1.36602 9.13307 1.36602 9.16641V10.4664C1.33268 10.5331 1.29935 10.5664 1.26602 10.5664Z" fill="white"/>
<path d="M8.19948 11.9997V11.2331C8.19948 11.0997 8.29948 10.9997 8.43281 10.9997H9.13281C9.26615 10.9997 9.36615 10.8997 9.36615 10.7664V9.29974C9.36615 9.16641 9.26615 9.06641 9.13281 9.06641H8.19948H2.86615C2.73281 9.06641 2.63281 9.16641 2.63281 9.29974V11.0331V12.3664C2.63281 12.4997 2.73281 12.5997 2.86615 12.5997H6.76615C6.89948 12.5997 6.99948 12.6997 6.99948 12.8331V13.4664C6.99948 13.5997 7.09948 13.6997 7.23281 13.6997H10.0328C10.1661 13.6997 10.2661 13.5997 10.2661 13.4664V12.5331C10.2661 12.3997 10.1661 12.2997 10.0328 12.2997H8.43281C8.29948 12.2331 8.19948 12.0997 8.19948 11.9997Z" fill="white"/>
<path d="M9.89943 18.6992C9.8661 18.8659 9.7661 18.9992 9.63277 19.0659C9.4661 19.1659 9.23277 19.2659 8.9661 19.3326C8.79943 19.3659 8.63277 19.3992 8.49943 19.3992C8.23277 19.3992 7.99943 19.2326 7.93277 18.9659L6.43277 12.4326C6.3661 12.1326 6.5661 11.8326 6.8661 11.7326L7.43277 11.5992C7.79943 11.5326 8.13277 11.7659 8.13277 12.1326C8.13277 12.6326 8.23277 13.2326 8.53277 13.7659C8.93277 14.5326 9.39943 14.6992 9.7661 15.2659C10.0994 15.8659 10.3661 16.8659 9.89943 18.6992Z" fill="white"/>
<path d="M4.23242 10.8322V15.0322C4.23242 15.0322 4.23242 15.0322 4.23242 15.0655L3.73242 16.0988C3.73242 16.1322 3.73242 16.1322 3.76576 16.1655C3.76576 16.2988 3.83242 16.4322 3.96576 16.4988C4.06576 16.5322 4.19909 16.5322 4.29909 16.4655C4.29909 16.4655 4.29909 16.4655 4.33242 16.4655C4.33242 16.4655 4.36576 16.4655 4.36576 16.4322L4.89909 15.3322L4.93242 15.2988V10.8322C4.93242 10.7988 4.89909 10.7988 4.89909 10.7988H4.29909C4.26576 10.7988 4.23242 10.8322 4.23242 10.8322Z" fill="white"/>
<path d="M2.16601 12.9664C1.59935 12.9664 1.16602 12.4997 1.16602 11.9664V9.56641C1.16602 8.99974 1.63268 8.56641 2.16601 8.56641C2.73268 8.56641 3.16601 9.03307 3.16601 9.56641V11.9664C3.16601 12.4997 2.69935 12.9664 2.16601 12.9664Z" fill="white"/>
<path d="M11.266 2.46552L9.59933 1.59886L9.73266 1.33219C9.79933 1.16552 9.76599 0.965525 9.59933 0.898858L8.83266 0.498858C8.66599 0.432191 8.46599 0.465525 8.39933 0.632191L8.26599 0.898858L6.59933 0.0321915C6.43266 -0.0344751 6.23266 -0.00114192 6.16599 0.165525L5.69933 1.06552C5.63266 1.23219 5.66599 1.43219 5.83266 1.49886L5.86599 1.53219L3.93266 5.26552H3.96599H3.93266L4.49933 7.59886C4.53266 7.69886 4.49933 7.79886 4.46599 7.86552L3.93266 8.89886C3.83266 9.09886 3.89933 9.33219 4.09933 9.43219L4.96599 9.89886C5.16599 9.99886 5.39933 9.93219 5.49933 9.73219L6.03266 8.69886C6.06599 8.59886 6.16599 8.53219 6.23266 8.49886L8.46599 7.63219V7.59886H8.49933L10.466 3.89886L10.4993 3.93219C10.666 3.99886 10.866 3.96552 10.9327 3.79886L11.3993 2.89886C11.466 2.73219 11.4327 2.53219 11.266 2.46552Z" fill="white"/>
</svg>
