<svg width="16" height="16" viewBox="0 0 16 16" fill="none" xmlns="http://www.w3.org/2000/svg">
<path d="M14.94 0H0.24C0.0899998 0 0 0.12 0 0.24V14.94C0 15.09 0.12 15.18 0.24 15.18H14.94C15.09 15.18 15.18 15.06 15.18 14.94V0.24C15.21 0.0900003 15.09 0 14.94 0ZM0.51 3.33H2.85V11.88H0.51V3.33ZM14.7 14.67H0.51V12.33H14.7V14.67ZM10.68 3.33H11.88V4.23L4.53 11.85H3.33V10.95L10.68 3.33ZM3.33 10.23V3.33H5.82V7.65L3.33 10.23ZM6.3 7.14V3.33H8.88V4.47L6.3 7.14ZM9.39 3.93V3.33H9.99L9.39 3.93ZM11.88 4.95V11.85H9.39V7.53L11.88 4.95ZM8.88 8.04V11.85H6.3V10.71L8.88 8.04ZM5.82 11.25V11.88H5.22L5.82 11.25ZM14.7 11.85H12.36V3.33H14.7V11.85ZM14.7 2.82H0.51V0.48H14.7V2.82Z" fill="white"/>
<path d="M2.13059 2.09922C2.37059 2.09922 2.58059 1.88922 2.58059 1.64922C2.58059 1.40922 2.37059 1.19922 2.13059 1.19922C1.89059 1.19922 1.68059 1.40922 1.68059 1.64922C1.65059 1.88922 1.86059 2.09922 2.13059 2.09922Z" fill="white"/>
<path d="M13.0809 2.09922C13.3209 2.09922 13.5309 1.88922 13.5309 1.64922C13.5309 1.40922 13.3209 1.19922 13.0809 1.19922C12.8409 1.19922 12.6309 1.40922 12.6309 1.64922C12.6309 1.88922 12.8409 2.09922 13.0809 2.09922Z" fill="white"/>
<path d="M2.13059 13.9801C2.37059 13.9801 2.58059 13.7701 2.58059 13.5301C2.58059 13.2901 2.37059 13.0801 2.13059 13.0801C1.89059 13.0801 1.68059 13.2901 1.68059 13.5301C1.65059 13.7701 1.86059 13.9801 2.13059 13.9801Z" fill="white"/>
<path d="M13.0809 13.9801C13.3209 13.9801 13.5309 13.7701 13.5309 13.5301C13.5309 13.2901 13.3209 13.0801 13.0809 13.0801C12.8409 13.0801 12.6309 13.2901 12.6309 13.5301C12.6309 13.7701 12.8409 13.9801 13.0809 13.9801Z" fill="white"/>
</svg>
