<svg width="20" height="10" viewBox="0 0 20 10" fill="none" xmlns="http://www.w3.org/2000/svg">
<path d="M11.1948 6.51008C11.1648 6.45008 11.1348 6.42008 11.0748 6.39008C11.0748 6.36008 11.0748 6.36008 11.1048 6.33008C9.66475 6.57008 7.95475 6.78008 6.03475 6.75008C4.26475 6.75008 2.67475 6.57008 1.29475 6.33008C1.29475 6.36008 1.29475 6.36008 1.32475 6.39008C1.26475 6.42008 1.23475 6.45008 1.20475 6.51008L0.0347516 8.61008C-0.0552484 8.79008 0.0347512 9.03008 0.244751 9.09008C1.83475 9.42008 3.81475 9.72008 6.06475 9.72008C8.46475 9.72008 10.5348 9.45008 12.1848 9.09008C12.3948 9.06008 12.4848 8.82008 12.3948 8.61008C11.9748 7.89008 11.5848 7.20008 11.1948 6.51008Z" fill="white"/>
<path d="M12.1856 3.48H12.0056C11.8856 3.48 11.7956 3.57 11.7656 3.66C11.7356 3.66 11.7056 3.66 11.7056 3.66H10.8656C10.8356 3.66 10.7756 3.66 10.7456 3.69C10.5956 3.57 10.3856 3.48 10.1756 3.48H9.81562V2.91C9.81562 2.85 9.81562 2.82 9.81562 2.76H11.2856C11.3456 2.88 11.4356 2.97 11.5556 2.97H16.4456C16.6256 2.97 16.7456 2.82 16.7456 2.64V1.62C16.7456 1.44 16.5956 1.29 16.4456 1.29H11.5256C11.3456 1.29 11.2256 1.44 11.2256 1.62V1.74H10.3556C10.3256 0.84 8.49562 0 6.21562 0C3.93562 0 2.07563 0.87 2.07563 1.77C2.07563 2.07 2.28563 2.37 2.67562 2.61C2.67562 2.64 2.67562 2.67 2.64562 2.7C2.61562 2.79 2.61562 2.85 2.61562 2.94V3.51H2.25563C1.71563 3.51 1.26562 4.02 1.26562 4.62V5.49C1.26562 5.61 1.29563 5.73 1.32563 5.82C2.70562 6.09 4.29562 6.27 6.06562 6.27C7.95562 6.27 9.66562 6.09 11.1356 5.82H11.6756C11.7056 5.82 11.7056 5.82 11.7356 5.82C11.7656 5.94 11.8556 6.03 12.0056 6.03H12.1856C12.3356 6.03 12.4556 5.91 12.4556 5.76V3.78C12.4556 3.63 12.3356 3.48 12.1856 3.48Z" fill="white"/>
<path d="M19.0554 3.48047H18.3954C18.2154 3.48047 18.0654 3.54047 17.9454 3.66047H13.2054C13.1154 3.66047 13.0254 3.78047 13.0254 3.93047V5.67047C13.0254 5.82047 13.1154 5.94047 13.2054 5.94047H17.9454C18.0654 6.06047 18.2154 6.12047 18.3954 6.12047H19.0554C19.4154 6.12047 19.7154 5.82047 19.7154 5.46047V4.14047C19.6854 3.81047 19.4154 3.48047 19.0554 3.48047Z" fill="white"/>
</svg>
