<svg width="12" height="19" viewBox="0 0 12 19" fill="none" xmlns="http://www.w3.org/2000/svg">
<path d="M2.24922 4.88906H9.08922C9.26922 4.88906 9.38922 4.73906 9.38922 4.58906C9.38922 4.40906 9.23922 4.28906 9.08922 4.28906H2.24922C2.06922 4.28906 1.94922 4.43906 1.94922 4.58906C1.94922 4.76906 2.06922 4.88906 2.24922 4.88906Z" fill="white"/>
<path d="M2.09992 10.8891H6.14992C6.23992 10.8891 6.32992 10.7391 6.32992 10.5891C6.32992 10.4091 6.23992 10.2891 6.14992 10.2891H2.09992C2.00992 10.2891 1.91992 10.4391 1.91992 10.5891C1.94992 10.7391 2.00992 10.8891 2.09992 10.8891Z" fill="white"/>
<path d="M2.24922 8.8793H9.08922C9.26922 8.8793 9.38922 8.7293 9.38922 8.5793C9.38922 8.3993 9.23922 8.2793 9.08922 8.2793H2.24922C2.06922 8.2793 1.94922 8.4293 1.94922 8.5793C1.94922 8.7593 2.06922 8.8793 2.24922 8.8793Z" fill="white"/>
<path d="M2.24922 6.93008H9.08922C9.26922 6.93008 9.38922 6.78008 9.38922 6.63008C9.38922 6.45008 9.23922 6.33008 9.08922 6.33008H2.24922C2.06922 6.33008 1.94922 6.45008 1.94922 6.63008C1.94922 6.78008 2.06922 6.93008 2.24922 6.93008Z" fill="white"/>
<path d="M9.30094 14.0405C9.30094 12.7805 8.28094 11.7305 6.99094 11.7305C5.70094 11.7305 4.71094 12.7805 4.71094 14.0405C4.71094 14.7305 5.01094 15.3605 5.55094 15.8105V18.1505V18.1805V18.2105C5.55094 18.2105 5.55094 18.2105 5.55094 18.2405C5.55094 18.2405 5.55094 18.2405 5.55094 18.2705C5.55094 18.2705 5.55094 18.2705 5.55094 18.3005C5.55094 18.3005 5.55094 18.3005 5.55094 18.3305C5.55094 18.3305 5.55094 18.3305 5.55094 18.3605C5.55094 18.3605 5.55094 18.3605 5.55094 18.3905C5.55094 18.3905 5.55094 18.3905 5.55094 18.4205C5.55094 18.4205 5.55094 18.4205 5.55094 18.4505L5.58094 18.4805C5.58094 18.4805 5.61094 18.4805 5.61094 18.5105H5.64094C5.64094 18.5105 5.64094 18.5105 5.67094 18.5105C5.67094 18.5105 5.67094 18.5105 5.70094 18.5105H5.73094H5.76094H5.79094H5.82094H5.85094C5.88094 18.5105 5.88094 18.5105 5.91094 18.5105C5.94094 18.5105 5.94094 18.5105 5.97094 18.4805C6.00094 18.4805 6.00094 18.4505 6.03094 18.4505C6.06094 18.4505 6.06094 18.4205 6.09094 18.4205L6.87094 17.7905L7.65094 18.4205C7.68094 18.4205 7.68094 18.4505 7.71094 18.4505C7.74094 18.4505 7.74094 18.4805 7.77094 18.4805C7.80094 18.4805 7.80094 18.4805 7.83094 18.5105C7.86094 18.5105 7.86094 18.5105 7.89094 18.5105C7.89094 18.5105 7.92094 18.5105 7.95094 18.5105H7.98094H8.01094H8.04094H8.07094H8.10094H8.13094C8.13094 18.5105 8.13094 18.5105 8.16094 18.5105C8.16094 18.5105 8.16094 18.5105 8.19094 18.4805C8.19094 18.4805 8.22094 18.4805 8.22094 18.4505L8.25094 18.4205C8.25094 18.4205 8.25094 18.4205 8.28094 18.3905L8.31094 18.3305C8.31094 18.3305 8.31094 18.3305 8.31094 18.3005L8.34094 18.2105V18.1805V18.1505V18.1205V15.7805C9.00094 15.3905 9.30094 14.7305 9.30094 14.0405ZM8.46094 14.0405C8.46094 14.8505 7.80094 15.5105 6.99094 15.5105C6.18094 15.5105 5.52094 14.8505 5.52094 14.0405C5.52094 13.2305 6.18094 12.5705 6.99094 12.5705C7.80094 12.6005 8.46094 13.2305 8.46094 14.0405ZM7.17094 16.9505C7.14094 16.9505 7.14094 16.9505 7.14094 16.9505H7.11094C7.11094 16.9505 7.11094 16.9505 7.08094 16.9505C7.08094 16.9505 7.08094 16.9505 7.05094 16.9505H6.99094H6.96094H6.93094H6.90094H6.87094H6.84094H6.81094H6.78094C6.78094 16.9505 6.78094 16.9505 6.75094 16.9505C6.75094 16.9505 6.75094 16.9505 6.72094 16.9505L6.78094 16.9805C6.78094 16.9805 6.75094 16.9805 6.75094 17.0105L6.39094 17.3105V16.2905C6.81094 16.4105 7.23094 16.4105 7.65094 16.2905V17.3105L7.29094 17.0105C7.29094 17.0105 7.29094 17.0105 7.26094 16.9805C7.20094 16.9505 7.20094 16.9505 7.17094 16.9505C7.20094 16.9505 7.17094 16.9505 7.17094 16.9505Z" fill="white"/>
<path d="M6.98945 12.9902C6.41945 12.9902 5.93945 13.4702 5.93945 14.0402C5.93945 14.6102 6.41945 15.0902 6.98945 15.0902C7.55945 15.0902 8.03945 14.6102 8.03945 14.0402C8.03945 13.4702 7.58945 12.9902 6.98945 12.9902ZM7.19945 14.0402C7.19945 14.1602 7.10945 14.2502 6.98945 14.2502C6.86945 14.2502 6.77945 14.1602 6.77945 14.0402C6.77945 13.9202 6.86945 13.8302 6.98945 13.8302C7.10945 13.8302 7.19945 13.9202 7.19945 14.0402Z" fill="white"/>
<path d="M8.85 0H0.96C0.42 0 0 0.42 0 0.96V14.67C0 15.21 0.42 15.63 0.96 15.63H4.14V14.82H0.96C0.87 14.82 0.81 14.76 0.81 14.67V0.96C0.81 0.87 0.87 0.81 0.96 0.81H8.25V3.15C8.25 3.36 8.43 3.54 8.64 3.54H10.74V14.67C10.74 14.76 10.68 14.82 10.59 14.82H9.69V15.63H10.59C11.04 15.63 11.4 15.33 11.52 14.91V2.91L8.85 0ZM9.06 2.76V1.47L10.26 2.76H9.06Z" fill="white"/>
</svg>
