<svg width="88" height="70" viewBox="0 0 88 70" fill="none" xmlns="http://www.w3.org/2000/svg">
<path d="M24.5 30.668C28.0898 30.668 31 27.7578 31 24.168C31 20.5781 28.0898 17.668 24.5 17.668C20.9101 17.668 18 20.5781 18 24.168C18 27.7578 20.9101 30.668 24.5 30.668Z" fill="white"/>
<path d="M37.5 43.6673L31 35.0007L18 52.334H70L50.5 26.334L37.5 43.6673Z" fill="white"/>
<path d="M78.668 0.333984H9.33464C4.55497 0.333984 0.667969 4.22098 0.667969 9.00065V61.0006C0.667969 65.7803 4.55497 69.6673 9.33464 69.6673H78.668C83.4476 69.6673 87.3346 65.7803 87.3346 61.0006V9.00065C87.3346 4.22098 83.4476 0.333984 78.668 0.333984ZM9.33464 61.0006V9.00065H78.668L78.6766 61.0006H9.33464Z" fill="white"/>
</svg>
